%
M48
M72
T01C0.0150
T02C0.0320
T03C0.0354
T04C0.0394
T05C0.0400
T06C0.0492
T07C0.0590
T08C0.1102
T09C0.2650
%
T01
X9555Y11050
X10633Y12097
X10555Y12925
X9997Y14300
X9680Y15050
X11555Y14300
X12055Y14175
X12180Y14800
X12555Y14550
X13055Y15550
X13430Y15300
X13805Y15050
X13930Y14300
X13555Y13800
X14930Y13425
X15305Y13675
X15680Y13925
X16055Y14175
X16180Y14675
X16555Y14425
X15680Y14925
X15180Y14425
X16055Y15800
X15680Y16050
X15055Y15925
X14805Y16550
X14180Y16425
X13680Y16800
X13180Y16050
X12680Y15800
X11566Y16936
X11430Y20175
X11180Y20675
X11680Y21175
X11930Y20675
X12180Y21175
X12805Y21050
X12430Y20175
X12680Y22425
X13055Y25300
X13930Y26550
X14555Y26425
X14555Y26925
X14555Y27425
X14555Y27925
X14555Y28425
X14555Y28925
X14555Y29425
X14555Y29925
X14555Y30425
X14555Y30925
X14555Y31425
X14555Y31925
X13305Y30925
X13305Y30425
X13180Y29925
X13680Y29175
X13680Y28800
X13680Y28425
X13680Y28050
X13680Y27175
X14555Y25925
X14555Y25425
X14555Y24925
X15805Y23800
X17680Y23425
X18930Y23925
X19055Y23425
X19805Y23675
X19555Y24675
X19555Y25175
X19555Y25675
X19555Y26175
X19555Y26675
X19555Y27175
X19555Y27675
X19555Y28175
X19555Y28675
X19555Y29175
X19555Y29675
X19555Y30175
X19555Y30675
X19555Y31175
X19555Y31675
X20805Y32300
X21555Y31925
X21555Y31425
X21555Y30925
X21555Y30425
X21555Y29925
X21555Y29425
X21555Y28925
X21555Y28425
X21555Y27925
X21555Y27425
X21555Y26925
X21555Y26425
X21555Y25925
X21555Y25425
X21555Y24925
X21555Y20050
X21930Y19300
X21930Y18425
X20680Y14800
X20060Y14045
X19680Y14425
X20055Y13425
X18805Y13175
X18930Y12550
X18805Y12175
X18555Y11800
X18430Y10425
X18055Y9425
X19180Y8550
X19680Y9175
X20430Y8300
X21430Y8425
X22680Y8800
X22930Y9175
X21180Y10925
X22805Y14425
X18430Y16300
X17680Y16675
X18430Y18050
X15180Y20050
X14555Y18818
X14555Y17300
X14430Y11550
X14430Y9675
X16555Y10925
X22555Y6050
X26805Y22675
X26180Y22925
X25930Y23300
X25680Y23050
X25430Y23550
X26555Y24425
X26555Y24925
X26555Y25425
X26555Y25925
X26555Y26425
X26555Y26925
X26555Y27425
X26555Y27925
X26555Y28425
X26555Y28925
X26555Y29425
X26555Y29925
X26555Y30425
X26555Y30925
X26555Y31425
X26180Y30675
X27805Y32300
X25680Y28175
X25430Y27175
X25930Y27175
X28055Y22425
X17805Y33175
X12930Y34140
X11430Y32800
X11680Y30800
X11167Y30800
X10805Y30425
X9930Y30550
X9930Y31300
X8055Y32175
X7055Y30925
X8055Y29800
X6680Y28675
X6180Y28675
X6180Y29425
X5680Y30800
X4805Y29175
X4055Y25675
X3180Y25050
X1055Y22675
X8055Y21925
X8555Y25550
X9305Y25925
X9680Y26425
X9930Y26050
X10305Y26425
X10555Y26050
X9930Y27050
X9680Y27800
X10305Y28675
X10930Y28425
X7930Y28175
X7930Y27550
X1180Y32300
T02
X5655Y26675
X5655Y24775
X8930Y33550
X9930Y33550
X10930Y33550
X11930Y33550
T03
X2330Y28675
X2330Y27675
X2330Y26675
X1330Y26675
X1330Y27675
X1330Y28675
T04
X6930Y6675
X6930Y7675
X7930Y7675
X7930Y6675
X8930Y6675
X8930Y7675
X9930Y7675
X9930Y6675
X10930Y6675
X10930Y7675
X11930Y7675
X11930Y6675
X12930Y6675
X12930Y7675
X13930Y7675
X13930Y6675
X14930Y6675
X14930Y7675
X15930Y7675
X15930Y6675
X16930Y6675
X16930Y7675
X17930Y7675
X17930Y6675
X18930Y6675
X18930Y7675
X19930Y7675
X19930Y6675
X20930Y6675
X20930Y7675
X21930Y7675
X21930Y6675
X8580Y16025
X8580Y17025
X8580Y18025
X8580Y19025
X8580Y20025
X8580Y21025
X7430Y23800
X7430Y24800
X2305Y24675
X2305Y23675
X2305Y22675
X2305Y25675
X7555Y14425
X7555Y13425
T05
X24740Y34140
X26520Y34140
T06
X6359Y34330
X3210Y34330
T07
X24250Y33160
X27010Y33160
T08
X14430Y33175
X14430Y33175
T09
X14430Y22550
M30
