G75*
%MOIN*%
%OFA0B0*%
%FSLAX24Y24*%
%IPPOS*%
%LPD*%
%AMOC8*
5,1,8,0,0,1.08239X$1,22.5*
%
%ADD10R,0.0600X0.2550*%
%ADD11C,0.0640*%
%ADD12C,0.0660*%
%ADD13OC8,0.0700*%
%ADD14C,0.0885*%
%ADD15C,0.0520*%
%ADD16R,0.0594X0.0594*%
%ADD17C,0.0594*%
%ADD18OC8,0.0660*%
%ADD19R,0.0591X0.0512*%
%ADD20C,0.0160*%
%ADD21C,0.0310*%
%ADD22C,0.0120*%
%ADD23C,0.0100*%
%ADD24C,0.1502*%
%ADD25C,0.0320*%
%ADD26C,0.0240*%
D10*
X005930Y003800D03*
X006930Y003800D03*
X008930Y003800D03*
X009930Y003800D03*
X010930Y003800D03*
X011930Y003800D03*
X012930Y003800D03*
X013930Y003800D03*
X014930Y003800D03*
X015930Y003800D03*
X016930Y003800D03*
X017930Y003800D03*
X018930Y003800D03*
X019930Y003800D03*
X021930Y003800D03*
X022930Y003800D03*
D11*
X002330Y026675D03*
X002330Y027675D03*
X002330Y028675D03*
X001330Y028675D03*
X001330Y027675D03*
X001330Y026675D03*
D12*
X002305Y025675D03*
X002305Y024675D03*
X002305Y023675D03*
X002305Y022675D03*
X007430Y023800D03*
X007430Y024800D03*
X008580Y021025D03*
X008580Y020025D03*
X008580Y019025D03*
X008580Y018025D03*
X008580Y017025D03*
X008580Y016025D03*
X007555Y014425D03*
X007555Y013425D03*
D13*
X024740Y034140D03*
X026520Y034140D03*
D14*
X027010Y033160D03*
X024250Y033160D03*
D15*
X005655Y026675D03*
X005655Y024775D03*
D16*
X021930Y007675D03*
D17*
X021930Y006675D03*
X020930Y006675D03*
X020930Y007675D03*
X019930Y007675D03*
X019930Y006675D03*
X018930Y006675D03*
X018930Y007675D03*
X017930Y007675D03*
X017930Y006675D03*
X016930Y006675D03*
X016930Y007675D03*
X015930Y007675D03*
X015930Y006675D03*
X014930Y006675D03*
X014930Y007675D03*
X013930Y007675D03*
X013930Y006675D03*
X012930Y006675D03*
X012930Y007675D03*
X011930Y007675D03*
X011930Y006675D03*
X010930Y006675D03*
X010930Y007675D03*
X009930Y007675D03*
X009930Y006675D03*
X008930Y006675D03*
X008930Y007675D03*
X007930Y007675D03*
X007930Y006675D03*
X006930Y006675D03*
X006930Y007675D03*
D18*
X008930Y033550D03*
X009930Y033550D03*
X010930Y033550D03*
X011930Y033550D03*
D19*
X004805Y030799D03*
X004805Y030051D03*
D20*
X005660Y014820D02*
X005660Y007156D01*
X005684Y007214D01*
X006309Y007839D01*
X006391Y007921D01*
X006476Y007956D01*
X006483Y007973D01*
X006632Y008122D01*
X006825Y008202D01*
X007035Y008202D01*
X007228Y008122D01*
X007377Y007973D01*
X007430Y007845D01*
X007483Y007973D01*
X007632Y008122D01*
X007825Y008202D01*
X008035Y008202D01*
X008228Y008122D01*
X008377Y007973D01*
X008430Y007845D01*
X008483Y007973D01*
X008632Y008122D01*
X008825Y008202D01*
X009035Y008202D01*
X009228Y008122D01*
X009377Y007973D01*
X009430Y007845D01*
X009483Y007973D01*
X009632Y008122D01*
X009825Y008202D01*
X010035Y008202D01*
X010228Y008122D01*
X010377Y007973D01*
X010430Y007845D01*
X010483Y007973D01*
X010632Y008122D01*
X010825Y008202D01*
X011035Y008202D01*
X011228Y008122D01*
X011377Y007973D01*
X011430Y007845D01*
X011483Y007973D01*
X011632Y008122D01*
X011825Y008202D01*
X012035Y008202D01*
X012228Y008122D01*
X012377Y007973D01*
X012430Y007845D01*
X012483Y007973D01*
X012632Y008122D01*
X012825Y008202D01*
X013035Y008202D01*
X013228Y008122D01*
X013377Y007973D01*
X013430Y007845D01*
X013483Y007973D01*
X013632Y008122D01*
X013825Y008202D01*
X014035Y008202D01*
X014228Y008122D01*
X014377Y007973D01*
X014430Y007845D01*
X014483Y007973D01*
X014632Y008122D01*
X014825Y008202D01*
X015035Y008202D01*
X015228Y008122D01*
X015377Y007973D01*
X015430Y007845D01*
X015483Y007973D01*
X015632Y008122D01*
X015825Y008202D01*
X016035Y008202D01*
X016228Y008122D01*
X016377Y007973D01*
X016430Y007845D01*
X016483Y007973D01*
X016632Y008122D01*
X016825Y008202D01*
X017035Y008202D01*
X017228Y008122D01*
X017377Y007973D01*
X017430Y007845D01*
X017483Y007973D01*
X017632Y008122D01*
X017825Y008202D01*
X018035Y008202D01*
X018228Y008122D01*
X018377Y007973D01*
X018430Y007845D01*
X018483Y007973D01*
X018632Y008122D01*
X018825Y008202D01*
X019014Y008202D01*
X018962Y008224D01*
X018854Y008332D01*
X018795Y008473D01*
X018795Y008627D01*
X018854Y008768D01*
X018962Y008876D01*
X019103Y008935D01*
X019257Y008935D01*
X019398Y008876D01*
X019506Y008768D01*
X019565Y008627D01*
X019565Y008561D01*
X019924Y008202D01*
X020035Y008202D01*
X020228Y008122D01*
X020377Y007973D01*
X020430Y007845D01*
X020483Y007973D01*
X020632Y008122D01*
X020825Y008202D01*
X021007Y008202D01*
X020943Y008266D01*
X020943Y008266D01*
X019318Y009891D01*
X019275Y009994D01*
X019275Y010934D01*
X018746Y011463D01*
X018632Y011415D01*
X018478Y011415D01*
X018365Y011462D01*
X018365Y010810D01*
X018507Y010810D01*
X018648Y010751D01*
X018756Y010643D01*
X018815Y010502D01*
X018815Y010348D01*
X018756Y010207D01*
X018648Y010099D01*
X018507Y010040D01*
X018353Y010040D01*
X018212Y010099D01*
X018196Y010115D01*
X012243Y010115D01*
X012129Y010162D01*
X010579Y011712D01*
X010556Y011712D01*
X010415Y011771D01*
X010306Y011879D01*
X010248Y012021D01*
X010248Y012044D01*
X009735Y012557D01*
X009687Y012671D01*
X009687Y013990D01*
X008868Y013990D01*
X008754Y014037D01*
X008667Y014124D01*
X007542Y015249D01*
X007495Y015363D01*
X007495Y020745D01*
X007274Y020745D01*
X007171Y020788D01*
X007093Y020866D01*
X006943Y021016D01*
X006900Y021119D01*
X006900Y022395D01*
X003499Y022395D01*
X003396Y022438D01*
X003318Y022516D01*
X002943Y022891D01*
X002900Y022994D01*
X002900Y023684D01*
X002865Y023719D01*
X002865Y023564D01*
X002780Y023358D01*
X002622Y023200D01*
X002561Y023175D01*
X002622Y023150D01*
X002780Y022992D01*
X002865Y022786D01*
X002865Y022564D01*
X002780Y022358D01*
X002702Y022280D01*
X006400Y022280D01*
X006577Y022207D01*
X006712Y022072D01*
X006785Y021895D01*
X006785Y018280D01*
X007025Y018280D01*
X007202Y018207D01*
X007337Y018072D01*
X007410Y017895D01*
X007410Y015955D01*
X007337Y015778D01*
X007202Y015643D01*
X007025Y015570D01*
X006785Y015570D01*
X006785Y015205D01*
X006712Y015028D01*
X006577Y014893D01*
X006400Y014820D01*
X005660Y014820D01*
X005660Y014663D02*
X007104Y014663D01*
X007119Y014692D02*
X007082Y014621D01*
X007058Y014544D01*
X007045Y014465D01*
X007045Y014443D01*
X007537Y014443D01*
X007537Y014407D01*
X007045Y014407D01*
X007045Y014385D01*
X007058Y014306D01*
X007082Y014229D01*
X007119Y014158D01*
X007166Y014093D01*
X007223Y014036D01*
X007288Y013989D01*
X007359Y013952D01*
X007362Y013951D01*
X007238Y013900D01*
X007080Y013742D01*
X006995Y013536D01*
X006995Y013314D01*
X007080Y013108D01*
X007238Y012950D01*
X007444Y012865D01*
X007666Y012865D01*
X007872Y012950D01*
X008030Y013108D01*
X008115Y013314D01*
X008115Y013536D01*
X008030Y013742D01*
X007872Y013900D01*
X007748Y013951D01*
X007751Y013952D01*
X007822Y013989D01*
X007887Y014036D01*
X007944Y014093D01*
X007991Y014158D01*
X008028Y014229D01*
X008052Y014306D01*
X008065Y014385D01*
X008065Y014407D01*
X007573Y014407D01*
X007573Y014443D01*
X008065Y014443D01*
X008065Y014465D01*
X008052Y014544D01*
X008028Y014621D01*
X007991Y014692D01*
X007944Y014757D01*
X007887Y014814D01*
X007822Y014861D01*
X007751Y014898D01*
X007674Y014922D01*
X007595Y014935D01*
X007573Y014935D01*
X007573Y014443D01*
X007537Y014443D01*
X007537Y014935D01*
X007515Y014935D01*
X007436Y014922D01*
X007359Y014898D01*
X007288Y014861D01*
X007223Y014814D01*
X007166Y014757D01*
X007119Y014692D01*
X007233Y014822D02*
X006404Y014822D01*
X006664Y014980D02*
X007812Y014980D01*
X007877Y014822D02*
X007970Y014822D01*
X008006Y014663D02*
X008129Y014663D01*
X008059Y014505D02*
X008287Y014505D01*
X008446Y014346D02*
X008059Y014346D01*
X008006Y014188D02*
X008604Y014188D01*
X008774Y014029D02*
X007878Y014029D01*
X007901Y013871D02*
X009687Y013871D01*
X009687Y013712D02*
X008042Y013712D01*
X008108Y013554D02*
X009687Y013554D01*
X009687Y013395D02*
X008115Y013395D01*
X008083Y013237D02*
X009687Y013237D01*
X009687Y013078D02*
X008000Y013078D01*
X007798Y012920D02*
X009687Y012920D01*
X009687Y012761D02*
X005660Y012761D01*
X005660Y012603D02*
X009716Y012603D01*
X009848Y012444D02*
X005660Y012444D01*
X005660Y012286D02*
X010006Y012286D01*
X010165Y012127D02*
X005660Y012127D01*
X005660Y011969D02*
X010269Y011969D01*
X010376Y011810D02*
X005660Y011810D01*
X005660Y011652D02*
X010640Y011652D01*
X010799Y011493D02*
X005660Y011493D01*
X005660Y011335D02*
X010957Y011335D01*
X011116Y011176D02*
X005660Y011176D01*
X005660Y011018D02*
X011274Y011018D01*
X011433Y010859D02*
X005660Y010859D01*
X005660Y010701D02*
X011591Y010701D01*
X011750Y010542D02*
X005660Y010542D01*
X005660Y010384D02*
X011908Y010384D01*
X012067Y010225D02*
X005660Y010225D01*
X005660Y010067D02*
X018289Y010067D01*
X018571Y010067D02*
X019275Y010067D01*
X019275Y010225D02*
X018764Y010225D01*
X018815Y010384D02*
X019275Y010384D01*
X019275Y010542D02*
X018798Y010542D01*
X018699Y010701D02*
X019275Y010701D01*
X019275Y010859D02*
X018365Y010859D01*
X018365Y011018D02*
X019192Y011018D01*
X019033Y011176D02*
X018365Y011176D01*
X018365Y011335D02*
X018875Y011335D01*
X019590Y012286D02*
X020330Y012286D01*
X020330Y012444D02*
X019432Y012444D01*
X019315Y012561D02*
X019315Y012627D01*
X019256Y012768D01*
X019148Y012876D01*
X019079Y012905D01*
X019131Y012957D01*
X019190Y013098D01*
X019190Y013122D01*
X019803Y013735D01*
X019826Y013735D01*
X019842Y013719D01*
X019983Y013660D01*
X020137Y013660D01*
X020278Y013719D01*
X020330Y013771D01*
X020330Y011493D01*
X020330Y011493D01*
X020292Y011584D01*
X020214Y011662D01*
X019315Y012561D01*
X019315Y012603D02*
X020330Y012603D01*
X020330Y012761D02*
X019259Y012761D01*
X019094Y012920D02*
X020330Y012920D01*
X020330Y013078D02*
X019182Y013078D01*
X019305Y013237D02*
X020330Y013237D01*
X020330Y013395D02*
X019463Y013395D01*
X019622Y013554D02*
X020330Y013554D01*
X020330Y013712D02*
X020262Y013712D01*
X020060Y014045D02*
X019675Y014045D01*
X018805Y013175D01*
X018055Y012425D01*
X018055Y010425D01*
X012305Y010425D01*
X010633Y012097D01*
X009997Y012733D01*
X009997Y014300D01*
X008930Y014300D01*
X007805Y015425D01*
X007805Y021000D01*
X007830Y021025D01*
X008580Y021025D01*
X008775Y021550D02*
X008691Y021585D01*
X008469Y021585D01*
X008263Y021500D01*
X008105Y021342D01*
X008102Y021335D01*
X007768Y021335D01*
X007696Y021305D01*
X007460Y021305D01*
X007460Y022606D01*
X007417Y022709D01*
X007339Y022787D01*
X007214Y022912D01*
X007111Y022955D01*
X003671Y022955D01*
X003460Y023166D01*
X003460Y023856D01*
X006870Y023856D01*
X006870Y023911D02*
X006870Y023689D01*
X006955Y023483D01*
X007113Y023325D01*
X007319Y023240D01*
X007541Y023240D01*
X007747Y023325D01*
X007905Y023483D01*
X007990Y023689D01*
X007990Y023911D01*
X007905Y024117D01*
X007747Y024275D01*
X007686Y024300D01*
X007747Y024325D01*
X007905Y024483D01*
X007990Y024689D01*
X007990Y024911D01*
X007905Y025117D01*
X007747Y025275D01*
X007541Y025360D01*
X007319Y025360D01*
X007113Y025275D01*
X006955Y025117D01*
X006870Y024911D01*
X006870Y024689D01*
X006955Y024483D01*
X007113Y024325D01*
X007174Y024300D01*
X007113Y024275D01*
X006955Y024117D01*
X006870Y023911D01*
X006913Y024015D02*
X003361Y024015D01*
X003339Y024037D02*
X002850Y024526D01*
X002865Y024564D01*
X002865Y024786D01*
X002780Y024992D01*
X002622Y025150D01*
X002498Y025201D01*
X002501Y025202D01*
X002572Y025239D01*
X002637Y025286D01*
X002694Y025343D01*
X002741Y025408D01*
X002778Y025479D01*
X002802Y025556D01*
X002815Y025635D01*
X002815Y025657D01*
X002323Y025657D01*
X002323Y025693D01*
X002815Y025693D01*
X002815Y025715D01*
X002802Y025794D01*
X002778Y025871D01*
X002741Y025942D01*
X002694Y026007D01*
X002637Y026064D01*
X002572Y026111D01*
X002501Y026148D01*
X002497Y026149D01*
X002642Y026209D01*
X002796Y026363D01*
X002880Y026566D01*
X002880Y026784D01*
X002796Y026987D01*
X002642Y027141D01*
X002560Y027175D01*
X002642Y027209D01*
X002796Y027363D01*
X002880Y027566D01*
X002880Y027784D01*
X002796Y027987D01*
X002642Y028141D01*
X002560Y028175D01*
X002642Y028209D01*
X002796Y028363D01*
X002809Y028395D01*
X002900Y028395D01*
X002900Y025314D01*
X002854Y025268D01*
X002795Y025127D01*
X002795Y024973D01*
X002854Y024832D01*
X002962Y024724D01*
X003103Y024665D01*
X003257Y024665D01*
X003398Y024724D01*
X003506Y024832D01*
X003565Y024973D01*
X003565Y025127D01*
X003506Y025268D01*
X003460Y025314D01*
X003460Y028395D01*
X004314Y028395D01*
X004771Y027938D01*
X004874Y027895D01*
X007666Y027895D01*
X007712Y027849D01*
X007853Y027790D01*
X008007Y027790D01*
X008148Y027849D01*
X008256Y027957D01*
X008315Y028098D01*
X008315Y028252D01*
X008256Y028393D01*
X008148Y028501D01*
X008007Y028560D01*
X007853Y028560D01*
X007712Y028501D01*
X007666Y028455D01*
X006504Y028455D01*
X006506Y028457D01*
X006565Y028598D01*
X006565Y028752D01*
X006506Y028893D01*
X006460Y028939D01*
X006460Y029161D01*
X006506Y029207D01*
X006565Y029348D01*
X006565Y029502D01*
X006506Y029643D01*
X006398Y029751D01*
X006257Y029810D01*
X006103Y029810D01*
X005962Y029751D01*
X005854Y029643D01*
X005795Y029502D01*
X005795Y029348D01*
X005854Y029207D01*
X005900Y029161D01*
X005900Y028939D01*
X005854Y028893D01*
X005795Y028752D01*
X005795Y028598D01*
X005854Y028457D01*
X005856Y028455D01*
X005046Y028455D01*
X004699Y028802D01*
X004728Y028790D01*
X004882Y028790D01*
X005023Y028849D01*
X005131Y028957D01*
X005190Y029098D01*
X005190Y029252D01*
X005131Y029393D01*
X005085Y029439D01*
X005085Y029565D01*
X005196Y029565D01*
X005330Y029700D01*
X005330Y030402D01*
X005265Y030468D01*
X005268Y030474D01*
X005280Y030519D01*
X005280Y030751D01*
X004853Y030751D01*
X004853Y030847D01*
X005280Y030847D01*
X005280Y031079D01*
X005268Y031124D01*
X005244Y031165D01*
X005211Y031199D01*
X005170Y031223D01*
X005124Y031235D01*
X004853Y031235D01*
X004853Y030847D01*
X004757Y030847D01*
X004757Y030751D01*
X004330Y030751D01*
X004330Y030519D01*
X004342Y030474D01*
X004345Y030468D01*
X004280Y030402D01*
X004280Y029700D01*
X004414Y029565D01*
X004525Y029565D01*
X004525Y029455D01*
X001999Y029455D01*
X001896Y029412D01*
X001646Y029162D01*
X001588Y029104D01*
X001522Y029138D01*
X001447Y029163D01*
X001369Y029175D01*
X001339Y029175D01*
X001339Y028684D01*
X001321Y028684D01*
X001321Y029175D01*
X001291Y029175D01*
X001213Y029163D01*
X001138Y029138D01*
X001068Y029103D01*
X001004Y029056D01*
X000949Y029001D01*
X000902Y028937D01*
X000867Y028867D01*
X000842Y028792D01*
X000830Y028714D01*
X000830Y028684D01*
X001321Y028684D01*
X001321Y028666D01*
X000830Y028666D01*
X000830Y028636D01*
X000842Y028558D01*
X000867Y028483D01*
X000902Y028413D01*
X000949Y028349D01*
X001004Y028294D01*
X000660Y028294D01*
X000660Y028136D02*
X001013Y028136D01*
X001018Y028141D02*
X000864Y027987D01*
X000780Y027784D01*
X000780Y027566D01*
X000864Y027363D01*
X001018Y027209D01*
X001100Y027175D01*
X001018Y027141D01*
X000864Y026987D01*
X000780Y026784D01*
X000780Y026566D01*
X000864Y026363D01*
X001018Y026209D01*
X001221Y026125D01*
X001439Y026125D01*
X001525Y026160D01*
X001525Y025119D01*
X001568Y025016D01*
X001760Y024824D01*
X001745Y024786D01*
X001745Y024564D01*
X001830Y024358D01*
X001988Y024200D01*
X002049Y024175D01*
X001988Y024150D01*
X001830Y023992D01*
X001745Y023786D01*
X001745Y023564D01*
X001830Y023358D01*
X001988Y023200D01*
X002049Y023175D01*
X001988Y023150D01*
X001830Y022992D01*
X001745Y022786D01*
X001745Y022564D01*
X001830Y022358D01*
X001908Y022280D01*
X000660Y022280D01*
X000660Y034320D01*
X002483Y034320D01*
X002483Y034185D01*
X002594Y033918D01*
X002798Y033714D01*
X003065Y033603D01*
X003354Y033603D01*
X003621Y033714D01*
X003825Y033918D01*
X003936Y034185D01*
X003936Y034320D01*
X005633Y034320D01*
X005633Y034185D01*
X005744Y033918D01*
X005948Y033714D01*
X006215Y033603D01*
X006504Y033603D01*
X006770Y033714D01*
X006975Y033918D01*
X007085Y034185D01*
X007085Y034320D01*
X008304Y034320D01*
X007896Y033912D01*
X007818Y033834D01*
X007775Y033731D01*
X007775Y032439D01*
X007729Y032393D01*
X007670Y032252D01*
X007670Y032098D01*
X000660Y032098D01*
X000660Y031940D02*
X007746Y031940D01*
X007729Y031957D02*
X007837Y031849D01*
X007978Y031790D01*
X008132Y031790D01*
X008273Y031849D01*
X008381Y031957D01*
X008440Y032098D01*
X014210Y032098D01*
X014229Y032143D02*
X014170Y032002D01*
X014170Y031848D01*
X014229Y031707D01*
X014261Y031675D01*
X014229Y031643D01*
X014170Y031502D01*
X014170Y031348D01*
X014229Y031207D01*
X014261Y031175D01*
X014229Y031143D01*
X014170Y031002D01*
X014170Y030848D01*
X014229Y030707D01*
X014261Y030675D01*
X014229Y030643D01*
X014170Y030502D01*
X014170Y030348D01*
X014229Y030207D01*
X014261Y030175D01*
X014229Y030143D01*
X014170Y030002D01*
X014170Y029848D01*
X014229Y029707D01*
X014261Y029675D01*
X014229Y029643D01*
X014193Y029558D01*
X013960Y029791D01*
X013960Y031231D01*
X013917Y031334D01*
X013792Y031459D01*
X013714Y031537D01*
X013611Y031580D01*
X011611Y031580D01*
X011509Y031537D01*
X011156Y031185D01*
X011091Y031185D01*
X010949Y031126D01*
X010912Y031089D01*
X010464Y031537D01*
X010361Y031580D01*
X010194Y031580D01*
X010148Y031626D01*
X010007Y031685D01*
X009853Y031685D01*
X009712Y031626D01*
X009666Y031580D01*
X006749Y031580D01*
X006646Y031537D01*
X006568Y031459D01*
X006318Y031209D01*
X006275Y031106D01*
X006275Y030369D01*
X006318Y030266D01*
X006396Y030188D01*
X008021Y028563D01*
X008124Y028520D01*
X009314Y028520D01*
X009400Y028434D01*
X009400Y028064D01*
X009354Y028018D01*
X009295Y027877D01*
X009295Y027723D01*
X009354Y027582D01*
X009462Y027474D01*
X009603Y027415D01*
X009757Y027415D01*
X009898Y027474D01*
X010006Y027582D01*
X010065Y027723D01*
X010065Y027877D01*
X010006Y028018D01*
X009960Y028064D01*
X009960Y028606D01*
X009917Y028709D01*
X009667Y028959D01*
X009589Y029037D01*
X009486Y029080D01*
X008296Y029080D01*
X006835Y030541D01*
X006835Y030601D01*
X006837Y030599D01*
X006978Y030540D01*
X007044Y030540D01*
X007193Y030391D01*
X007271Y030313D01*
X007374Y030270D01*
X009666Y030270D01*
X009712Y030224D01*
X009853Y030165D01*
X010007Y030165D01*
X010148Y030224D01*
X010256Y030332D01*
X010315Y030473D01*
X010315Y030627D01*
X010256Y030768D01*
X010148Y030876D01*
X010031Y030925D01*
X010148Y030974D01*
X010192Y031017D01*
X010568Y030641D01*
X010646Y030563D01*
X010749Y030520D01*
X010903Y030520D01*
X010949Y030474D01*
X011091Y030415D01*
X011244Y030415D01*
X011385Y030474D01*
X011494Y030582D01*
X011552Y030723D01*
X011552Y030789D01*
X011783Y031020D01*
X012928Y031020D01*
X012920Y031002D01*
X012920Y030848D01*
X012931Y030822D01*
X011021Y028912D01*
X010943Y028834D01*
X010933Y028810D01*
X010853Y028810D01*
X010712Y028751D01*
X010604Y028643D01*
X010545Y028502D01*
X010545Y028348D01*
X010604Y028207D01*
X010650Y028161D01*
X010650Y026598D01*
X010631Y026643D01*
X010523Y026751D01*
X010382Y026810D01*
X010228Y026810D01*
X010087Y026751D01*
X009993Y026657D01*
X009898Y026751D01*
X009757Y026810D01*
X009603Y026810D01*
X009462Y026751D01*
X009354Y026643D01*
X009295Y026502D01*
X009295Y026348D01*
X009311Y026310D01*
X009228Y026310D01*
X009087Y026251D01*
X008979Y026143D01*
X008920Y026002D01*
X008920Y025848D01*
X008941Y025797D01*
X008861Y025830D01*
X008819Y025830D01*
X008773Y025876D01*
X008632Y025935D01*
X008478Y025935D01*
X008337Y025876D01*
X008229Y025768D01*
X008170Y025627D01*
X008170Y025473D01*
X008229Y025332D01*
X008337Y025224D01*
X008478Y025165D01*
X008632Y025165D01*
X008746Y025213D01*
X008775Y025184D01*
X008775Y021550D01*
X008775Y021637D02*
X007460Y021637D01*
X007460Y021479D02*
X008242Y021479D01*
X007732Y021320D02*
X007460Y021320D01*
X007114Y020845D02*
X006785Y020845D01*
X006785Y021003D02*
X006956Y021003D01*
X006900Y021162D02*
X006785Y021162D01*
X006785Y021320D02*
X006900Y021320D01*
X006900Y021479D02*
X006785Y021479D01*
X006785Y021637D02*
X006900Y021637D01*
X006900Y021796D02*
X006785Y021796D01*
X006761Y021954D02*
X006900Y021954D01*
X006900Y022113D02*
X006671Y022113D01*
X006900Y022271D02*
X006422Y022271D01*
X007221Y022905D02*
X008775Y022905D01*
X008775Y022747D02*
X007379Y022747D01*
X007460Y022588D02*
X008775Y022588D01*
X008775Y022430D02*
X007460Y022430D01*
X007460Y022271D02*
X008775Y022271D01*
X008775Y022113D02*
X007460Y022113D01*
X007460Y021954D02*
X008775Y021954D01*
X008775Y021796D02*
X007460Y021796D01*
X007495Y020686D02*
X006785Y020686D01*
X006785Y020528D02*
X007495Y020528D01*
X007495Y020369D02*
X006785Y020369D01*
X006785Y020211D02*
X007495Y020211D01*
X007495Y020052D02*
X006785Y020052D01*
X006785Y019894D02*
X007495Y019894D01*
X007495Y019735D02*
X006785Y019735D01*
X006785Y019577D02*
X007495Y019577D01*
X007495Y019418D02*
X006785Y019418D01*
X006785Y019260D02*
X007495Y019260D01*
X007495Y019101D02*
X006785Y019101D01*
X006785Y018943D02*
X007495Y018943D01*
X007495Y018784D02*
X006785Y018784D01*
X006785Y018626D02*
X007495Y018626D01*
X007495Y018467D02*
X006785Y018467D01*
X006785Y018309D02*
X007495Y018309D01*
X007495Y018150D02*
X007259Y018150D01*
X007370Y017992D02*
X007495Y017992D01*
X007495Y017833D02*
X007410Y017833D01*
X007410Y017675D02*
X007495Y017675D01*
X007495Y017516D02*
X007410Y017516D01*
X007410Y017358D02*
X007495Y017358D01*
X007495Y017199D02*
X007410Y017199D01*
X007410Y017041D02*
X007495Y017041D01*
X007495Y016882D02*
X007410Y016882D01*
X007410Y016724D02*
X007495Y016724D01*
X007495Y016565D02*
X007410Y016565D01*
X007410Y016407D02*
X007495Y016407D01*
X007495Y016248D02*
X007410Y016248D01*
X007410Y016090D02*
X007495Y016090D01*
X007495Y015931D02*
X007400Y015931D01*
X007331Y015773D02*
X007495Y015773D01*
X007495Y015614D02*
X007132Y015614D01*
X006785Y015456D02*
X007495Y015456D01*
X007522Y015297D02*
X006785Y015297D01*
X006758Y015139D02*
X007653Y015139D01*
X007573Y014822D02*
X007537Y014822D01*
X007537Y014663D02*
X007573Y014663D01*
X007573Y014505D02*
X007537Y014505D01*
X007051Y014505D02*
X005660Y014505D01*
X005660Y014346D02*
X007051Y014346D01*
X007104Y014188D02*
X005660Y014188D01*
X005660Y014029D02*
X007232Y014029D01*
X007209Y013871D02*
X005660Y013871D01*
X005660Y013712D02*
X007068Y013712D01*
X007002Y013554D02*
X005660Y013554D01*
X005660Y013395D02*
X006995Y013395D01*
X007027Y013237D02*
X005660Y013237D01*
X005660Y013078D02*
X007110Y013078D01*
X007312Y012920D02*
X005660Y012920D01*
X005660Y009908D02*
X019311Y009908D01*
X019460Y009750D02*
X005660Y009750D01*
X005660Y009591D02*
X019618Y009591D01*
X019777Y009433D02*
X005660Y009433D01*
X005660Y009274D02*
X019935Y009274D01*
X020094Y009116D02*
X005660Y009116D01*
X005660Y008957D02*
X020252Y008957D01*
X020411Y008799D02*
X019476Y008799D01*
X019559Y008640D02*
X020569Y008640D01*
X020728Y008482D02*
X019644Y008482D01*
X019803Y008323D02*
X020886Y008323D01*
X020735Y008165D02*
X020125Y008165D01*
X020344Y008006D02*
X020516Y008006D01*
X020431Y007848D02*
X020429Y007848D01*
X018863Y008323D02*
X005660Y008323D01*
X005660Y008165D02*
X006735Y008165D01*
X006516Y008006D02*
X005660Y008006D01*
X005660Y007848D02*
X006317Y007848D01*
X006159Y007689D02*
X005660Y007689D01*
X005660Y007531D02*
X006000Y007531D01*
X005842Y007372D02*
X005660Y007372D01*
X005660Y007214D02*
X005684Y007214D01*
X005660Y008482D02*
X018795Y008482D01*
X018801Y008640D02*
X005660Y008640D01*
X005660Y008799D02*
X018884Y008799D01*
X018735Y008165D02*
X018125Y008165D01*
X018344Y008006D02*
X018516Y008006D01*
X018431Y007848D02*
X018429Y007848D01*
X017735Y008165D02*
X017125Y008165D01*
X017344Y008006D02*
X017516Y008006D01*
X017431Y007848D02*
X017429Y007848D01*
X016735Y008165D02*
X016125Y008165D01*
X016344Y008006D02*
X016516Y008006D01*
X016431Y007848D02*
X016429Y007848D01*
X015735Y008165D02*
X015125Y008165D01*
X015344Y008006D02*
X015516Y008006D01*
X015431Y007848D02*
X015429Y007848D01*
X014735Y008165D02*
X014125Y008165D01*
X014344Y008006D02*
X014516Y008006D01*
X014431Y007848D02*
X014429Y007848D01*
X013735Y008165D02*
X013125Y008165D01*
X013344Y008006D02*
X013516Y008006D01*
X013431Y007848D02*
X013429Y007848D01*
X012735Y008165D02*
X012125Y008165D01*
X012344Y008006D02*
X012516Y008006D01*
X012431Y007848D02*
X012429Y007848D01*
X011735Y008165D02*
X011125Y008165D01*
X011344Y008006D02*
X011516Y008006D01*
X011431Y007848D02*
X011429Y007848D01*
X010735Y008165D02*
X010125Y008165D01*
X010344Y008006D02*
X010516Y008006D01*
X010431Y007848D02*
X010429Y007848D01*
X009735Y008165D02*
X009125Y008165D01*
X009344Y008006D02*
X009516Y008006D01*
X009431Y007848D02*
X009429Y007848D01*
X008735Y008165D02*
X008125Y008165D01*
X008344Y008006D02*
X008516Y008006D01*
X008431Y007848D02*
X008429Y007848D01*
X008430Y007505D02*
X008483Y007377D01*
X008632Y007228D01*
X008760Y007175D01*
X008632Y007122D01*
X008483Y006973D01*
X008430Y006845D01*
X008377Y006973D01*
X008228Y007122D01*
X008100Y007175D01*
X008228Y007228D01*
X008377Y007377D01*
X008430Y007505D01*
X008372Y007372D02*
X008488Y007372D01*
X008667Y007214D02*
X008193Y007214D01*
X008295Y007055D02*
X008565Y007055D01*
X008451Y006897D02*
X008409Y006897D01*
X008496Y006363D02*
X008632Y006228D01*
X008825Y006148D01*
X009035Y006148D01*
X009220Y006225D01*
X009266Y006179D01*
X009640Y005805D01*
X009640Y005305D01*
X009535Y005305D01*
X009400Y005170D01*
X009400Y005136D01*
X009398Y005144D01*
X009374Y005186D01*
X009341Y005219D01*
X009299Y005243D01*
X009254Y005255D01*
X009000Y005255D01*
X009000Y004550D01*
X008860Y004550D01*
X008860Y005255D01*
X008606Y005255D01*
X008561Y005243D01*
X008535Y005228D01*
X008535Y006270D01*
X008496Y006363D01*
X008535Y006263D02*
X008597Y006263D01*
X008535Y006104D02*
X009341Y006104D01*
X009499Y005946D02*
X008535Y005946D01*
X008535Y005787D02*
X009640Y005787D01*
X009640Y005629D02*
X008535Y005629D01*
X008535Y005470D02*
X009640Y005470D01*
X009640Y005312D02*
X008535Y005312D01*
X008860Y005153D02*
X009000Y005153D01*
X009000Y004995D02*
X008860Y004995D01*
X008860Y004836D02*
X009000Y004836D01*
X009000Y004678D02*
X008860Y004678D01*
X009393Y005153D02*
X009400Y005153D01*
X007431Y007848D02*
X007429Y007848D01*
X007344Y008006D02*
X007516Y008006D01*
X007735Y008165D02*
X007125Y008165D01*
X010566Y012603D02*
X015357Y012603D01*
X015318Y012641D02*
X015396Y012563D01*
X015499Y012520D01*
X017736Y012520D01*
X017764Y012532D01*
X017745Y012487D01*
X017745Y010735D01*
X012433Y010735D01*
X011018Y012151D01*
X011018Y012174D01*
X010959Y012315D01*
X010851Y012424D01*
X010709Y012482D01*
X010686Y012482D01*
X010307Y012861D01*
X010307Y013552D01*
X010860Y012999D01*
X010947Y012912D01*
X011061Y012865D01*
X013742Y012865D01*
X013856Y012912D01*
X013943Y012999D01*
X013943Y012999D01*
X014856Y013912D01*
X014943Y013999D01*
X014990Y014113D01*
X014990Y014990D01*
X015295Y014990D01*
X015295Y014848D01*
X015354Y014707D01*
X015462Y014599D01*
X015603Y014540D01*
X015757Y014540D01*
X015810Y014562D01*
X015836Y014500D01*
X015729Y014393D01*
X015694Y014310D01*
X015603Y014310D01*
X015462Y014251D01*
X015354Y014143D01*
X015319Y014060D01*
X015228Y014060D01*
X015087Y014001D01*
X014979Y013893D01*
X014944Y013810D01*
X014853Y013810D01*
X014712Y013751D01*
X014604Y013643D01*
X014545Y013502D01*
X014545Y013348D01*
X014604Y013207D01*
X014712Y013099D01*
X014853Y013040D01*
X014919Y013040D01*
X015318Y012641D01*
X015198Y012761D02*
X010407Y012761D01*
X010307Y012920D02*
X010939Y012920D01*
X010781Y013078D02*
X010307Y013078D01*
X010307Y013237D02*
X010622Y013237D01*
X010464Y013395D02*
X010307Y013395D01*
X011122Y013175D02*
X009997Y014300D01*
X010504Y014955D02*
X009046Y014955D01*
X008536Y015465D01*
X008691Y015465D01*
X008897Y015550D01*
X009055Y015708D01*
X009140Y015914D01*
X009140Y016136D01*
X009055Y016342D01*
X008897Y016500D01*
X008836Y016525D01*
X008897Y016550D01*
X008903Y016556D01*
X010504Y014955D01*
X010479Y014980D02*
X009021Y014980D01*
X008862Y015139D02*
X010321Y015139D01*
X010162Y015297D02*
X008704Y015297D01*
X008545Y015456D02*
X010004Y015456D01*
X009845Y015614D02*
X008961Y015614D01*
X009082Y015773D02*
X009686Y015773D01*
X009528Y015931D02*
X009140Y015931D01*
X009140Y016090D02*
X009369Y016090D01*
X009211Y016248D02*
X009094Y016248D01*
X009052Y016407D02*
X008990Y016407D01*
X011210Y017291D02*
X011210Y019851D01*
X011212Y019849D01*
X011353Y019790D01*
X011507Y019790D01*
X011648Y019849D01*
X011756Y019957D01*
X011815Y020098D01*
X011815Y020252D01*
X011788Y020317D01*
X011853Y020290D01*
X012007Y020290D01*
X012072Y020317D01*
X012045Y020252D01*
X012045Y020098D01*
X012104Y019957D01*
X012212Y019849D01*
X012353Y019790D01*
X012507Y019790D01*
X012648Y019849D01*
X012756Y019957D01*
X012815Y020098D01*
X012815Y020252D01*
X012756Y020393D01*
X012710Y020439D01*
X012710Y021995D01*
X012748Y021853D01*
X012986Y021442D01*
X013322Y021106D01*
X013733Y020868D01*
X014192Y020745D01*
X014668Y020745D01*
X015127Y020868D01*
X015538Y021106D01*
X015874Y021442D01*
X016112Y021853D01*
X016235Y022312D01*
X016235Y022788D01*
X016112Y023247D01*
X015874Y023658D01*
X015638Y023895D01*
X016064Y023895D01*
X016400Y023559D01*
X016400Y020291D01*
X014940Y018831D01*
X014940Y018895D01*
X014881Y019036D01*
X014773Y019145D01*
X014632Y019203D01*
X014478Y019203D01*
X014337Y019145D01*
X014321Y019128D01*
X013387Y019128D01*
X013273Y019081D01*
X011512Y017321D01*
X011489Y017321D01*
X011348Y017262D01*
X011293Y017208D01*
X011210Y017291D01*
X011210Y017358D02*
X011549Y017358D01*
X011708Y017516D02*
X011210Y017516D01*
X011210Y017675D02*
X011866Y017675D01*
X012025Y017833D02*
X011210Y017833D01*
X011210Y017992D02*
X012183Y017992D01*
X012342Y018150D02*
X011210Y018150D01*
X011210Y018309D02*
X012500Y018309D01*
X012659Y018467D02*
X011210Y018467D01*
X011210Y018626D02*
X012817Y018626D01*
X012976Y018784D02*
X011210Y018784D01*
X011210Y018943D02*
X013134Y018943D01*
X013321Y019101D02*
X011210Y019101D01*
X011210Y019260D02*
X015369Y019260D01*
X015527Y019418D02*
X011210Y019418D01*
X011210Y019577D02*
X015686Y019577D01*
X015844Y019735D02*
X011210Y019735D01*
X011693Y019894D02*
X012167Y019894D01*
X012064Y020052D02*
X011796Y020052D01*
X011815Y020211D02*
X012045Y020211D01*
X012693Y019894D02*
X016003Y019894D01*
X016161Y020052D02*
X012796Y020052D01*
X012815Y020211D02*
X016320Y020211D01*
X016400Y020369D02*
X012766Y020369D01*
X012710Y020528D02*
X016400Y020528D01*
X016400Y020686D02*
X012710Y020686D01*
X012710Y020845D02*
X013821Y020845D01*
X013499Y021003D02*
X012710Y021003D01*
X012710Y021162D02*
X013266Y021162D01*
X013107Y021320D02*
X012710Y021320D01*
X012710Y021479D02*
X012964Y021479D01*
X012873Y021637D02*
X012710Y021637D01*
X012710Y021796D02*
X012781Y021796D01*
X012721Y021954D02*
X012710Y021954D01*
X012960Y023614D02*
X012960Y027770D01*
X013416Y027770D01*
X013462Y027724D01*
X013603Y027665D01*
X013757Y027665D01*
X013775Y027673D01*
X013775Y027552D01*
X013757Y027560D01*
X013603Y027560D01*
X013462Y027501D01*
X013354Y027393D01*
X013295Y027252D01*
X013295Y027098D01*
X013354Y026957D01*
X013462Y026849D01*
X013603Y026790D01*
X013757Y026790D01*
X013898Y026849D01*
X014006Y026957D01*
X014023Y026997D01*
X014214Y027188D01*
X014231Y027205D01*
X014261Y027175D01*
X014229Y027143D01*
X014170Y027002D01*
X014170Y026848D01*
X014229Y026707D01*
X014261Y026675D01*
X014229Y026643D01*
X014170Y026502D01*
X014170Y026348D01*
X014229Y026207D01*
X014236Y026199D01*
X014146Y026162D01*
X014068Y026084D01*
X014068Y026084D01*
X013771Y025787D01*
X013693Y025709D01*
X013650Y025606D01*
X013650Y024619D01*
X013693Y024516D01*
X013771Y024438D01*
X013926Y024283D01*
X013733Y024232D01*
X013322Y023994D01*
X012986Y023658D01*
X012960Y023614D01*
X012960Y023698D02*
X013025Y023698D01*
X012960Y023856D02*
X013183Y023856D01*
X013357Y024015D02*
X012960Y024015D01*
X012960Y024173D02*
X013631Y024173D01*
X013877Y024332D02*
X012960Y024332D01*
X012960Y024490D02*
X013719Y024490D01*
X013650Y024649D02*
X012960Y024649D01*
X012960Y024807D02*
X013650Y024807D01*
X013650Y024966D02*
X012960Y024966D01*
X012960Y025124D02*
X013650Y025124D01*
X013650Y025283D02*
X012960Y025283D01*
X012960Y025441D02*
X013650Y025441D01*
X013650Y025600D02*
X012960Y025600D01*
X012960Y025758D02*
X013742Y025758D01*
X013771Y025787D02*
X013771Y025787D01*
X013901Y025917D02*
X012960Y025917D01*
X012960Y026075D02*
X014059Y026075D01*
X014218Y026234D02*
X012960Y026234D01*
X012960Y026392D02*
X014170Y026392D01*
X014190Y026551D02*
X012960Y026551D01*
X012960Y026709D02*
X014228Y026709D01*
X014170Y026868D02*
X013917Y026868D01*
X014052Y027026D02*
X014180Y027026D01*
X014211Y027185D02*
X014251Y027185D01*
X014214Y027188D02*
X014214Y027188D01*
X013775Y027660D02*
X012960Y027660D01*
X012960Y027502D02*
X013462Y027502D01*
X013333Y027343D02*
X012960Y027343D01*
X012960Y027185D02*
X013295Y027185D01*
X013325Y027026D02*
X012960Y027026D01*
X012960Y026868D02*
X013443Y026868D01*
X014189Y029562D02*
X014195Y029562D01*
X014223Y029721D02*
X014030Y029721D01*
X013960Y029879D02*
X014170Y029879D01*
X014185Y030038D02*
X013960Y030038D01*
X013960Y030196D02*
X014239Y030196D01*
X014170Y030355D02*
X013960Y030355D01*
X013960Y030513D02*
X014175Y030513D01*
X014257Y030672D02*
X013960Y030672D01*
X013960Y030830D02*
X014178Y030830D01*
X014170Y030989D02*
X013960Y030989D01*
X013960Y031147D02*
X014233Y031147D01*
X014188Y031306D02*
X013929Y031306D01*
X013787Y031464D02*
X014170Y031464D01*
X014220Y031623D02*
X010152Y031623D01*
X010537Y031464D02*
X011435Y031464D01*
X011277Y031306D02*
X010695Y031306D01*
X010854Y031147D02*
X010999Y031147D01*
X010910Y030513D02*
X010315Y030513D01*
X010296Y030672D02*
X010537Y030672D01*
X010379Y030830D02*
X010194Y030830D01*
X010163Y030989D02*
X010220Y030989D01*
X009829Y030925D02*
X009712Y030876D01*
X009666Y030830D01*
X007546Y030830D01*
X007440Y030936D01*
X007440Y031002D01*
X007432Y031020D01*
X009666Y031020D01*
X009712Y030974D01*
X009829Y030925D01*
X009697Y030989D02*
X007440Y030989D01*
X007546Y030830D02*
X009666Y030830D01*
X009778Y030196D02*
X007180Y030196D01*
X007229Y030355D02*
X007021Y030355D01*
X007071Y030513D02*
X006863Y030513D01*
X006388Y030196D02*
X005330Y030196D01*
X005330Y030038D02*
X006546Y030038D01*
X006705Y029879D02*
X005330Y029879D01*
X005330Y029721D02*
X005931Y029721D01*
X005820Y029562D02*
X005085Y029562D01*
X005121Y029404D02*
X005795Y029404D01*
X005838Y029245D02*
X005190Y029245D01*
X005185Y029087D02*
X005900Y029087D01*
X005889Y028928D02*
X005103Y028928D01*
X004890Y028611D02*
X005795Y028611D01*
X005802Y028770D02*
X004731Y028770D01*
X004415Y028294D02*
X003460Y028294D01*
X003460Y028136D02*
X004573Y028136D01*
X004732Y027977D02*
X003460Y027977D01*
X003460Y027819D02*
X007785Y027819D01*
X008075Y027819D02*
X009295Y027819D01*
X009321Y027660D02*
X003460Y027660D01*
X003460Y027502D02*
X009434Y027502D01*
X009337Y027977D02*
X008265Y027977D01*
X008315Y028136D02*
X009400Y028136D01*
X009400Y028294D02*
X008297Y028294D01*
X008197Y028453D02*
X009381Y028453D01*
X009698Y028928D02*
X011037Y028928D01*
X011196Y029087D02*
X008289Y029087D01*
X008131Y029245D02*
X011354Y029245D01*
X011513Y029404D02*
X007972Y029404D01*
X007814Y029562D02*
X011671Y029562D01*
X011830Y029721D02*
X007655Y029721D01*
X007497Y029879D02*
X011988Y029879D01*
X012147Y030038D02*
X007338Y030038D01*
X006863Y029721D02*
X006429Y029721D01*
X006540Y029562D02*
X007022Y029562D01*
X007180Y029404D02*
X006565Y029404D01*
X006522Y029245D02*
X007339Y029245D01*
X007497Y029087D02*
X006460Y029087D01*
X006471Y028928D02*
X007656Y028928D01*
X007814Y028770D02*
X006558Y028770D01*
X006565Y028611D02*
X007973Y028611D01*
X009420Y026709D02*
X006145Y026709D01*
X006145Y026772D02*
X006145Y026578D01*
X006070Y026397D01*
X005933Y026260D01*
X005752Y026185D01*
X005558Y026185D01*
X005377Y026260D01*
X005240Y026397D01*
X005165Y026578D01*
X005165Y026772D01*
X005240Y026953D01*
X005377Y027090D01*
X005558Y027165D01*
X005752Y027165D01*
X005933Y027090D01*
X006070Y026953D01*
X006145Y026772D01*
X006106Y026868D02*
X010650Y026868D01*
X010650Y027026D02*
X005997Y027026D01*
X006134Y026551D02*
X009315Y026551D01*
X009295Y026392D02*
X006065Y026392D01*
X005870Y026234D02*
X009069Y026234D01*
X008950Y026075D02*
X003460Y026075D01*
X003460Y025917D02*
X008434Y025917D01*
X008676Y025917D02*
X008920Y025917D01*
X008224Y025758D02*
X003460Y025758D01*
X003460Y025600D02*
X008170Y025600D01*
X008183Y025441D02*
X003460Y025441D01*
X003492Y025283D02*
X007132Y025283D01*
X006962Y025124D02*
X005999Y025124D01*
X005933Y025190D02*
X005752Y025265D01*
X005558Y025265D01*
X005377Y025190D01*
X005240Y025053D01*
X005165Y024872D01*
X005165Y024678D01*
X005240Y024497D01*
X005377Y024360D01*
X005558Y024285D01*
X005752Y024285D01*
X005933Y024360D01*
X006070Y024497D01*
X006145Y024678D01*
X006145Y024872D01*
X006070Y025053D01*
X005933Y025190D01*
X006106Y024966D02*
X006892Y024966D01*
X006870Y024807D02*
X006145Y024807D01*
X006133Y024649D02*
X006887Y024649D01*
X006952Y024490D02*
X006063Y024490D01*
X005865Y024332D02*
X007107Y024332D01*
X007011Y024173D02*
X003203Y024173D01*
X003339Y024037D02*
X003417Y023959D01*
X003460Y023856D01*
X003460Y023698D02*
X006870Y023698D01*
X006932Y023539D02*
X003460Y023539D01*
X003460Y023381D02*
X007058Y023381D01*
X007802Y023381D02*
X008775Y023381D01*
X008775Y023539D02*
X007928Y023539D01*
X007990Y023698D02*
X008775Y023698D01*
X008775Y023856D02*
X007990Y023856D01*
X007947Y024015D02*
X008775Y024015D01*
X008775Y024173D02*
X007849Y024173D01*
X007753Y024332D02*
X008775Y024332D01*
X008775Y024490D02*
X007908Y024490D01*
X007973Y024649D02*
X008775Y024649D01*
X008775Y024807D02*
X007990Y024807D01*
X007968Y024966D02*
X008775Y024966D01*
X008775Y025124D02*
X007898Y025124D01*
X007728Y025283D02*
X008278Y025283D01*
X008775Y023222D02*
X003460Y023222D01*
X003562Y023064D02*
X008775Y023064D01*
X009940Y026709D02*
X010045Y026709D01*
X010565Y026709D02*
X010650Y026709D01*
X010650Y027185D02*
X003460Y027185D01*
X003460Y027343D02*
X010650Y027343D01*
X010650Y027502D02*
X009926Y027502D01*
X010039Y027660D02*
X010650Y027660D01*
X010650Y027819D02*
X010065Y027819D01*
X010023Y027977D02*
X010650Y027977D01*
X010650Y028136D02*
X009960Y028136D01*
X009960Y028294D02*
X010568Y028294D01*
X010545Y028453D02*
X009960Y028453D01*
X009958Y028611D02*
X010590Y028611D01*
X010756Y028770D02*
X009856Y028770D01*
X010082Y030196D02*
X012305Y030196D01*
X012464Y030355D02*
X010266Y030355D01*
X011425Y030513D02*
X012622Y030513D01*
X012781Y030672D02*
X011531Y030672D01*
X011593Y030830D02*
X012928Y030830D01*
X012920Y030989D02*
X011752Y030989D01*
X011698Y032990D02*
X012162Y032990D01*
X012490Y033318D01*
X012490Y033782D01*
X012412Y033860D01*
X012666Y033860D01*
X012712Y033814D01*
X012853Y033755D01*
X013007Y033755D01*
X013148Y033814D01*
X013194Y033860D01*
X013657Y033860D01*
X013605Y033808D01*
X013469Y033573D01*
X013399Y033311D01*
X013399Y033039D01*
X013469Y032777D01*
X013605Y032542D01*
X013797Y032350D01*
X014032Y032214D01*
X014243Y032158D01*
X014229Y032143D01*
X014170Y031940D02*
X008364Y031940D01*
X008440Y032098D02*
X008440Y032252D01*
X008381Y032393D01*
X008335Y032439D01*
X008335Y033559D01*
X008370Y033594D01*
X008370Y033318D01*
X008698Y032990D01*
X009162Y032990D01*
X009430Y033258D01*
X009698Y032990D01*
X010162Y032990D01*
X010430Y033258D01*
X010698Y032990D01*
X011162Y032990D01*
X011430Y033258D01*
X011698Y032990D01*
X011639Y033049D02*
X011221Y033049D01*
X011380Y033208D02*
X011480Y033208D01*
X012221Y033049D02*
X013399Y033049D01*
X013399Y033208D02*
X012380Y033208D01*
X012490Y033366D02*
X013414Y033366D01*
X013456Y033525D02*
X012490Y033525D01*
X012490Y033683D02*
X013533Y033683D01*
X013638Y033842D02*
X013176Y033842D01*
X012684Y033842D02*
X012430Y033842D01*
X013439Y032891D02*
X008335Y032891D01*
X008335Y033049D02*
X008639Y033049D01*
X008480Y033208D02*
X008335Y033208D01*
X008335Y033366D02*
X008370Y033366D01*
X008370Y033525D02*
X008335Y033525D01*
X007826Y033842D02*
X006898Y033842D01*
X007009Y034000D02*
X007984Y034000D01*
X008143Y034159D02*
X007074Y034159D01*
X007085Y034317D02*
X008301Y034317D01*
X007775Y033683D02*
X006696Y033683D01*
X006023Y033683D02*
X003546Y033683D01*
X003748Y033842D02*
X005820Y033842D01*
X005710Y034000D02*
X003859Y034000D01*
X003925Y034159D02*
X005644Y034159D01*
X005633Y034317D02*
X003936Y034317D01*
X002873Y033683D02*
X000660Y033683D01*
X000660Y033525D02*
X007775Y033525D01*
X007775Y033366D02*
X000660Y033366D01*
X000660Y033208D02*
X007775Y033208D01*
X007775Y033049D02*
X000660Y033049D01*
X000660Y032891D02*
X007775Y032891D01*
X007775Y032732D02*
X000660Y032732D01*
X000660Y032574D02*
X007775Y032574D01*
X007751Y032415D02*
X000660Y032415D01*
X000660Y032257D02*
X007672Y032257D01*
X007670Y032098D02*
X007729Y031957D01*
X008359Y032415D02*
X013732Y032415D01*
X013587Y032574D02*
X008335Y032574D01*
X008335Y032732D02*
X013495Y032732D01*
X013958Y032257D02*
X008438Y032257D01*
X009221Y033049D02*
X009639Y033049D01*
X009480Y033208D02*
X009380Y033208D01*
X010221Y033049D02*
X010639Y033049D01*
X010480Y033208D02*
X010380Y033208D01*
X009708Y031623D02*
X000660Y031623D01*
X000660Y031781D02*
X014198Y031781D01*
X014814Y032210D02*
X014828Y032214D01*
X015063Y032350D01*
X015255Y032542D01*
X015391Y032777D01*
X015461Y033039D01*
X015461Y033311D01*
X015391Y033573D01*
X015255Y033808D01*
X015203Y033860D01*
X024200Y033860D01*
X024227Y033832D01*
X024116Y033832D01*
X023869Y033730D01*
X023680Y033541D01*
X023578Y033294D01*
X023578Y033026D01*
X023680Y032779D01*
X023869Y032590D01*
X023893Y032580D01*
X021069Y032580D01*
X021023Y032626D01*
X020882Y032685D01*
X020728Y032685D01*
X020587Y032626D01*
X020479Y032518D01*
X020420Y032377D01*
X020420Y032223D01*
X020428Y032205D01*
X014819Y032205D01*
X014814Y032210D01*
X014902Y032257D02*
X020420Y032257D01*
X020436Y032415D02*
X015128Y032415D01*
X015273Y032574D02*
X020534Y032574D01*
X023578Y033049D02*
X015461Y033049D01*
X015461Y033208D02*
X023578Y033208D01*
X023607Y033366D02*
X015446Y033366D01*
X015404Y033525D02*
X023673Y033525D01*
X023822Y033683D02*
X015327Y033683D01*
X015222Y033842D02*
X024218Y033842D01*
X024801Y033560D02*
X024980Y033560D01*
X025320Y033900D01*
X025320Y034320D01*
X025990Y034320D01*
X025990Y034160D01*
X026500Y034160D01*
X026500Y034120D01*
X026540Y034120D01*
X026540Y034160D01*
X027050Y034160D01*
X027050Y034320D01*
X028200Y034320D01*
X028200Y022280D01*
X027598Y022280D01*
X027981Y022662D01*
X028068Y022749D01*
X028115Y022863D01*
X028115Y032066D01*
X028131Y032082D01*
X028190Y032223D01*
X028190Y032377D01*
X028131Y032518D01*
X028023Y032626D01*
X027882Y032685D01*
X027728Y032685D01*
X027587Y032626D01*
X027541Y032580D01*
X027367Y032580D01*
X027391Y032590D01*
X027580Y032779D01*
X027682Y033026D01*
X027682Y033294D01*
X027580Y033541D01*
X027391Y033730D01*
X027144Y033832D01*
X026962Y033832D01*
X027050Y033920D01*
X027050Y034120D01*
X026540Y034120D01*
X026540Y033641D01*
X026440Y033541D01*
X026338Y033294D01*
X026338Y033026D01*
X026440Y032779D01*
X026629Y032590D01*
X026653Y032580D01*
X024607Y032580D01*
X024631Y032590D01*
X024820Y032779D01*
X024922Y033026D01*
X024922Y033294D01*
X024820Y033541D01*
X024801Y033560D01*
X024827Y033525D02*
X026433Y033525D01*
X026500Y033610D02*
X026500Y034120D01*
X025990Y034120D01*
X025990Y033920D01*
X026300Y033610D01*
X026500Y033610D01*
X026500Y033683D02*
X026540Y033683D01*
X026540Y033842D02*
X026500Y033842D01*
X026500Y034000D02*
X026540Y034000D01*
X026540Y034159D02*
X028200Y034159D01*
X028200Y034317D02*
X027050Y034317D01*
X027050Y034000D02*
X028200Y034000D01*
X028200Y033842D02*
X026971Y033842D01*
X027438Y033683D02*
X028200Y033683D01*
X028200Y033525D02*
X027587Y033525D01*
X027653Y033366D02*
X028200Y033366D01*
X028200Y033208D02*
X027682Y033208D01*
X027682Y033049D02*
X028200Y033049D01*
X028200Y032891D02*
X027626Y032891D01*
X027533Y032732D02*
X028200Y032732D01*
X028200Y032574D02*
X028076Y032574D01*
X028174Y032415D02*
X028200Y032415D01*
X028190Y032257D02*
X028200Y032257D01*
X028200Y032098D02*
X028138Y032098D01*
X028115Y031940D02*
X028200Y031940D01*
X028200Y031781D02*
X028115Y031781D01*
X028115Y031623D02*
X028200Y031623D01*
X028200Y031464D02*
X028115Y031464D01*
X028115Y031306D02*
X028200Y031306D01*
X028200Y031147D02*
X028115Y031147D01*
X028115Y030989D02*
X028200Y030989D01*
X028200Y030830D02*
X028115Y030830D01*
X028115Y030672D02*
X028200Y030672D01*
X028200Y030513D02*
X028115Y030513D01*
X028115Y030355D02*
X028200Y030355D01*
X028200Y030196D02*
X028115Y030196D01*
X028115Y030038D02*
X028200Y030038D01*
X028200Y029879D02*
X028115Y029879D01*
X028115Y029721D02*
X028200Y029721D01*
X028200Y029562D02*
X028115Y029562D01*
X028115Y029404D02*
X028200Y029404D01*
X028200Y029245D02*
X028115Y029245D01*
X028115Y029087D02*
X028200Y029087D01*
X028200Y028928D02*
X028115Y028928D01*
X028115Y028770D02*
X028200Y028770D01*
X028200Y028611D02*
X028115Y028611D01*
X028115Y028453D02*
X028200Y028453D01*
X028200Y028294D02*
X028115Y028294D01*
X028115Y028136D02*
X028200Y028136D01*
X028200Y027977D02*
X028115Y027977D01*
X028115Y027819D02*
X028200Y027819D01*
X028200Y027660D02*
X028115Y027660D01*
X028115Y027502D02*
X028200Y027502D01*
X028200Y027343D02*
X028115Y027343D01*
X028115Y027185D02*
X028200Y027185D01*
X028200Y027026D02*
X028115Y027026D01*
X028115Y026868D02*
X028200Y026868D01*
X028200Y026709D02*
X028115Y026709D01*
X028115Y026551D02*
X028200Y026551D01*
X028200Y026392D02*
X028115Y026392D01*
X028115Y026234D02*
X028200Y026234D01*
X028200Y026075D02*
X028115Y026075D01*
X028115Y025917D02*
X028200Y025917D01*
X028200Y025758D02*
X028115Y025758D01*
X028115Y025600D02*
X028200Y025600D01*
X028200Y025441D02*
X028115Y025441D01*
X028115Y025283D02*
X028200Y025283D01*
X028200Y025124D02*
X028115Y025124D01*
X028115Y024966D02*
X028200Y024966D01*
X028200Y024807D02*
X028115Y024807D01*
X028115Y024649D02*
X028200Y024649D01*
X028200Y024490D02*
X028115Y024490D01*
X028115Y024332D02*
X028200Y024332D01*
X028200Y024173D02*
X028115Y024173D01*
X028115Y024015D02*
X028200Y024015D01*
X028200Y023856D02*
X028115Y023856D01*
X028115Y023698D02*
X028200Y023698D01*
X028200Y023539D02*
X028115Y023539D01*
X028115Y023381D02*
X028200Y023381D01*
X028200Y023222D02*
X028115Y023222D01*
X028115Y023064D02*
X028200Y023064D01*
X028200Y022905D02*
X028115Y022905D01*
X028065Y022747D02*
X028200Y022747D01*
X028200Y022588D02*
X027906Y022588D01*
X027981Y022662D02*
X027981Y022662D01*
X027805Y022925D02*
X027805Y032300D01*
X026487Y032732D02*
X024773Y032732D01*
X024866Y032891D02*
X026394Y032891D01*
X026338Y033049D02*
X024922Y033049D01*
X024922Y033208D02*
X026338Y033208D01*
X026367Y033366D02*
X024893Y033366D01*
X025103Y033683D02*
X026227Y033683D01*
X026069Y033842D02*
X025262Y033842D01*
X025320Y034000D02*
X025990Y034000D01*
X025990Y034317D02*
X025320Y034317D01*
X025320Y034159D02*
X026500Y034159D01*
X023727Y032732D02*
X015365Y032732D01*
X015421Y032891D02*
X023634Y032891D01*
X018900Y024645D02*
X018900Y024494D01*
X018943Y024391D01*
X019021Y024313D01*
X019036Y024298D01*
X019007Y024310D01*
X018853Y024310D01*
X018712Y024251D01*
X018604Y024143D01*
X018545Y024002D01*
X018545Y023904D01*
X018525Y023856D01*
X017210Y023856D01*
X017167Y023959D01*
X016481Y024645D01*
X018900Y024645D01*
X018902Y024490D02*
X016636Y024490D01*
X016794Y024332D02*
X019002Y024332D01*
X018634Y024173D02*
X016953Y024173D01*
X017111Y024015D02*
X018550Y024015D01*
X018525Y023856D02*
X018525Y017541D01*
X018439Y017455D01*
X016749Y017455D01*
X016646Y017412D01*
X016568Y017334D01*
X015669Y016435D01*
X015603Y016435D01*
X015462Y016376D01*
X015354Y016268D01*
X015295Y016127D01*
X015295Y015973D01*
X015354Y015832D01*
X015462Y015724D01*
X015603Y015665D01*
X015694Y015665D01*
X015717Y015610D01*
X014683Y015610D01*
X014253Y016040D01*
X014257Y016040D01*
X014398Y016099D01*
X014506Y016207D01*
X014535Y016276D01*
X014587Y016224D01*
X014728Y016165D01*
X014882Y016165D01*
X015023Y016224D01*
X015131Y016332D01*
X015190Y016473D01*
X015190Y016539D01*
X017839Y019188D01*
X017917Y019266D01*
X017960Y019369D01*
X017960Y023161D01*
X018006Y023207D01*
X018065Y023348D01*
X018065Y023502D01*
X018006Y023643D01*
X017898Y023751D01*
X017757Y023810D01*
X017603Y023810D01*
X017462Y023751D01*
X017354Y023643D01*
X017295Y023502D01*
X017295Y023348D01*
X017354Y023207D01*
X017400Y023161D01*
X017400Y019541D01*
X014794Y016935D01*
X014728Y016935D01*
X014587Y016876D01*
X014479Y016768D01*
X014450Y016699D01*
X014398Y016751D01*
X014335Y016778D01*
X014335Y016976D01*
X014337Y016974D01*
X014478Y016915D01*
X014632Y016915D01*
X014773Y016974D01*
X014881Y017082D01*
X014940Y017223D01*
X014940Y017289D01*
X017089Y019438D01*
X017167Y019516D01*
X017210Y019619D01*
X017210Y023856D01*
X017210Y023698D02*
X017408Y023698D01*
X017311Y023539D02*
X017210Y023539D01*
X017210Y023381D02*
X017295Y023381D01*
X017347Y023222D02*
X017210Y023222D01*
X017210Y023064D02*
X017400Y023064D01*
X017400Y022905D02*
X017210Y022905D01*
X017210Y022747D02*
X017400Y022747D01*
X017400Y022588D02*
X017210Y022588D01*
X017210Y022430D02*
X017400Y022430D01*
X017400Y022271D02*
X017210Y022271D01*
X017210Y022113D02*
X017400Y022113D01*
X017400Y021954D02*
X017210Y021954D01*
X017210Y021796D02*
X017400Y021796D01*
X017400Y021637D02*
X017210Y021637D01*
X017210Y021479D02*
X017400Y021479D01*
X017400Y021320D02*
X017210Y021320D01*
X017210Y021162D02*
X017400Y021162D01*
X017400Y021003D02*
X017210Y021003D01*
X017210Y020845D02*
X017400Y020845D01*
X017400Y020686D02*
X017210Y020686D01*
X017210Y020528D02*
X017400Y020528D01*
X017400Y020369D02*
X017210Y020369D01*
X017210Y020211D02*
X017400Y020211D01*
X017400Y020052D02*
X017210Y020052D01*
X017210Y019894D02*
X017400Y019894D01*
X017400Y019735D02*
X017210Y019735D01*
X017192Y019577D02*
X017400Y019577D01*
X017277Y019418D02*
X017069Y019418D01*
X017119Y019260D02*
X016911Y019260D01*
X016960Y019101D02*
X016752Y019101D01*
X016802Y018943D02*
X016594Y018943D01*
X016643Y018784D02*
X016435Y018784D01*
X016485Y018626D02*
X016277Y018626D01*
X016326Y018467D02*
X016118Y018467D01*
X016168Y018309D02*
X015960Y018309D01*
X016009Y018150D02*
X015801Y018150D01*
X015851Y017992D02*
X015643Y017992D01*
X015692Y017833D02*
X015484Y017833D01*
X015534Y017675D02*
X015326Y017675D01*
X015375Y017516D02*
X015167Y017516D01*
X015217Y017358D02*
X015009Y017358D01*
X015058Y017199D02*
X014930Y017199D01*
X014900Y017041D02*
X014840Y017041D01*
X014601Y016882D02*
X014335Y016882D01*
X014426Y016724D02*
X014460Y016724D01*
X014523Y016248D02*
X014563Y016248D01*
X014376Y016090D02*
X015295Y016090D01*
X015313Y015931D02*
X014362Y015931D01*
X014521Y015773D02*
X015413Y015773D01*
X015715Y015614D02*
X014679Y015614D01*
X014555Y015300D02*
X017430Y015300D01*
X018430Y016300D01*
X018500Y017516D02*
X016167Y017516D01*
X016009Y017358D02*
X016592Y017358D01*
X016433Y017199D02*
X015850Y017199D01*
X015692Y017041D02*
X016275Y017041D01*
X016116Y016882D02*
X015533Y016882D01*
X015375Y016724D02*
X015958Y016724D01*
X015799Y016565D02*
X015216Y016565D01*
X015162Y016407D02*
X015535Y016407D01*
X015345Y016248D02*
X015047Y016248D01*
X014555Y015300D02*
X012919Y016936D01*
X011566Y016936D01*
X013448Y018818D01*
X014555Y018818D01*
X014397Y018467D02*
X013535Y018467D01*
X013577Y018508D02*
X012314Y017246D01*
X012981Y017246D01*
X013095Y017199D01*
X013182Y017111D01*
X013775Y016518D01*
X013775Y017606D01*
X013818Y017709D01*
X014542Y018433D01*
X014478Y018433D01*
X014337Y018492D01*
X014321Y018508D01*
X013577Y018508D01*
X013377Y018309D02*
X014418Y018309D01*
X014259Y018150D02*
X013218Y018150D01*
X013060Y017992D02*
X014101Y017992D01*
X013942Y017833D02*
X012901Y017833D01*
X012743Y017675D02*
X013804Y017675D01*
X013775Y017516D02*
X012584Y017516D01*
X012426Y017358D02*
X013775Y017358D01*
X013775Y017199D02*
X013094Y017199D01*
X013253Y017041D02*
X013775Y017041D01*
X013775Y016882D02*
X013411Y016882D01*
X013570Y016724D02*
X013775Y016724D01*
X013775Y016565D02*
X013728Y016565D01*
X013327Y016090D02*
X012935Y016090D01*
X012898Y016126D02*
X012757Y016185D01*
X012603Y016185D01*
X012462Y016126D01*
X012418Y016083D01*
X011875Y016626D01*
X012791Y016626D01*
X014292Y015124D01*
X014370Y015047D01*
X014370Y014303D01*
X013940Y013873D01*
X013940Y013877D01*
X013881Y014018D01*
X013773Y014126D01*
X013632Y014185D01*
X013478Y014185D01*
X013337Y014126D01*
X013291Y014080D01*
X011879Y014080D01*
X011881Y014082D01*
X011940Y014223D01*
X011940Y014270D01*
X012291Y014270D01*
X012337Y014224D01*
X012478Y014165D01*
X012632Y014165D01*
X012773Y014224D01*
X012881Y014332D01*
X012940Y014473D01*
X012940Y014627D01*
X012881Y014768D01*
X012879Y014770D01*
X013541Y014770D01*
X013587Y014724D01*
X013728Y014665D01*
X013882Y014665D01*
X014023Y014724D01*
X014131Y014832D01*
X014190Y014973D01*
X014190Y015127D01*
X014131Y015268D01*
X014023Y015376D01*
X013882Y015435D01*
X013791Y015435D01*
X013756Y015518D01*
X013648Y015626D01*
X013507Y015685D01*
X013416Y015685D01*
X013381Y015768D01*
X013273Y015876D01*
X013132Y015935D01*
X013041Y015935D01*
X013006Y016018D01*
X012898Y016126D01*
X013169Y016248D02*
X012253Y016248D01*
X012411Y016090D02*
X012425Y016090D01*
X012852Y016565D02*
X011936Y016565D01*
X012094Y016407D02*
X013010Y016407D01*
X013141Y015931D02*
X013486Y015931D01*
X013377Y015773D02*
X013644Y015773D01*
X013660Y015614D02*
X013803Y015614D01*
X013782Y015456D02*
X013961Y015456D01*
X014102Y015297D02*
X014120Y015297D01*
X014185Y015139D02*
X014278Y015139D01*
X014292Y015124D02*
X014292Y015124D01*
X014370Y014980D02*
X014190Y014980D01*
X014121Y014822D02*
X014370Y014822D01*
X014370Y014663D02*
X012925Y014663D01*
X012940Y014505D02*
X014370Y014505D01*
X014370Y014346D02*
X012887Y014346D01*
X012686Y014188D02*
X014254Y014188D01*
X014096Y014029D02*
X013870Y014029D01*
X014338Y013395D02*
X014545Y013395D01*
X014567Y013554D02*
X014497Y013554D01*
X014655Y013712D02*
X014673Y013712D01*
X014814Y013871D02*
X014969Y013871D01*
X014856Y013912D02*
X014856Y013912D01*
X014955Y014029D02*
X015154Y014029D01*
X014990Y014188D02*
X015398Y014188D01*
X015709Y014346D02*
X014990Y014346D01*
X014990Y014505D02*
X015834Y014505D01*
X015398Y014663D02*
X014990Y014663D01*
X014990Y014822D02*
X015306Y014822D01*
X015295Y014980D02*
X014990Y014980D01*
X014680Y015175D02*
X014555Y015300D01*
X014680Y015175D02*
X014680Y014175D01*
X013680Y013175D01*
X011122Y013175D01*
X010802Y012444D02*
X017745Y012444D01*
X017745Y012286D02*
X010971Y012286D01*
X011041Y012127D02*
X017745Y012127D01*
X017745Y011969D02*
X011200Y011969D01*
X011358Y011810D02*
X017745Y011810D01*
X017745Y011652D02*
X011517Y011652D01*
X011675Y011493D02*
X017745Y011493D01*
X017745Y011335D02*
X011834Y011335D01*
X011992Y011176D02*
X017745Y011176D01*
X017745Y011018D02*
X012151Y011018D01*
X012309Y010859D02*
X017745Y010859D01*
X018055Y010425D02*
X018430Y010425D01*
X019907Y011969D02*
X020330Y011969D01*
X020330Y012127D02*
X019749Y012127D01*
X020066Y011810D02*
X020330Y011810D01*
X020330Y011652D02*
X020224Y011652D01*
X020335Y011343D02*
X020383Y011227D01*
X020819Y010791D01*
X020854Y010707D01*
X020962Y010599D01*
X021103Y010540D01*
X021257Y010540D01*
X021398Y010599D01*
X021506Y010707D01*
X021565Y010848D01*
X021565Y011002D01*
X021506Y011143D01*
X021398Y011251D01*
X021314Y011286D01*
X021030Y011570D01*
X021030Y014639D01*
X021065Y014723D01*
X021065Y014877D01*
X021006Y015018D01*
X020898Y015126D01*
X020757Y015185D01*
X020603Y015185D01*
X020462Y015126D01*
X020354Y015018D01*
X020295Y014877D01*
X020295Y014723D01*
X020330Y014639D01*
X020330Y014319D01*
X020278Y014371D01*
X020137Y014430D01*
X019983Y014430D01*
X019842Y014371D01*
X019826Y014355D01*
X019631Y014355D01*
X021339Y016063D01*
X021417Y016141D01*
X021450Y016220D01*
X021450Y015955D01*
X021523Y015778D01*
X021658Y015643D01*
X021835Y015570D01*
X022075Y015570D01*
X022075Y015205D01*
X022148Y015028D01*
X022283Y014893D01*
X022460Y014820D01*
X023200Y014820D01*
X023200Y009449D01*
X023148Y009501D01*
X023007Y009560D01*
X022853Y009560D01*
X022712Y009501D01*
X022666Y009455D01*
X021296Y009455D01*
X020335Y010416D01*
X020335Y011343D01*
X020335Y011335D02*
X020339Y011335D01*
X020335Y011176D02*
X020434Y011176D01*
X020335Y011018D02*
X020593Y011018D01*
X020751Y010859D02*
X020335Y010859D01*
X020335Y010701D02*
X020860Y010701D01*
X021099Y010542D02*
X020335Y010542D01*
X020367Y010384D02*
X023200Y010384D01*
X023200Y010542D02*
X021261Y010542D01*
X021500Y010701D02*
X023200Y010701D01*
X023200Y010859D02*
X021565Y010859D01*
X021558Y011018D02*
X023200Y011018D01*
X023200Y011176D02*
X021473Y011176D01*
X021265Y011335D02*
X023200Y011335D01*
X023200Y011493D02*
X021107Y011493D01*
X021030Y011652D02*
X023200Y011652D01*
X023200Y011810D02*
X021030Y011810D01*
X021030Y011969D02*
X023200Y011969D01*
X023200Y012127D02*
X021030Y012127D01*
X021030Y012286D02*
X023200Y012286D01*
X023200Y012444D02*
X021030Y012444D01*
X021030Y012603D02*
X023200Y012603D01*
X023200Y012761D02*
X021030Y012761D01*
X021030Y012920D02*
X023200Y012920D01*
X023200Y013078D02*
X021030Y013078D01*
X021030Y013237D02*
X023200Y013237D01*
X023200Y013395D02*
X021030Y013395D01*
X021030Y013554D02*
X023200Y013554D01*
X023200Y013712D02*
X021030Y013712D01*
X021030Y013871D02*
X023200Y013871D01*
X023200Y014029D02*
X021030Y014029D01*
X021030Y014188D02*
X023200Y014188D01*
X023200Y014346D02*
X021030Y014346D01*
X021030Y014505D02*
X023200Y014505D01*
X023200Y014663D02*
X021040Y014663D01*
X021065Y014822D02*
X022456Y014822D01*
X022196Y014980D02*
X021022Y014980D01*
X020869Y015139D02*
X022102Y015139D01*
X022075Y015297D02*
X020573Y015297D01*
X020491Y015139D02*
X020414Y015139D01*
X020338Y014980D02*
X020256Y014980D01*
X020295Y014822D02*
X020097Y014822D01*
X019939Y014663D02*
X020320Y014663D01*
X020330Y014505D02*
X019780Y014505D01*
X020303Y014346D02*
X020330Y014346D01*
X019858Y013712D02*
X019780Y013712D01*
X020731Y015456D02*
X022075Y015456D01*
X021728Y015614D02*
X020890Y015614D01*
X021048Y015773D02*
X021529Y015773D01*
X021460Y015931D02*
X021207Y015931D01*
X021366Y016090D02*
X021450Y016090D01*
X021460Y017920D02*
X021460Y021934D01*
X022046Y022520D01*
X026111Y022520D01*
X026159Y022540D01*
X026257Y022540D01*
X026398Y022599D01*
X026506Y022707D01*
X026565Y022848D01*
X026565Y022895D01*
X027249Y022895D01*
X027337Y022895D01*
X026927Y022485D01*
X022368Y022485D01*
X022254Y022438D01*
X021667Y021851D01*
X021620Y021737D01*
X021620Y019534D01*
X021604Y019518D01*
X021545Y019377D01*
X021545Y019223D01*
X021604Y019082D01*
X021712Y018974D01*
X021853Y018915D01*
X022007Y018915D01*
X022075Y018943D01*
X022075Y018280D01*
X021835Y018280D01*
X021658Y018207D01*
X021523Y018072D01*
X021460Y017920D01*
X021460Y017992D02*
X021490Y017992D01*
X021460Y018150D02*
X021601Y018150D01*
X021460Y018309D02*
X022075Y018309D01*
X022075Y018467D02*
X021460Y018467D01*
X021460Y018626D02*
X022075Y018626D01*
X022075Y018784D02*
X021460Y018784D01*
X021460Y018943D02*
X021787Y018943D01*
X021596Y019101D02*
X021460Y019101D01*
X021460Y019260D02*
X021545Y019260D01*
X021562Y019418D02*
X021460Y019418D01*
X021460Y019577D02*
X021620Y019577D01*
X021620Y019735D02*
X021460Y019735D01*
X021460Y019894D02*
X021620Y019894D01*
X021620Y020052D02*
X021460Y020052D01*
X021460Y020211D02*
X021620Y020211D01*
X021620Y020369D02*
X021460Y020369D01*
X021460Y020528D02*
X021620Y020528D01*
X021620Y020686D02*
X021460Y020686D01*
X021460Y020845D02*
X021620Y020845D01*
X021620Y021003D02*
X021460Y021003D01*
X021460Y021162D02*
X021620Y021162D01*
X021620Y021320D02*
X021460Y021320D01*
X021460Y021479D02*
X021620Y021479D01*
X021620Y021637D02*
X021460Y021637D01*
X021460Y021796D02*
X021644Y021796D01*
X021771Y021954D02*
X021480Y021954D01*
X021639Y022113D02*
X021929Y022113D01*
X021797Y022271D02*
X022088Y022271D01*
X021956Y022430D02*
X022246Y022430D01*
X022430Y022175D02*
X027055Y022175D01*
X027805Y022925D01*
X027748Y022430D02*
X028200Y022430D01*
X027188Y022747D02*
X026523Y022747D01*
X026373Y022588D02*
X027030Y022588D01*
X022430Y022175D02*
X021930Y021675D01*
X021930Y019300D01*
X022073Y018943D02*
X022075Y018943D01*
X018525Y018943D02*
X017594Y018943D01*
X017752Y019101D02*
X018525Y019101D01*
X018525Y019260D02*
X017911Y019260D01*
X017960Y019418D02*
X018525Y019418D01*
X018525Y019577D02*
X017960Y019577D01*
X017960Y019735D02*
X018525Y019735D01*
X018525Y019894D02*
X017960Y019894D01*
X017960Y020052D02*
X018525Y020052D01*
X018525Y020211D02*
X017960Y020211D01*
X017960Y020369D02*
X018525Y020369D01*
X018525Y020528D02*
X017960Y020528D01*
X017960Y020686D02*
X018525Y020686D01*
X018525Y020845D02*
X017960Y020845D01*
X017960Y021003D02*
X018525Y021003D01*
X018525Y021162D02*
X017960Y021162D01*
X017960Y021320D02*
X018525Y021320D01*
X018525Y021479D02*
X017960Y021479D01*
X017960Y021637D02*
X018525Y021637D01*
X018525Y021796D02*
X017960Y021796D01*
X017960Y021954D02*
X018525Y021954D01*
X018525Y022113D02*
X017960Y022113D01*
X017960Y022271D02*
X018525Y022271D01*
X018525Y022430D02*
X017960Y022430D01*
X017960Y022588D02*
X018525Y022588D01*
X018525Y022747D02*
X017960Y022747D01*
X017960Y022905D02*
X018525Y022905D01*
X018525Y023064D02*
X017960Y023064D01*
X018013Y023222D02*
X018525Y023222D01*
X018525Y023381D02*
X018065Y023381D01*
X018049Y023539D02*
X018525Y023539D01*
X018525Y023698D02*
X017952Y023698D01*
X016400Y023539D02*
X015943Y023539D01*
X016035Y023381D02*
X016400Y023381D01*
X016400Y023222D02*
X016119Y023222D01*
X016161Y023064D02*
X016400Y023064D01*
X016400Y022905D02*
X016204Y022905D01*
X016235Y022747D02*
X016400Y022747D01*
X016400Y022588D02*
X016235Y022588D01*
X016235Y022430D02*
X016400Y022430D01*
X016400Y022271D02*
X016224Y022271D01*
X016181Y022113D02*
X016400Y022113D01*
X016400Y021954D02*
X016139Y021954D01*
X016079Y021796D02*
X016400Y021796D01*
X016400Y021637D02*
X015987Y021637D01*
X015896Y021479D02*
X016400Y021479D01*
X016400Y021320D02*
X015753Y021320D01*
X015594Y021162D02*
X016400Y021162D01*
X016400Y021003D02*
X015361Y021003D01*
X015039Y020845D02*
X016400Y020845D01*
X015210Y019101D02*
X014817Y019101D01*
X014920Y018943D02*
X015052Y018943D01*
X016326Y017675D02*
X018525Y017675D01*
X018525Y017833D02*
X016484Y017833D01*
X016643Y017992D02*
X018525Y017992D01*
X018525Y018150D02*
X016801Y018150D01*
X016960Y018309D02*
X018525Y018309D01*
X018525Y018467D02*
X017118Y018467D01*
X017277Y018626D02*
X018525Y018626D01*
X018525Y018784D02*
X017435Y018784D01*
X019647Y023163D02*
X019647Y024297D01*
X019773Y024349D01*
X019819Y024395D01*
X020879Y024395D01*
X019647Y023163D01*
X019647Y023222D02*
X019706Y023222D01*
X019647Y023381D02*
X019865Y023381D01*
X020023Y023539D02*
X019647Y023539D01*
X019647Y023698D02*
X020182Y023698D01*
X020340Y023856D02*
X019647Y023856D01*
X019647Y024015D02*
X020499Y024015D01*
X020657Y024173D02*
X019647Y024173D01*
X019732Y024332D02*
X020816Y024332D01*
X016261Y023698D02*
X015835Y023698D01*
X015677Y023856D02*
X016103Y023856D01*
X012424Y014188D02*
X011925Y014188D01*
X013863Y012920D02*
X015040Y012920D01*
X014762Y013078D02*
X014021Y013078D01*
X014180Y013237D02*
X014591Y013237D01*
X020526Y010225D02*
X023200Y010225D01*
X023200Y010067D02*
X020684Y010067D01*
X020843Y009908D02*
X023200Y009908D01*
X023200Y009750D02*
X021001Y009750D01*
X021160Y009591D02*
X023200Y009591D01*
X006281Y030355D02*
X005330Y030355D01*
X005279Y030513D02*
X006275Y030513D01*
X006275Y030672D02*
X005280Y030672D01*
X005280Y030989D02*
X006275Y030989D01*
X006275Y030830D02*
X004853Y030830D01*
X004757Y030830D02*
X000660Y030830D01*
X000660Y030672D02*
X004330Y030672D01*
X004331Y030513D02*
X000660Y030513D01*
X000660Y030355D02*
X004280Y030355D01*
X004280Y030196D02*
X000660Y030196D01*
X000660Y030038D02*
X004280Y030038D01*
X004280Y029879D02*
X000660Y029879D01*
X000660Y029721D02*
X004280Y029721D01*
X004525Y029562D02*
X000660Y029562D01*
X000660Y029404D02*
X001888Y029404D01*
X001729Y029245D02*
X000660Y029245D01*
X000660Y029087D02*
X001046Y029087D01*
X000898Y028928D02*
X000660Y028928D01*
X000660Y028770D02*
X000839Y028770D01*
X000834Y028611D02*
X000660Y028611D01*
X000660Y028453D02*
X000882Y028453D01*
X001004Y028294D02*
X001068Y028247D01*
X001138Y028212D01*
X001166Y028202D01*
X001018Y028141D01*
X000860Y027977D02*
X000660Y027977D01*
X000660Y027819D02*
X000794Y027819D01*
X000780Y027660D02*
X000660Y027660D01*
X000660Y027502D02*
X000807Y027502D01*
X000884Y027343D02*
X000660Y027343D01*
X000660Y027185D02*
X001077Y027185D01*
X000903Y027026D02*
X000660Y027026D01*
X000660Y026868D02*
X000814Y026868D01*
X000780Y026709D02*
X000660Y026709D01*
X000660Y026551D02*
X000786Y026551D01*
X000852Y026392D02*
X000660Y026392D01*
X000660Y026234D02*
X000994Y026234D01*
X000660Y026075D02*
X001525Y026075D01*
X001525Y025917D02*
X000660Y025917D01*
X000660Y025758D02*
X001525Y025758D01*
X001525Y025600D02*
X000660Y025600D01*
X000660Y025441D02*
X001525Y025441D01*
X001525Y025283D02*
X000660Y025283D01*
X000660Y025124D02*
X001525Y025124D01*
X001618Y024966D02*
X000660Y024966D01*
X000660Y024807D02*
X001754Y024807D01*
X001745Y024649D02*
X000660Y024649D01*
X000660Y024490D02*
X001775Y024490D01*
X001857Y024332D02*
X000660Y024332D01*
X000660Y024173D02*
X002044Y024173D01*
X001853Y024015D02*
X000660Y024015D01*
X000660Y023856D02*
X001774Y023856D01*
X001745Y023698D02*
X000660Y023698D01*
X000660Y023539D02*
X001755Y023539D01*
X001821Y023381D02*
X000660Y023381D01*
X000660Y023222D02*
X001966Y023222D01*
X001902Y023064D02*
X000660Y023064D01*
X000660Y022905D02*
X001794Y022905D01*
X001745Y022747D02*
X000660Y022747D01*
X000660Y022588D02*
X001745Y022588D01*
X001801Y022430D02*
X000660Y022430D01*
X002644Y023222D02*
X002900Y023222D01*
X002900Y023064D02*
X002708Y023064D01*
X002816Y022905D02*
X002937Y022905D01*
X002865Y022747D02*
X003087Y022747D01*
X003246Y022588D02*
X002865Y022588D01*
X002809Y022430D02*
X003416Y022430D01*
X002900Y023381D02*
X002789Y023381D01*
X002855Y023539D02*
X002900Y023539D01*
X002886Y023698D02*
X002865Y023698D01*
X003044Y024332D02*
X005445Y024332D01*
X005247Y024490D02*
X002886Y024490D01*
X002865Y024649D02*
X005177Y024649D01*
X005165Y024807D02*
X003482Y024807D01*
X003562Y024966D02*
X005204Y024966D01*
X005311Y025124D02*
X003565Y025124D01*
X002900Y025441D02*
X002758Y025441D01*
X002809Y025600D02*
X002900Y025600D01*
X002900Y025758D02*
X002808Y025758D01*
X002754Y025917D02*
X002900Y025917D01*
X002900Y026075D02*
X002622Y026075D01*
X002666Y026234D02*
X002900Y026234D01*
X002900Y026392D02*
X002808Y026392D01*
X002874Y026551D02*
X002900Y026551D01*
X002900Y026709D02*
X002880Y026709D01*
X002900Y026868D02*
X002846Y026868D01*
X002900Y027026D02*
X002757Y027026D01*
X002900Y027185D02*
X002583Y027185D01*
X002776Y027343D02*
X002900Y027343D01*
X002900Y027502D02*
X002853Y027502D01*
X002880Y027660D02*
X002900Y027660D01*
X002900Y027819D02*
X002866Y027819D01*
X002900Y027977D02*
X002800Y027977D01*
X002900Y028136D02*
X002647Y028136D01*
X002727Y028294D02*
X002900Y028294D01*
X003460Y027026D02*
X005313Y027026D01*
X005204Y026868D02*
X003460Y026868D01*
X003460Y026709D02*
X005165Y026709D01*
X005176Y026551D02*
X003460Y026551D01*
X003460Y026392D02*
X005245Y026392D01*
X005440Y026234D02*
X003460Y026234D01*
X002868Y025283D02*
X002632Y025283D01*
X002648Y025124D02*
X002795Y025124D01*
X002791Y024966D02*
X002798Y024966D01*
X002856Y024807D02*
X002878Y024807D01*
X001339Y028770D02*
X001321Y028770D01*
X001321Y028928D02*
X001339Y028928D01*
X001339Y029087D02*
X001321Y029087D01*
X000660Y030989D02*
X004330Y030989D01*
X004330Y031079D02*
X004330Y030847D01*
X004757Y030847D01*
X004757Y031235D01*
X004486Y031235D01*
X004440Y031223D01*
X004399Y031199D01*
X004366Y031165D01*
X004342Y031124D01*
X004330Y031079D01*
X004355Y031147D02*
X000660Y031147D01*
X000660Y031306D02*
X006415Y031306D01*
X006292Y031147D02*
X005255Y031147D01*
X004853Y031147D02*
X004757Y031147D01*
X004757Y030989D02*
X004853Y030989D01*
X006573Y031464D02*
X000660Y031464D01*
X000660Y033842D02*
X002671Y033842D01*
X002560Y034000D02*
X000660Y034000D01*
X000660Y034159D02*
X002494Y034159D01*
X002483Y034317D02*
X000660Y034317D01*
D21*
X001180Y032300D03*
X004805Y029175D03*
X006180Y029425D03*
X006180Y028675D03*
X006680Y028675D03*
X007930Y028175D03*
X007930Y027550D03*
X009305Y025925D03*
X009680Y026425D03*
X009930Y026050D03*
X010305Y026425D03*
X010555Y026050D03*
X009930Y027050D03*
X009680Y027800D03*
X010305Y028675D03*
X010930Y028425D03*
X010805Y030425D03*
X011167Y030800D03*
X011680Y030800D03*
X013180Y029925D03*
X013305Y030425D03*
X013305Y030925D03*
X014555Y030925D03*
X014555Y030425D03*
X014555Y029925D03*
X014555Y029425D03*
X014555Y028925D03*
X014555Y028425D03*
X014555Y027925D03*
X014555Y027425D03*
X014555Y026925D03*
X014555Y026425D03*
X014555Y025925D03*
X014555Y025425D03*
X014555Y024925D03*
X015805Y023800D03*
X017680Y023425D03*
X018930Y023925D03*
X019055Y023425D03*
X019805Y023675D03*
X019555Y024675D03*
X019555Y025175D03*
X019555Y025675D03*
X019555Y026175D03*
X019555Y026675D03*
X019555Y027175D03*
X019555Y027675D03*
X019555Y028175D03*
X019555Y028675D03*
X019555Y029175D03*
X019555Y029675D03*
X019555Y030175D03*
X019555Y030675D03*
X019555Y031175D03*
X019555Y031675D03*
X020805Y032300D03*
X021555Y031925D03*
X021555Y031425D03*
X021555Y030925D03*
X021555Y030425D03*
X021555Y029925D03*
X021555Y029425D03*
X021555Y028925D03*
X021555Y028425D03*
X021555Y027925D03*
X021555Y027425D03*
X021555Y026925D03*
X021555Y026425D03*
X021555Y025925D03*
X021555Y025425D03*
X021555Y024925D03*
X021555Y020050D03*
X021930Y019300D03*
X021930Y018425D03*
X020680Y014800D03*
X020060Y014045D03*
X019680Y014425D03*
X020055Y013425D03*
X018805Y013175D03*
X018930Y012550D03*
X018805Y012175D03*
X018555Y011800D03*
X018430Y010425D03*
X018055Y009425D03*
X019180Y008550D03*
X019680Y009175D03*
X020430Y008300D03*
X021430Y008425D03*
X022680Y008800D03*
X022930Y009175D03*
X021180Y010925D03*
X022805Y014425D03*
X018430Y016300D03*
X017680Y016675D03*
X018430Y018050D03*
X016055Y015800D03*
X015680Y016050D03*
X015055Y015925D03*
X014805Y016550D03*
X014180Y016425D03*
X013680Y016800D03*
X013180Y016050D03*
X013055Y015550D03*
X013430Y015300D03*
X013805Y015050D03*
X013930Y014300D03*
X013555Y013800D03*
X012555Y014550D03*
X012180Y014800D03*
X012055Y014175D03*
X011555Y014300D03*
X010555Y012925D03*
X010633Y012097D03*
X009555Y011050D03*
X009997Y014300D03*
X009680Y015050D03*
X011566Y016936D03*
X012680Y015800D03*
X014555Y017300D03*
X014555Y018818D03*
X015180Y020050D03*
X012805Y021050D03*
X012180Y021175D03*
X011930Y020675D03*
X011680Y021175D03*
X011180Y020675D03*
X011430Y020175D03*
X012430Y020175D03*
X012680Y022425D03*
X013055Y025300D03*
X013930Y026550D03*
X013680Y027175D03*
X013680Y028050D03*
X013680Y028425D03*
X013680Y028800D03*
X013680Y029175D03*
X014555Y031425D03*
X014555Y031925D03*
X012930Y034140D03*
X011430Y032800D03*
X009930Y031300D03*
X009930Y030550D03*
X008055Y029800D03*
X007055Y030925D03*
X008055Y032175D03*
X005680Y030800D03*
X004055Y025675D03*
X003180Y025050D03*
X001055Y022675D03*
X008055Y021925D03*
X008555Y025550D03*
X015680Y014925D03*
X016180Y014675D03*
X016555Y014425D03*
X016055Y014175D03*
X015680Y013925D03*
X015305Y013675D03*
X014930Y013425D03*
X015180Y014425D03*
X014430Y011550D03*
X014430Y009675D03*
X016555Y010925D03*
X022555Y006050D03*
X026805Y022675D03*
X026180Y022925D03*
X025930Y023300D03*
X025680Y023050D03*
X025430Y023550D03*
X026555Y024425D03*
X026555Y024925D03*
X026555Y025425D03*
X026555Y025925D03*
X026555Y026425D03*
X026555Y026925D03*
X026555Y027425D03*
X026555Y027925D03*
X026555Y028425D03*
X026555Y028925D03*
X026555Y029425D03*
X026555Y029925D03*
X026555Y030425D03*
X026555Y030925D03*
X026555Y031425D03*
X026180Y030675D03*
X027805Y032300D03*
X025680Y028175D03*
X025430Y027175D03*
X025930Y027175D03*
X028055Y022425D03*
X017805Y033175D03*
D22*
X008430Y008050D02*
X008430Y007550D01*
X008430Y006925D02*
X008430Y006425D01*
X008930Y005925D01*
X008930Y003800D01*
X009930Y003800D02*
X009930Y005925D01*
X009430Y006425D01*
X009430Y007175D01*
X009930Y007675D01*
X010430Y007175D02*
X010930Y007675D01*
X010430Y007175D02*
X010430Y006425D01*
X010930Y005925D01*
X010930Y003800D01*
X011930Y003800D02*
X011930Y005925D01*
X011430Y006425D01*
X011430Y007175D01*
X011930Y007675D01*
X012430Y007175D02*
X012930Y007675D01*
X012430Y007175D02*
X012430Y006425D01*
X012930Y005925D01*
X012930Y003800D01*
X013930Y003800D02*
X013930Y005925D01*
X013430Y006425D01*
X013430Y007175D01*
X013930Y007675D01*
X014430Y007175D02*
X014930Y007675D01*
X014430Y007175D02*
X014430Y006425D01*
X014930Y005925D01*
X014930Y003800D01*
X015930Y003800D02*
X015930Y005925D01*
X015430Y006425D01*
X015430Y007175D01*
X015930Y007675D01*
X016430Y007175D02*
X016930Y007675D01*
X016430Y007175D02*
X016430Y006425D01*
X016930Y005925D01*
X016930Y003800D01*
X017930Y003800D02*
X017930Y005925D01*
X017430Y006425D01*
X017430Y007175D01*
X017930Y007675D01*
X018430Y007175D02*
X018930Y007675D01*
X018430Y007175D02*
X018430Y006425D01*
X018930Y005925D01*
X018930Y003800D01*
X019930Y003800D02*
X019930Y005925D01*
X019430Y006425D01*
X019430Y007175D01*
X019930Y007675D01*
X020930Y007675D02*
X021430Y007175D01*
X021430Y006425D01*
X021930Y005925D01*
X021930Y003800D01*
X007930Y007675D02*
X007430Y007175D01*
X007430Y006425D01*
X006930Y005925D01*
X006930Y003800D01*
X005930Y003800D02*
X005930Y007050D01*
X006555Y007675D01*
X006930Y007675D01*
D23*
X008430Y007550D02*
X008430Y006925D01*
X008430Y008050D02*
X008430Y008300D01*
X011555Y013800D02*
X010680Y014675D01*
X008930Y014675D01*
X008055Y015550D01*
X008055Y017500D01*
X008580Y018025D01*
X009055Y016800D02*
X009055Y025300D01*
X008805Y025550D01*
X008555Y025550D01*
X009305Y025925D02*
X009305Y016925D01*
X011680Y014550D01*
X012555Y014550D01*
X012180Y014800D02*
X011805Y014800D01*
X009680Y016925D01*
X009680Y026425D01*
X009930Y026050D02*
X009930Y017050D01*
X011930Y015050D01*
X013805Y015050D01*
X013430Y015300D02*
X012055Y015300D01*
X010305Y017050D01*
X010305Y026425D01*
X010555Y026050D02*
X010555Y017175D01*
X012180Y015550D01*
X013055Y015550D01*
X012680Y015800D02*
X012305Y015800D01*
X010930Y017175D01*
X010930Y028425D01*
X011180Y028675D02*
X011180Y020675D01*
X011430Y020175D02*
X011430Y028550D01*
X013305Y030425D01*
X013305Y030800D02*
X011180Y028675D01*
X011680Y028425D02*
X011680Y021175D01*
X011930Y020675D02*
X011930Y028300D01*
X012805Y029175D01*
X013680Y029175D01*
X013680Y028800D02*
X012805Y028800D01*
X012180Y028175D01*
X012180Y021175D01*
X012430Y020175D02*
X012430Y028050D01*
X012805Y028425D01*
X013680Y028425D01*
X013680Y028050D02*
X012805Y028050D01*
X012680Y027925D01*
X012680Y022425D01*
X014430Y024175D02*
X013930Y024675D01*
X013930Y025550D01*
X014305Y025925D01*
X014555Y025925D01*
X021555Y025925D01*
X021555Y025425D02*
X014555Y025425D01*
X014430Y025425D01*
X014180Y025175D01*
X014180Y024800D01*
X014430Y024550D01*
X016180Y024550D01*
X016930Y023800D01*
X016930Y019675D01*
X014555Y017300D01*
X014055Y017550D02*
X014055Y016550D01*
X014180Y016425D01*
X014805Y016550D02*
X017680Y019425D01*
X017680Y023425D01*
X016680Y023675D02*
X016180Y024175D01*
X014430Y024175D01*
X014555Y024925D02*
X019180Y024925D01*
X019180Y024550D01*
X019368Y024363D01*
X019368Y017113D01*
X018930Y016675D01*
X017680Y016675D01*
X017180Y016925D02*
X018805Y016925D01*
X019055Y017175D01*
X019055Y023425D01*
X018805Y023800D02*
X018930Y023925D01*
X018805Y023800D02*
X018805Y017425D01*
X018555Y017175D01*
X016805Y017175D01*
X015680Y016050D01*
X016055Y015800D02*
X017180Y016925D01*
X017555Y014925D02*
X015680Y014925D01*
X016180Y014675D02*
X016805Y014675D01*
X017055Y014425D01*
X017430Y014425D01*
X019930Y016925D01*
X019930Y022675D01*
X021305Y024050D01*
X026055Y024050D01*
X026680Y023425D01*
X027055Y023425D01*
X027305Y023675D01*
X027305Y024675D01*
X027055Y024925D01*
X026555Y024925D01*
X026305Y025175D01*
X019555Y025175D01*
X019180Y024925D02*
X021555Y024925D01*
X021555Y024675D02*
X021805Y024675D01*
X026305Y024675D01*
X026555Y024425D01*
X025930Y023800D02*
X026555Y023175D01*
X027305Y023175D01*
X027555Y023425D01*
X027555Y025175D01*
X027305Y025425D01*
X026555Y025425D01*
X026305Y025675D01*
X019555Y025675D01*
X019555Y026175D02*
X026305Y026175D01*
X026555Y025925D01*
X026555Y026425D02*
X026305Y026675D01*
X019555Y026675D01*
X019555Y027175D02*
X025430Y027175D01*
X025930Y027175D02*
X026305Y027175D01*
X026555Y026925D01*
X026555Y027425D02*
X026305Y027675D01*
X019555Y027675D01*
X019555Y028175D02*
X025680Y028175D01*
X026305Y028175D01*
X026555Y027925D01*
X026555Y028425D02*
X026305Y028675D01*
X019555Y028675D01*
X019555Y029175D02*
X026305Y029175D01*
X026555Y028925D01*
X026555Y029425D02*
X026305Y029675D01*
X019555Y029675D01*
X019555Y030175D02*
X026305Y030175D01*
X026555Y029925D01*
X026555Y030425D02*
X026305Y030675D01*
X026180Y030675D01*
X019555Y030675D01*
X019555Y031175D02*
X026305Y031175D01*
X026555Y030925D01*
X026555Y031425D02*
X026305Y031675D01*
X019555Y031675D01*
X020805Y032300D02*
X027805Y032300D01*
X024740Y034140D02*
X012930Y034140D01*
X008520Y034140D01*
X008055Y033675D01*
X008055Y032175D01*
X006805Y031300D02*
X009930Y031300D01*
X010305Y031300D01*
X010805Y030800D01*
X011167Y030800D01*
X011667Y031300D01*
X013555Y031300D01*
X013680Y031175D01*
X013680Y029675D01*
X014055Y029300D01*
X014055Y027425D01*
X013805Y027175D01*
X013680Y027175D01*
X014555Y026925D02*
X021555Y026925D01*
X021555Y026425D02*
X014555Y026425D01*
X014555Y027425D02*
X021555Y027425D01*
X021555Y027925D02*
X014555Y027925D01*
X014555Y028425D02*
X021555Y028425D01*
X021555Y028925D02*
X014555Y028925D01*
X014555Y029425D02*
X021555Y029425D01*
X021555Y029925D02*
X014555Y029925D01*
X014555Y030425D02*
X021555Y030425D01*
X021555Y030925D02*
X014555Y030925D01*
X014555Y031425D02*
X021555Y031425D01*
X021555Y031925D02*
X014555Y031925D01*
X013305Y030925D02*
X013305Y030800D01*
X013180Y029925D02*
X011680Y028425D01*
X009930Y030550D02*
X007430Y030550D01*
X007055Y030925D01*
X006805Y031300D02*
X006555Y031050D01*
X006555Y030425D01*
X008180Y028800D01*
X009430Y028800D01*
X009680Y028550D01*
X009680Y027800D01*
X007930Y028175D02*
X004930Y028175D01*
X004430Y028675D01*
X003180Y028675D01*
X003180Y025050D01*
X002805Y025175D02*
X002305Y025675D01*
X001805Y025175D02*
X002305Y024675D01*
X003180Y023800D01*
X003180Y023050D01*
X003555Y022675D01*
X007055Y022675D01*
X007180Y022550D01*
X007180Y021175D01*
X007330Y021025D01*
X008580Y021025D01*
X009055Y016800D02*
X011555Y014300D01*
X011555Y013800D02*
X013555Y013800D01*
X014930Y013425D02*
X015555Y012800D01*
X017680Y012800D01*
X021180Y016300D01*
X021180Y022050D01*
X021930Y022800D01*
X026055Y022800D01*
X026180Y022925D01*
X025930Y023300D02*
X021680Y023300D01*
X020680Y022300D01*
X020680Y016550D01*
X017555Y013425D01*
X016180Y013425D01*
X015680Y013925D01*
X015305Y013675D02*
X015930Y013050D01*
X017555Y013050D01*
X020930Y016425D01*
X020930Y022175D01*
X021805Y023050D01*
X025680Y023050D01*
X025430Y023550D02*
X021555Y023550D01*
X020430Y022425D01*
X020430Y016675D01*
X017430Y013675D01*
X016555Y013675D01*
X016055Y014175D01*
X016555Y014425D02*
X017055Y013925D01*
X017305Y013925D01*
X020180Y016800D01*
X020180Y022550D01*
X021430Y023800D01*
X025930Y023800D01*
X021555Y024675D02*
X019680Y022800D01*
X019680Y017050D01*
X017555Y014925D01*
X018930Y012550D02*
X020055Y011425D01*
X020055Y010300D01*
X021180Y009175D01*
X022930Y009175D01*
X022680Y008800D02*
X021180Y008800D01*
X019805Y010175D01*
X019805Y011175D01*
X018805Y012175D01*
X018805Y011800D02*
X018555Y011800D01*
X018805Y011800D02*
X019555Y011050D01*
X019555Y010050D01*
X021180Y008425D01*
X021430Y008425D01*
X021930Y008425D01*
X022430Y008425D01*
X022930Y007925D01*
X022930Y003800D01*
X022555Y006050D02*
X021930Y006675D01*
X019930Y007675D02*
X019930Y007800D01*
X019180Y008550D01*
X014055Y017550D02*
X016680Y020175D01*
X016680Y023675D01*
X019555Y024675D02*
X021555Y024675D01*
X010180Y030925D02*
X009305Y030925D01*
X006180Y029425D02*
X006180Y028675D01*
X004805Y029175D02*
X004805Y030051D01*
X004805Y029175D02*
X002055Y029175D01*
X001805Y028925D01*
X001805Y025175D01*
X002330Y028675D02*
X003180Y028675D01*
D24*
X014430Y033175D03*
D25*
X015555Y033175D01*
X014430Y033175D02*
X013305Y033175D01*
D26*
X020680Y014800D02*
X020680Y011425D01*
X021180Y010925D01*
M02*
