G75*
%MOIN*%
%OFA0B0*%
%FSLAX24Y24*%
%IPPOS*%
%LPD*%
%AMOC8*
5,1,8,0,0,1.08239X$1,22.5*
%
%ADD10R,0.0600X0.2550*%
%ADD11R,0.0591X0.0138*%
%ADD12R,0.0138X0.0591*%
%ADD13R,0.0866X0.0236*%
%ADD14R,0.0551X0.0787*%
%ADD15R,0.0504X0.0551*%
%ADD16R,0.0768X0.0551*%
%ADD17R,0.0276X0.0551*%
%ADD18R,0.0591X0.0197*%
%ADD19R,0.0197X0.0591*%
%ADD20R,0.0790X0.0590*%
%ADD21R,0.0790X0.1500*%
%ADD22C,0.0640*%
%ADD23C,0.0660*%
%ADD24R,0.0250X0.0500*%
%ADD25R,0.0394X0.0433*%
%ADD26OC8,0.0700*%
%ADD27C,0.0885*%
%ADD28C,0.0520*%
%ADD29R,0.0594X0.0594*%
%ADD30C,0.0594*%
%ADD31R,0.0512X0.0591*%
%ADD32R,0.1000X0.1000*%
%ADD33R,0.0433X0.0394*%
%ADD34OC8,0.0660*%
%ADD35C,0.0160*%
%ADD36C,0.0310*%
%ADD37C,0.0100*%
%ADD38C,0.1502*%
%ADD39C,0.0320*%
%ADD40C,0.0120*%
%ADD41C,0.0240*%
D10*
X005930Y003800D03*
X006930Y003800D03*
X008930Y003800D03*
X009930Y003800D03*
X010930Y003800D03*
X011930Y003800D03*
X012930Y003800D03*
X013930Y003800D03*
X014930Y003800D03*
X015930Y003800D03*
X016930Y003800D03*
X017930Y003800D03*
X018930Y003800D03*
X019930Y003800D03*
X021930Y003800D03*
X022930Y003800D03*
D11*
G36*
X013657Y010224D02*
X014073Y010640D01*
X014171Y010542D01*
X013755Y010126D01*
X013657Y010224D01*
G37*
G36*
X013518Y010363D02*
X013934Y010779D01*
X014032Y010681D01*
X013616Y010265D01*
X013518Y010363D01*
G37*
G36*
X013379Y010502D02*
X013795Y010918D01*
X013893Y010820D01*
X013477Y010404D01*
X013379Y010502D01*
G37*
G36*
X013240Y010641D02*
X013656Y011057D01*
X013754Y010959D01*
X013338Y010543D01*
X013240Y010641D01*
G37*
G36*
X013101Y010781D02*
X013517Y011197D01*
X013615Y011099D01*
X013199Y010683D01*
X013101Y010781D01*
G37*
G36*
X012962Y010920D02*
X013378Y011336D01*
X013476Y011238D01*
X013060Y010822D01*
X012962Y010920D01*
G37*
G36*
X012822Y011059D02*
X013238Y011475D01*
X013336Y011377D01*
X012920Y010961D01*
X012822Y011059D01*
G37*
G36*
X012683Y011198D02*
X013099Y011614D01*
X013197Y011516D01*
X012781Y011100D01*
X012683Y011198D01*
G37*
G36*
X012544Y011337D02*
X012960Y011753D01*
X013058Y011655D01*
X012642Y011239D01*
X012544Y011337D01*
G37*
G36*
X012405Y011477D02*
X012821Y011893D01*
X012919Y011795D01*
X012503Y011379D01*
X012405Y011477D01*
G37*
G36*
X012266Y011616D02*
X012682Y012032D01*
X012780Y011934D01*
X012364Y011518D01*
X012266Y011616D01*
G37*
G36*
X012126Y011755D02*
X012542Y012171D01*
X012640Y012073D01*
X012224Y011657D01*
X012126Y011755D01*
G37*
G36*
X011987Y011894D02*
X012403Y012310D01*
X012501Y012212D01*
X012085Y011796D01*
X011987Y011894D01*
G37*
G36*
X011848Y012033D02*
X012264Y012449D01*
X012362Y012351D01*
X011946Y011935D01*
X011848Y012033D01*
G37*
G36*
X011709Y012173D02*
X012125Y012589D01*
X012223Y012491D01*
X011807Y012075D01*
X011709Y012173D01*
G37*
G36*
X011570Y012312D02*
X011986Y012728D01*
X012084Y012630D01*
X011668Y012214D01*
X011570Y012312D01*
G37*
G36*
X011430Y012451D02*
X011846Y012867D01*
X011944Y012769D01*
X011528Y012353D01*
X011430Y012451D01*
G37*
G36*
X011291Y012590D02*
X011707Y013006D01*
X011805Y012908D01*
X011389Y012492D01*
X011291Y012590D01*
G37*
G36*
X011152Y012729D02*
X011568Y013145D01*
X011666Y013047D01*
X011250Y012631D01*
X011152Y012729D01*
G37*
G36*
X011013Y012869D02*
X011429Y013285D01*
X011527Y013187D01*
X011111Y012771D01*
X011013Y012869D01*
G37*
G36*
X010874Y013008D02*
X011290Y013424D01*
X011388Y013326D01*
X010972Y012910D01*
X010874Y013008D01*
G37*
G36*
X010734Y013147D02*
X011150Y013563D01*
X011248Y013465D01*
X010832Y013049D01*
X010734Y013147D01*
G37*
G36*
X010595Y013286D02*
X011011Y013702D01*
X011109Y013604D01*
X010693Y013188D01*
X010595Y013286D01*
G37*
G36*
X010456Y013425D02*
X010872Y013841D01*
X010970Y013743D01*
X010554Y013327D01*
X010456Y013425D01*
G37*
G36*
X010317Y013565D02*
X010733Y013981D01*
X010831Y013883D01*
X010415Y013467D01*
X010317Y013565D01*
G37*
G36*
X014771Y018019D02*
X015187Y018435D01*
X015285Y018337D01*
X014869Y017921D01*
X014771Y018019D01*
G37*
G36*
X014910Y017880D02*
X015326Y018296D01*
X015424Y018198D01*
X015008Y017782D01*
X014910Y017880D01*
G37*
G36*
X015049Y017740D02*
X015465Y018156D01*
X015563Y018058D01*
X015147Y017642D01*
X015049Y017740D01*
G37*
G36*
X015189Y017601D02*
X015605Y018017D01*
X015703Y017919D01*
X015287Y017503D01*
X015189Y017601D01*
G37*
G36*
X015328Y017462D02*
X015744Y017878D01*
X015842Y017780D01*
X015426Y017364D01*
X015328Y017462D01*
G37*
G36*
X015467Y017323D02*
X015883Y017739D01*
X015981Y017641D01*
X015565Y017225D01*
X015467Y017323D01*
G37*
G36*
X015606Y017184D02*
X016022Y017600D01*
X016120Y017502D01*
X015704Y017086D01*
X015606Y017184D01*
G37*
G36*
X015745Y017044D02*
X016161Y017460D01*
X016259Y017362D01*
X015843Y016946D01*
X015745Y017044D01*
G37*
G36*
X015885Y016905D02*
X016301Y017321D01*
X016399Y017223D01*
X015983Y016807D01*
X015885Y016905D01*
G37*
G36*
X016024Y016766D02*
X016440Y017182D01*
X016538Y017084D01*
X016122Y016668D01*
X016024Y016766D01*
G37*
G36*
X016163Y016627D02*
X016579Y017043D01*
X016677Y016945D01*
X016261Y016529D01*
X016163Y016627D01*
G37*
G36*
X016302Y016488D02*
X016718Y016904D01*
X016816Y016806D01*
X016400Y016390D01*
X016302Y016488D01*
G37*
G36*
X016441Y016348D02*
X016857Y016764D01*
X016955Y016666D01*
X016539Y016250D01*
X016441Y016348D01*
G37*
G36*
X016581Y016209D02*
X016997Y016625D01*
X017095Y016527D01*
X016679Y016111D01*
X016581Y016209D01*
G37*
G36*
X016720Y016070D02*
X017136Y016486D01*
X017234Y016388D01*
X016818Y015972D01*
X016720Y016070D01*
G37*
G36*
X016859Y015931D02*
X017275Y016347D01*
X017373Y016249D01*
X016957Y015833D01*
X016859Y015931D01*
G37*
G36*
X016998Y015792D02*
X017414Y016208D01*
X017512Y016110D01*
X017096Y015694D01*
X016998Y015792D01*
G37*
G36*
X017137Y015652D02*
X017553Y016068D01*
X017651Y015970D01*
X017235Y015554D01*
X017137Y015652D01*
G37*
G36*
X017277Y015513D02*
X017693Y015929D01*
X017791Y015831D01*
X017375Y015415D01*
X017277Y015513D01*
G37*
G36*
X017416Y015374D02*
X017832Y015790D01*
X017930Y015692D01*
X017514Y015276D01*
X017416Y015374D01*
G37*
G36*
X017555Y015235D02*
X017971Y015651D01*
X018069Y015553D01*
X017653Y015137D01*
X017555Y015235D01*
G37*
G36*
X017694Y015096D02*
X018110Y015512D01*
X018208Y015414D01*
X017792Y014998D01*
X017694Y015096D01*
G37*
G36*
X017833Y014957D02*
X018249Y015373D01*
X018347Y015275D01*
X017931Y014859D01*
X017833Y014957D01*
G37*
G36*
X017973Y014817D02*
X018389Y015233D01*
X018487Y015135D01*
X018071Y014719D01*
X017973Y014817D01*
G37*
G36*
X018112Y014678D02*
X018528Y015094D01*
X018626Y014996D01*
X018210Y014580D01*
X018112Y014678D01*
G37*
D12*
G36*
X018112Y013883D02*
X018210Y013981D01*
X018626Y013565D01*
X018528Y013467D01*
X018112Y013883D01*
G37*
G36*
X017973Y013743D02*
X018071Y013841D01*
X018487Y013425D01*
X018389Y013327D01*
X017973Y013743D01*
G37*
G36*
X017833Y013604D02*
X017931Y013702D01*
X018347Y013286D01*
X018249Y013188D01*
X017833Y013604D01*
G37*
G36*
X017694Y013465D02*
X017792Y013563D01*
X018208Y013147D01*
X018110Y013049D01*
X017694Y013465D01*
G37*
G36*
X017555Y013326D02*
X017653Y013424D01*
X018069Y013008D01*
X017971Y012910D01*
X017555Y013326D01*
G37*
G36*
X017416Y013187D02*
X017514Y013285D01*
X017930Y012869D01*
X017832Y012771D01*
X017416Y013187D01*
G37*
G36*
X017277Y013047D02*
X017375Y013145D01*
X017791Y012729D01*
X017693Y012631D01*
X017277Y013047D01*
G37*
G36*
X017137Y012908D02*
X017235Y013006D01*
X017651Y012590D01*
X017553Y012492D01*
X017137Y012908D01*
G37*
G36*
X016998Y012769D02*
X017096Y012867D01*
X017512Y012451D01*
X017414Y012353D01*
X016998Y012769D01*
G37*
G36*
X016859Y012630D02*
X016957Y012728D01*
X017373Y012312D01*
X017275Y012214D01*
X016859Y012630D01*
G37*
G36*
X016720Y012491D02*
X016818Y012589D01*
X017234Y012173D01*
X017136Y012075D01*
X016720Y012491D01*
G37*
G36*
X016581Y012351D02*
X016679Y012449D01*
X017095Y012033D01*
X016997Y011935D01*
X016581Y012351D01*
G37*
G36*
X016441Y012212D02*
X016539Y012310D01*
X016955Y011894D01*
X016857Y011796D01*
X016441Y012212D01*
G37*
G36*
X016302Y012073D02*
X016400Y012171D01*
X016816Y011755D01*
X016718Y011657D01*
X016302Y012073D01*
G37*
G36*
X016163Y011934D02*
X016261Y012032D01*
X016677Y011616D01*
X016579Y011518D01*
X016163Y011934D01*
G37*
G36*
X016024Y011795D02*
X016122Y011893D01*
X016538Y011477D01*
X016440Y011379D01*
X016024Y011795D01*
G37*
G36*
X015885Y011655D02*
X015983Y011753D01*
X016399Y011337D01*
X016301Y011239D01*
X015885Y011655D01*
G37*
G36*
X015745Y011516D02*
X015843Y011614D01*
X016259Y011198D01*
X016161Y011100D01*
X015745Y011516D01*
G37*
G36*
X015606Y011377D02*
X015704Y011475D01*
X016120Y011059D01*
X016022Y010961D01*
X015606Y011377D01*
G37*
G36*
X015467Y011238D02*
X015565Y011336D01*
X015981Y010920D01*
X015883Y010822D01*
X015467Y011238D01*
G37*
G36*
X015328Y011099D02*
X015426Y011197D01*
X015842Y010781D01*
X015744Y010683D01*
X015328Y011099D01*
G37*
G36*
X015189Y010959D02*
X015287Y011057D01*
X015703Y010641D01*
X015605Y010543D01*
X015189Y010959D01*
G37*
G36*
X015049Y010820D02*
X015147Y010918D01*
X015563Y010502D01*
X015465Y010404D01*
X015049Y010820D01*
G37*
G36*
X014910Y010681D02*
X015008Y010779D01*
X015424Y010363D01*
X015326Y010265D01*
X014910Y010681D01*
G37*
G36*
X014771Y010542D02*
X014869Y010640D01*
X015285Y010224D01*
X015187Y010126D01*
X014771Y010542D01*
G37*
G36*
X010734Y015414D02*
X010832Y015512D01*
X011248Y015096D01*
X011150Y014998D01*
X010734Y015414D01*
G37*
G36*
X010595Y015275D02*
X010693Y015373D01*
X011109Y014957D01*
X011011Y014859D01*
X010595Y015275D01*
G37*
G36*
X010456Y015135D02*
X010554Y015233D01*
X010970Y014817D01*
X010872Y014719D01*
X010456Y015135D01*
G37*
G36*
X010317Y014996D02*
X010415Y015094D01*
X010831Y014678D01*
X010733Y014580D01*
X010317Y014996D01*
G37*
G36*
X010874Y015553D02*
X010972Y015651D01*
X011388Y015235D01*
X011290Y015137D01*
X010874Y015553D01*
G37*
G36*
X011013Y015692D02*
X011111Y015790D01*
X011527Y015374D01*
X011429Y015276D01*
X011013Y015692D01*
G37*
G36*
X011152Y015831D02*
X011250Y015929D01*
X011666Y015513D01*
X011568Y015415D01*
X011152Y015831D01*
G37*
G36*
X011291Y015970D02*
X011389Y016068D01*
X011805Y015652D01*
X011707Y015554D01*
X011291Y015970D01*
G37*
G36*
X011430Y016110D02*
X011528Y016208D01*
X011944Y015792D01*
X011846Y015694D01*
X011430Y016110D01*
G37*
G36*
X011570Y016249D02*
X011668Y016347D01*
X012084Y015931D01*
X011986Y015833D01*
X011570Y016249D01*
G37*
G36*
X011709Y016388D02*
X011807Y016486D01*
X012223Y016070D01*
X012125Y015972D01*
X011709Y016388D01*
G37*
G36*
X011848Y016527D02*
X011946Y016625D01*
X012362Y016209D01*
X012264Y016111D01*
X011848Y016527D01*
G37*
G36*
X011987Y016666D02*
X012085Y016764D01*
X012501Y016348D01*
X012403Y016250D01*
X011987Y016666D01*
G37*
G36*
X012126Y016806D02*
X012224Y016904D01*
X012640Y016488D01*
X012542Y016390D01*
X012126Y016806D01*
G37*
G36*
X012266Y016945D02*
X012364Y017043D01*
X012780Y016627D01*
X012682Y016529D01*
X012266Y016945D01*
G37*
G36*
X012405Y017084D02*
X012503Y017182D01*
X012919Y016766D01*
X012821Y016668D01*
X012405Y017084D01*
G37*
G36*
X012544Y017223D02*
X012642Y017321D01*
X013058Y016905D01*
X012960Y016807D01*
X012544Y017223D01*
G37*
G36*
X012683Y017362D02*
X012781Y017460D01*
X013197Y017044D01*
X013099Y016946D01*
X012683Y017362D01*
G37*
G36*
X012822Y017502D02*
X012920Y017600D01*
X013336Y017184D01*
X013238Y017086D01*
X012822Y017502D01*
G37*
G36*
X012962Y017641D02*
X013060Y017739D01*
X013476Y017323D01*
X013378Y017225D01*
X012962Y017641D01*
G37*
G36*
X013101Y017780D02*
X013199Y017878D01*
X013615Y017462D01*
X013517Y017364D01*
X013101Y017780D01*
G37*
G36*
X013240Y017919D02*
X013338Y018017D01*
X013754Y017601D01*
X013656Y017503D01*
X013240Y017919D01*
G37*
G36*
X013379Y018058D02*
X013477Y018156D01*
X013893Y017740D01*
X013795Y017642D01*
X013379Y018058D01*
G37*
G36*
X013518Y018198D02*
X013616Y018296D01*
X014032Y017880D01*
X013934Y017782D01*
X013518Y018198D01*
G37*
G36*
X013657Y018337D02*
X013755Y018435D01*
X014171Y018019D01*
X014073Y017921D01*
X013657Y018337D01*
G37*
D13*
X015429Y024413D03*
X015429Y024913D03*
X015429Y025413D03*
X015429Y025913D03*
X015429Y026413D03*
X015429Y026913D03*
X015429Y027413D03*
X015429Y027913D03*
X015429Y028413D03*
X015429Y028913D03*
X015429Y029413D03*
X015429Y029913D03*
X015429Y030413D03*
X015429Y030913D03*
X015429Y031413D03*
X015429Y031913D03*
X020431Y031913D03*
X020431Y031413D03*
X020431Y030913D03*
X020431Y030413D03*
X020431Y029913D03*
X020431Y029413D03*
X020431Y028913D03*
X020431Y028413D03*
X020431Y027913D03*
X020431Y027413D03*
X020431Y026913D03*
X020431Y026413D03*
X020431Y025913D03*
X020431Y025413D03*
X020431Y024913D03*
X020431Y024413D03*
X022429Y024425D03*
X022429Y024925D03*
X022429Y025425D03*
X022429Y025925D03*
X022429Y026425D03*
X022429Y026925D03*
X022429Y027425D03*
X022429Y027925D03*
X022429Y028425D03*
X022429Y028925D03*
X022429Y029425D03*
X022429Y029925D03*
X022429Y030425D03*
X022429Y030925D03*
X022429Y031425D03*
X022429Y031925D03*
X027431Y031925D03*
X027431Y031425D03*
X027431Y030925D03*
X027431Y030425D03*
X027431Y029925D03*
X027431Y029425D03*
X027431Y028925D03*
X027431Y028425D03*
X027431Y027925D03*
X027431Y027425D03*
X027431Y026925D03*
X027431Y026425D03*
X027431Y025925D03*
X027431Y025425D03*
X027431Y024925D03*
X027431Y024425D03*
D14*
X007540Y034172D03*
X001320Y034172D03*
D15*
X007564Y030393D03*
D16*
X001664Y030393D03*
D17*
X003564Y030050D03*
X003997Y030050D03*
X004430Y030050D03*
X004863Y030050D03*
X005296Y030050D03*
X005729Y030050D03*
X006162Y030050D03*
X006595Y030050D03*
X007028Y030050D03*
D18*
X008569Y029086D03*
X008569Y028771D03*
X008569Y028456D03*
X008569Y028141D03*
X008569Y027826D03*
X008569Y027511D03*
X008569Y027196D03*
X008569Y026881D03*
X008569Y026567D03*
X008569Y026252D03*
X008569Y025937D03*
X013136Y025937D03*
X013136Y026252D03*
X013136Y026567D03*
X013136Y026881D03*
X013136Y027196D03*
X013136Y027511D03*
X013136Y027826D03*
X013136Y028141D03*
X013136Y028456D03*
X013136Y028771D03*
X013136Y029086D03*
D19*
X012427Y029795D03*
X012112Y029795D03*
X011797Y029795D03*
X011482Y029795D03*
X011167Y029795D03*
X010852Y029795D03*
X010537Y029795D03*
X010222Y029795D03*
X009907Y029795D03*
X009592Y029795D03*
X009277Y029795D03*
X009277Y025228D03*
X009592Y025228D03*
X009907Y025228D03*
X010222Y025228D03*
X010537Y025228D03*
X010852Y025228D03*
X011167Y025228D03*
X011482Y025228D03*
X011797Y025228D03*
X012112Y025228D03*
X012427Y025228D03*
D20*
X020265Y012815D03*
X020265Y011915D03*
X020265Y011015D03*
D21*
X022745Y011925D03*
D22*
X002330Y026675D03*
X002330Y027675D03*
X002330Y028675D03*
X001330Y028675D03*
X001330Y027675D03*
X001330Y026675D03*
D23*
X002305Y025675D03*
X002305Y024675D03*
X002305Y023675D03*
X002305Y022675D03*
X007430Y023800D03*
X007430Y024800D03*
X008580Y021025D03*
X008580Y020025D03*
X008580Y019025D03*
X008580Y018025D03*
X008580Y017025D03*
X008580Y016025D03*
X007555Y014425D03*
X007555Y013425D03*
D24*
X020060Y016900D03*
X020380Y016900D03*
X020700Y016900D03*
D25*
X019180Y014385D03*
X019180Y013715D03*
X018393Y017002D03*
X018393Y017671D03*
X014555Y019340D03*
X014555Y020010D03*
X009390Y013425D03*
X008720Y013425D03*
X004055Y024715D03*
X004055Y025385D03*
X004055Y025965D03*
X004055Y026635D03*
X007305Y027965D03*
X007305Y028635D03*
X011155Y031640D03*
X011155Y032310D03*
X020455Y032765D03*
X020455Y033435D03*
X028055Y033385D03*
X028055Y032715D03*
D26*
X026520Y034140D03*
X024740Y034140D03*
D27*
X024250Y033160D03*
X027010Y033160D03*
D28*
X005655Y026675D03*
X005655Y024775D03*
D29*
X021930Y007675D03*
D30*
X021930Y006675D03*
X020930Y006675D03*
X020930Y007675D03*
X019930Y007675D03*
X019930Y006675D03*
X018930Y006675D03*
X018930Y007675D03*
X017930Y007675D03*
X017930Y006675D03*
X016930Y006675D03*
X016930Y007675D03*
X015930Y007675D03*
X015930Y006675D03*
X014930Y006675D03*
X014930Y007675D03*
X013930Y007675D03*
X013930Y006675D03*
X012930Y006675D03*
X012930Y007675D03*
X011930Y007675D03*
X011930Y006675D03*
X010930Y006675D03*
X010930Y007675D03*
X009930Y007675D03*
X009930Y006675D03*
X008930Y006675D03*
X008930Y007675D03*
X007930Y007675D03*
X007930Y006675D03*
X006930Y006675D03*
X006930Y007675D03*
D31*
X021056Y010050D03*
X021804Y010050D03*
X021804Y013800D03*
X021056Y013800D03*
D32*
X001180Y023625D03*
X001180Y025475D03*
D33*
X003180Y025340D03*
X003180Y026010D03*
X009095Y023925D03*
X009765Y023925D03*
G36*
X010713Y017310D02*
X011018Y017615D01*
X011297Y017336D01*
X010992Y017031D01*
X010713Y017310D01*
G37*
G36*
X010240Y016837D02*
X010545Y017142D01*
X010824Y016863D01*
X010519Y016558D01*
X010240Y016837D01*
G37*
X009390Y014300D03*
X008720Y014300D03*
G36*
X010030Y011774D02*
X010335Y012079D01*
X010614Y011800D01*
X010309Y011495D01*
X010030Y011774D01*
G37*
G36*
X009557Y011300D02*
X009862Y011605D01*
X010141Y011326D01*
X009836Y011021D01*
X009557Y011300D01*
G37*
X018970Y010175D03*
X019640Y010175D03*
X012930Y031715D03*
X012930Y032385D03*
X012055Y032385D03*
X012055Y031715D03*
X009930Y031715D03*
X009930Y032385D03*
D34*
X009930Y033550D03*
X010930Y033550D03*
X011930Y033550D03*
X008930Y033550D03*
D35*
X005660Y014820D02*
X005660Y006031D01*
X005684Y006089D01*
X006423Y006828D01*
X006483Y006973D01*
X006632Y007122D01*
X006760Y007175D01*
X006632Y007228D01*
X006483Y007377D01*
X006403Y007570D01*
X006403Y007780D01*
X006483Y007973D01*
X006632Y008122D01*
X006650Y008129D01*
X006650Y008744D01*
X006693Y008846D01*
X006771Y008925D01*
X006793Y008934D01*
X008900Y011041D01*
X008900Y011356D01*
X008943Y011459D01*
X009021Y011537D01*
X010143Y012659D01*
X010109Y012645D01*
X008749Y012645D01*
X008646Y012688D01*
X008483Y012851D01*
X008440Y012954D01*
X008440Y012978D01*
X008428Y012978D01*
X008294Y013113D01*
X008294Y013145D01*
X008045Y013145D01*
X008030Y013108D01*
X007872Y012950D01*
X007666Y012865D01*
X007444Y012865D01*
X007238Y012950D01*
X007080Y013108D01*
X006995Y013314D01*
X006995Y013536D01*
X007080Y013742D01*
X007238Y013900D01*
X007362Y013951D01*
X007359Y013952D01*
X007288Y013989D01*
X007223Y014036D01*
X007166Y014093D01*
X007119Y014158D01*
X007082Y014229D01*
X007058Y014306D01*
X007045Y014385D01*
X007045Y014407D01*
X007537Y014407D01*
X007537Y014443D01*
X007045Y014443D01*
X007045Y014465D01*
X007058Y014544D01*
X007082Y014621D01*
X007119Y014692D01*
X007166Y014757D01*
X007223Y014814D01*
X007288Y014861D01*
X007359Y014898D01*
X007436Y014922D01*
X007515Y014935D01*
X007537Y014935D01*
X007537Y014443D01*
X007573Y014443D01*
X008065Y014443D01*
X008065Y014465D01*
X008052Y014544D01*
X008028Y014621D01*
X007991Y014692D01*
X007944Y014757D01*
X007887Y014814D01*
X007822Y014861D01*
X007751Y014898D01*
X007674Y014922D01*
X007595Y014935D01*
X007573Y014935D01*
X007573Y014443D01*
X007573Y014407D01*
X008065Y014407D01*
X008065Y014385D01*
X008052Y014306D01*
X008028Y014229D01*
X007991Y014158D01*
X007944Y014093D01*
X007887Y014036D01*
X007822Y013989D01*
X007751Y013952D01*
X007748Y013951D01*
X007872Y013900D01*
X008030Y013742D01*
X008045Y013705D01*
X008294Y013705D01*
X008294Y013737D01*
X008428Y013872D01*
X009012Y013872D01*
X009055Y013829D01*
X009098Y013872D01*
X009110Y013872D01*
X009110Y013873D01*
X009078Y013873D01*
X009012Y013939D01*
X009006Y013935D01*
X008961Y013923D01*
X008739Y013923D01*
X008739Y014282D01*
X008702Y014282D01*
X008324Y014282D01*
X008324Y014079D01*
X008336Y014034D01*
X008360Y013993D01*
X008393Y013959D01*
X008434Y013935D01*
X008480Y013923D01*
X008702Y013923D01*
X008702Y014282D01*
X008702Y014318D01*
X008324Y014318D01*
X008324Y014521D01*
X008336Y014566D01*
X008360Y014607D01*
X008393Y014641D01*
X008434Y014665D01*
X008480Y014677D01*
X008702Y014677D01*
X008702Y014318D01*
X008739Y014318D01*
X008739Y014677D01*
X008961Y014677D01*
X009006Y014665D01*
X009012Y014661D01*
X009078Y014727D01*
X009701Y014727D01*
X009795Y014633D01*
X009921Y014685D01*
X010074Y014685D01*
X010215Y014626D01*
X010324Y014518D01*
X010382Y014377D01*
X010382Y014311D01*
X010560Y014133D01*
X010639Y014211D01*
X010829Y014211D01*
X010968Y014072D01*
X010968Y014072D01*
X011200Y013840D01*
X011200Y013840D01*
X011247Y013794D01*
X011304Y013736D01*
X011355Y013787D01*
X011458Y013830D01*
X011939Y013830D01*
X012335Y014226D01*
X012291Y014270D01*
X011940Y014270D01*
X011940Y014223D01*
X011881Y014082D01*
X011773Y013974D01*
X011632Y013915D01*
X011478Y013915D01*
X011337Y013974D01*
X011260Y014050D01*
X011231Y014063D01*
X011152Y014141D01*
X010886Y014407D01*
X010829Y014350D01*
X010639Y014350D01*
X010086Y014902D01*
X010086Y015092D01*
X010264Y015270D01*
X008249Y015270D01*
X008146Y015313D01*
X007646Y015813D01*
X007568Y015891D01*
X007525Y015994D01*
X007525Y018356D01*
X007568Y018459D01*
X008021Y018912D01*
X008020Y018914D01*
X008020Y019136D01*
X008105Y019342D01*
X008263Y019500D01*
X008387Y019551D01*
X008384Y019552D01*
X008313Y019589D01*
X008248Y019636D01*
X008191Y019693D01*
X008144Y019758D01*
X008107Y019829D01*
X008083Y019906D01*
X008070Y019985D01*
X008070Y020007D01*
X008562Y020007D01*
X008562Y020043D01*
X008070Y020043D01*
X008070Y020065D01*
X008083Y020144D01*
X008107Y020221D01*
X008144Y020292D01*
X008191Y020357D01*
X008248Y020414D01*
X008313Y020461D01*
X008384Y020498D01*
X008387Y020499D01*
X008263Y020550D01*
X008105Y020708D01*
X008020Y020914D01*
X008020Y021136D01*
X008105Y021342D01*
X008263Y021500D01*
X008469Y021585D01*
X008691Y021585D01*
X008897Y021500D01*
X009055Y021342D01*
X009140Y021136D01*
X009140Y020914D01*
X009055Y020708D01*
X008897Y020550D01*
X008773Y020499D01*
X008776Y020498D01*
X008847Y020461D01*
X008912Y020414D01*
X008969Y020357D01*
X009016Y020292D01*
X009053Y020221D01*
X009077Y020144D01*
X009090Y020065D01*
X009090Y020043D01*
X008598Y020043D01*
X008598Y020007D01*
X009090Y020007D01*
X009090Y019985D01*
X009077Y019906D01*
X009053Y019829D01*
X009016Y019758D01*
X008969Y019693D01*
X008912Y019636D01*
X008847Y019589D01*
X008776Y019552D01*
X008773Y019551D01*
X008897Y019500D01*
X009055Y019342D01*
X009060Y019330D01*
X009064Y019330D01*
X009150Y019416D01*
X009150Y021731D01*
X009193Y021834D01*
X009271Y021912D01*
X009754Y022395D01*
X002795Y022395D01*
X002780Y022358D01*
X002702Y022280D01*
X006400Y022280D01*
X006577Y022207D01*
X006712Y022072D01*
X006785Y021895D01*
X006785Y018280D01*
X007025Y018280D01*
X007202Y018207D01*
X007337Y018072D01*
X007410Y017895D01*
X007410Y015955D01*
X007337Y015778D01*
X007202Y015643D01*
X007025Y015570D01*
X006785Y015570D01*
X006785Y015205D01*
X006712Y015028D01*
X006577Y014893D01*
X006400Y014820D01*
X005660Y014820D01*
X005660Y014663D02*
X007104Y014663D01*
X007051Y014505D02*
X005660Y014505D01*
X005660Y014346D02*
X007051Y014346D01*
X007104Y014188D02*
X005660Y014188D01*
X005660Y014029D02*
X007232Y014029D01*
X007209Y013871D02*
X005660Y013871D01*
X005660Y013712D02*
X007068Y013712D01*
X007002Y013554D02*
X005660Y013554D01*
X005660Y013395D02*
X006995Y013395D01*
X007027Y013237D02*
X005660Y013237D01*
X005660Y013078D02*
X007110Y013078D01*
X007312Y012920D02*
X005660Y012920D01*
X005660Y012761D02*
X008573Y012761D01*
X008455Y012920D02*
X007798Y012920D01*
X008000Y013078D02*
X008329Y013078D01*
X008294Y013712D02*
X008042Y013712D01*
X007901Y013871D02*
X008427Y013871D01*
X008339Y014029D02*
X007878Y014029D01*
X008006Y014188D02*
X008324Y014188D01*
X008324Y014346D02*
X008059Y014346D01*
X008059Y014505D02*
X008324Y014505D01*
X008432Y014663D02*
X008006Y014663D01*
X007877Y014822D02*
X010167Y014822D01*
X010127Y014663D02*
X010325Y014663D01*
X010329Y014505D02*
X010484Y014505D01*
X010382Y014346D02*
X010947Y014346D01*
X010853Y014188D02*
X011106Y014188D01*
X011011Y014029D02*
X011282Y014029D01*
X011170Y013871D02*
X011980Y013871D01*
X011828Y014029D02*
X012138Y014029D01*
X012297Y014188D02*
X011925Y014188D01*
X012454Y013554D02*
X013257Y013554D01*
X013229Y013582D02*
X013337Y013474D01*
X013478Y013415D01*
X013549Y013415D01*
X015433Y011531D01*
X015376Y011473D01*
X015236Y011334D01*
X015190Y011288D01*
X014958Y011056D01*
X014958Y011056D01*
X014819Y010917D01*
X014680Y010777D01*
X014541Y010638D01*
X014541Y010448D01*
X014650Y010338D01*
X014650Y009101D01*
X014589Y009162D01*
X013800Y009951D01*
X013824Y009958D01*
X013865Y009981D01*
X014090Y010207D01*
X013987Y010311D01*
X014090Y010207D01*
X014316Y010432D01*
X014340Y010473D01*
X014352Y010519D01*
X014352Y010567D01*
X014340Y010612D01*
X014316Y010653D01*
X014263Y010707D01*
X014263Y010777D01*
X014031Y011010D01*
X013984Y011056D01*
X013752Y011288D01*
X013613Y011427D01*
X013474Y011566D01*
X013428Y011566D01*
X013428Y011613D01*
X013288Y011752D01*
X013056Y011984D01*
X012917Y012123D01*
X012778Y012262D01*
X012639Y012402D01*
X012499Y012541D01*
X012453Y012541D01*
X012453Y012587D01*
X012221Y012819D01*
X012082Y012958D01*
X011943Y013098D01*
X011803Y013237D01*
X011770Y013270D01*
X012111Y013270D01*
X012214Y013313D01*
X013296Y014395D01*
X013986Y014395D01*
X014089Y014438D01*
X014339Y014688D01*
X014417Y014766D01*
X014460Y014869D01*
X014460Y016161D01*
X014506Y016207D01*
X014535Y016276D01*
X014587Y016224D01*
X014728Y016165D01*
X014882Y016165D01*
X015023Y016224D01*
X015131Y016332D01*
X015190Y016473D01*
X015190Y016552D01*
X015551Y016912D01*
X015608Y016855D01*
X015747Y016716D01*
X015848Y016614D01*
X015669Y016435D01*
X015603Y016435D01*
X015462Y016376D01*
X015354Y016268D01*
X015295Y016127D01*
X015295Y015973D01*
X015354Y015832D01*
X015462Y015724D01*
X015603Y015665D01*
X015694Y015665D01*
X015729Y015582D01*
X015837Y015474D01*
X015978Y015415D01*
X016045Y015415D01*
X015886Y015256D01*
X015757Y015310D01*
X015603Y015310D01*
X015462Y015251D01*
X015354Y015143D01*
X015295Y015002D01*
X015295Y014848D01*
X015354Y014707D01*
X015462Y014599D01*
X015603Y014540D01*
X015757Y014540D01*
X015810Y014562D01*
X015836Y014500D01*
X015729Y014393D01*
X015694Y014310D01*
X015603Y014310D01*
X015462Y014251D01*
X015354Y014143D01*
X015319Y014060D01*
X015228Y014060D01*
X015087Y014001D01*
X014979Y013893D01*
X014944Y013810D01*
X014853Y013810D01*
X014712Y013751D01*
X014604Y013643D01*
X014545Y013502D01*
X014545Y013348D01*
X014604Y013207D01*
X014712Y013099D01*
X014853Y013040D01*
X015007Y013040D01*
X015148Y013099D01*
X015194Y013145D01*
X017047Y013145D01*
X017046Y013144D01*
X016907Y013005D01*
X016768Y012865D01*
X016628Y012726D01*
X016489Y012587D01*
X016350Y012448D01*
X016211Y012309D01*
X016072Y012169D01*
X015932Y012030D01*
X015829Y011927D01*
X013940Y013816D01*
X013940Y013877D01*
X013881Y014018D01*
X013773Y014126D01*
X013632Y014185D01*
X013478Y014185D01*
X013337Y014126D01*
X013229Y014018D01*
X013170Y013877D01*
X013170Y013723D01*
X013229Y013582D01*
X013175Y013712D02*
X012613Y013712D01*
X012771Y013871D02*
X013170Y013871D01*
X013240Y014029D02*
X012930Y014029D01*
X013088Y014188D02*
X015398Y014188D01*
X015154Y014029D02*
X013870Y014029D01*
X013940Y013871D02*
X014969Y013871D01*
X014673Y013712D02*
X014044Y013712D01*
X014202Y013554D02*
X014567Y013554D01*
X014545Y013395D02*
X014361Y013395D01*
X014519Y013237D02*
X014591Y013237D01*
X014678Y013078D02*
X014762Y013078D01*
X014836Y012920D02*
X016822Y012920D01*
X016980Y013078D02*
X015098Y013078D01*
X014995Y012761D02*
X016663Y012761D01*
X016505Y012603D02*
X015153Y012603D01*
X015312Y012444D02*
X016346Y012444D01*
X016188Y012286D02*
X015470Y012286D01*
X015629Y012127D02*
X016029Y012127D01*
X015871Y011969D02*
X015787Y011969D01*
X015312Y011652D02*
X013389Y011652D01*
X013288Y011752D02*
X013288Y011752D01*
X013230Y011810D02*
X015154Y011810D01*
X014995Y011969D02*
X013072Y011969D01*
X013056Y011984D02*
X013056Y011984D01*
X012913Y012127D02*
X014837Y012127D01*
X014678Y012286D02*
X012755Y012286D01*
X012596Y012444D02*
X014520Y012444D01*
X014361Y012603D02*
X012438Y012603D01*
X012279Y012761D02*
X014203Y012761D01*
X014044Y012920D02*
X012121Y012920D01*
X011962Y013078D02*
X013886Y013078D01*
X013727Y013237D02*
X011804Y013237D01*
X012296Y013395D02*
X013569Y013395D01*
X013247Y014346D02*
X015709Y014346D01*
X015834Y014505D02*
X014155Y014505D01*
X014314Y014663D02*
X015398Y014663D01*
X015306Y014822D02*
X014440Y014822D01*
X014460Y014980D02*
X015295Y014980D01*
X015352Y015139D02*
X014460Y015139D01*
X014460Y015297D02*
X015572Y015297D01*
X015788Y015297D02*
X015927Y015297D01*
X015881Y015456D02*
X014460Y015456D01*
X014460Y015614D02*
X015715Y015614D01*
X015413Y015773D02*
X014460Y015773D01*
X014460Y015931D02*
X015313Y015931D01*
X015295Y016090D02*
X014460Y016090D01*
X014523Y016248D02*
X014563Y016248D01*
X014450Y016699D02*
X014398Y016751D01*
X014257Y016810D01*
X014103Y016810D01*
X013962Y016751D01*
X013854Y016643D01*
X013795Y016502D01*
X013795Y016348D01*
X013854Y016207D01*
X013900Y016161D01*
X013900Y015427D01*
X013882Y015435D01*
X013791Y015435D01*
X013756Y015518D01*
X013648Y015626D01*
X013507Y015685D01*
X013416Y015685D01*
X013381Y015768D01*
X013273Y015876D01*
X013132Y015935D01*
X013041Y015935D01*
X013006Y016018D01*
X012898Y016126D01*
X012757Y016185D01*
X012684Y016185D01*
X012674Y016195D01*
X012871Y016391D01*
X012871Y016391D01*
X013010Y016530D01*
X013056Y016577D01*
X013056Y016577D01*
X013288Y016809D01*
X013335Y016855D01*
X013567Y017087D01*
X013567Y017133D01*
X013613Y017133D01*
X013670Y017191D01*
X013720Y017141D01*
X013799Y017063D01*
X013901Y017020D01*
X014291Y017020D01*
X014337Y016974D01*
X014478Y016915D01*
X014632Y016915D01*
X014773Y016974D01*
X014881Y017082D01*
X014940Y017223D01*
X014940Y017377D01*
X014881Y017518D01*
X014773Y017626D01*
X014632Y017685D01*
X014478Y017685D01*
X014337Y017626D01*
X014291Y017580D01*
X014073Y017580D01*
X014066Y017587D01*
X014263Y017783D01*
X014263Y017783D01*
X014402Y017922D01*
X014402Y018113D01*
X014324Y018191D01*
X014566Y018433D01*
X014632Y018433D01*
X014773Y018492D01*
X014881Y018600D01*
X014900Y018645D01*
X014900Y018472D01*
X014541Y018113D01*
X014541Y017922D01*
X014680Y017783D01*
X014912Y017551D01*
X014958Y017505D01*
X014958Y017505D01*
X015155Y017308D01*
X014781Y016935D01*
X014728Y016935D01*
X014587Y016876D01*
X014479Y016768D01*
X014450Y016699D01*
X014460Y016724D02*
X014426Y016724D01*
X014601Y016882D02*
X013362Y016882D01*
X013335Y016855D02*
X013335Y016855D01*
X013288Y016809D02*
X013288Y016809D01*
X013203Y016724D02*
X013934Y016724D01*
X013821Y016565D02*
X013045Y016565D01*
X012886Y016407D02*
X013795Y016407D01*
X013837Y016248D02*
X012728Y016248D01*
X012935Y016090D02*
X013900Y016090D01*
X013900Y015931D02*
X013141Y015931D01*
X013377Y015773D02*
X013900Y015773D01*
X013900Y015614D02*
X013660Y015614D01*
X013782Y015456D02*
X013900Y015456D01*
X015047Y016248D02*
X015345Y016248D01*
X015162Y016407D02*
X015535Y016407D01*
X015799Y016565D02*
X015203Y016565D01*
X015362Y016724D02*
X015739Y016724D01*
X015608Y016855D02*
X015608Y016855D01*
X015581Y016882D02*
X015520Y016882D01*
X015045Y017199D02*
X014930Y017199D01*
X014940Y017358D02*
X015105Y017358D01*
X014947Y017516D02*
X014882Y017516D01*
X014912Y017551D02*
X014912Y017551D01*
X014788Y017675D02*
X014657Y017675D01*
X014680Y017783D02*
X014680Y017783D01*
X014630Y017833D02*
X014313Y017833D01*
X014402Y017992D02*
X014541Y017992D01*
X014578Y018150D02*
X014365Y018150D01*
X014441Y018309D02*
X014736Y018309D01*
X014713Y018467D02*
X014895Y018467D01*
X014892Y018626D02*
X014900Y018626D01*
X014170Y018829D02*
X013928Y018587D01*
X013850Y018665D01*
X013710Y018665D01*
X013710Y020145D01*
X014178Y020145D01*
X014178Y020028D01*
X014537Y020028D01*
X014537Y019991D01*
X014178Y019991D01*
X014178Y019769D01*
X014190Y019724D01*
X014194Y019718D01*
X014128Y019652D01*
X014128Y019029D01*
X014197Y018960D01*
X014170Y018895D01*
X014170Y018829D01*
X014125Y018784D02*
X013710Y018784D01*
X013710Y018943D02*
X014190Y018943D01*
X014128Y019101D02*
X013710Y019101D01*
X013710Y019260D02*
X014128Y019260D01*
X014128Y019418D02*
X013710Y019418D01*
X013710Y019577D02*
X014128Y019577D01*
X014187Y019735D02*
X013710Y019735D01*
X013710Y019894D02*
X014178Y019894D01*
X014178Y020052D02*
X013710Y020052D01*
X014573Y020028D02*
X014932Y020028D01*
X014932Y020145D01*
X015504Y020145D01*
X014982Y019623D01*
X014982Y019652D01*
X014916Y019718D01*
X014920Y019724D01*
X014932Y019769D01*
X014932Y019991D01*
X014573Y019991D01*
X014573Y020028D01*
X014932Y020052D02*
X015411Y020052D01*
X015253Y019894D02*
X014932Y019894D01*
X014923Y019735D02*
X015094Y019735D01*
X013966Y018626D02*
X013889Y018626D01*
X014154Y017675D02*
X014453Y017675D01*
X014840Y017041D02*
X014887Y017041D01*
X013852Y017041D02*
X013520Y017041D01*
X011545Y016551D02*
X011339Y016345D01*
X011293Y016299D01*
X011293Y016299D01*
X011096Y016102D01*
X010707Y016492D01*
X010785Y016570D01*
X010532Y016824D01*
X010558Y016850D01*
X010811Y016597D01*
X010968Y016753D01*
X010992Y016794D01*
X010994Y016801D01*
X011086Y016801D01*
X011181Y016895D01*
X011181Y016859D01*
X011239Y016718D01*
X011348Y016609D01*
X011489Y016551D01*
X011545Y016551D01*
X011455Y016565D02*
X010780Y016565D01*
X010792Y016407D02*
X011400Y016407D01*
X011339Y016345D02*
X011339Y016345D01*
X011242Y016248D02*
X010951Y016248D01*
X010930Y016175D02*
X010180Y016925D01*
X010457Y016925D01*
X010532Y016850D01*
X010532Y016876D02*
X010506Y016850D01*
X010532Y016824D01*
X010288Y016580D01*
X009421Y016580D01*
X009138Y016862D01*
X009142Y016866D01*
X010417Y018141D01*
X010460Y018244D01*
X010460Y021184D01*
X013917Y024641D01*
X013960Y024744D01*
X013960Y026231D01*
X013917Y026334D01*
X013839Y026412D01*
X013762Y026489D01*
X013661Y026531D01*
X013661Y026790D01*
X013757Y026790D01*
X013898Y026849D01*
X014006Y026957D01*
X014065Y027098D01*
X014065Y027252D01*
X014006Y027393D01*
X013898Y027501D01*
X013757Y027560D01*
X013611Y027560D01*
X013611Y027583D01*
X013661Y027633D01*
X013661Y027665D01*
X013757Y027665D01*
X013898Y027724D01*
X014006Y027832D01*
X014065Y027973D01*
X014065Y028127D01*
X014019Y028237D01*
X014065Y028348D01*
X014065Y028502D01*
X014019Y028612D01*
X014065Y028723D01*
X014065Y028877D01*
X014019Y028987D01*
X014065Y029098D01*
X014065Y029252D01*
X014006Y029393D01*
X013898Y029501D01*
X013757Y029560D01*
X013603Y029560D01*
X013462Y029501D01*
X013375Y029415D01*
X012755Y029415D01*
X012755Y029515D01*
X013106Y029515D01*
X013166Y029540D01*
X013257Y029540D01*
X013398Y029599D01*
X013506Y029707D01*
X013565Y029848D01*
X013565Y030002D01*
X013524Y030100D01*
X013631Y030207D01*
X013690Y030348D01*
X013690Y030502D01*
X013631Y030643D01*
X013599Y030675D01*
X013631Y030707D01*
X013690Y030848D01*
X013690Y031002D01*
X013631Y031143D01*
X013523Y031251D01*
X013382Y031310D01*
X013263Y031310D01*
X013377Y031423D01*
X013377Y032007D01*
X013334Y032050D01*
X013377Y032093D01*
X013377Y032677D01*
X013242Y032811D01*
X013210Y032811D01*
X013210Y033876D01*
X013256Y033922D01*
X013315Y034063D01*
X013315Y034217D01*
X013272Y034320D01*
X024160Y034320D01*
X024160Y033900D01*
X024227Y033832D01*
X024116Y033832D01*
X023869Y033730D01*
X023680Y033541D01*
X023578Y033294D01*
X023578Y033026D01*
X023680Y032779D01*
X023869Y032590D01*
X024116Y032488D01*
X024384Y032488D01*
X024631Y032590D01*
X024820Y032779D01*
X024922Y033026D01*
X024922Y033294D01*
X024820Y033541D01*
X024801Y033560D01*
X024980Y033560D01*
X025320Y033900D01*
X025320Y034320D01*
X025990Y034320D01*
X025990Y034160D01*
X026500Y034160D01*
X026500Y034120D01*
X026540Y034120D01*
X026540Y034160D01*
X027050Y034160D01*
X027050Y034320D01*
X028200Y034320D01*
X028200Y033781D01*
X028073Y033781D01*
X028073Y033403D01*
X028037Y033403D01*
X028037Y033781D01*
X027834Y033781D01*
X027789Y033769D01*
X027748Y033745D01*
X027714Y033712D01*
X027690Y033671D01*
X027678Y033625D01*
X027678Y033403D01*
X028037Y033403D01*
X028037Y033366D01*
X027678Y033366D01*
X027653Y033366D01*
X027678Y033366D02*
X027678Y033304D01*
X027580Y033541D01*
X027391Y033730D01*
X027144Y033832D01*
X026962Y033832D01*
X027050Y033920D01*
X027050Y034120D01*
X026540Y034120D01*
X026540Y033641D01*
X026440Y033541D01*
X026338Y033294D01*
X026338Y033026D01*
X026440Y032779D01*
X026629Y032590D01*
X026876Y032488D01*
X027144Y032488D01*
X027391Y032590D01*
X027580Y032779D01*
X027628Y032895D01*
X027628Y032643D01*
X027587Y032626D01*
X027479Y032518D01*
X027420Y032377D01*
X027420Y032311D01*
X027382Y032273D01*
X026903Y032273D01*
X026768Y032138D01*
X026768Y031754D01*
X026632Y031810D01*
X026478Y031810D01*
X026337Y031751D01*
X026229Y031643D01*
X026170Y031502D01*
X026170Y031348D01*
X026229Y031207D01*
X026261Y031175D01*
X026229Y031143D01*
X026194Y031060D01*
X026103Y031060D01*
X025962Y031001D01*
X025854Y030893D01*
X025795Y030752D01*
X025795Y030598D01*
X025854Y030457D01*
X025900Y030411D01*
X025900Y028499D01*
X025898Y028501D01*
X025757Y028560D01*
X025603Y028560D01*
X025462Y028501D01*
X025460Y028499D01*
X025460Y031731D01*
X025417Y031834D01*
X025167Y032084D01*
X025089Y032162D01*
X024986Y032205D01*
X023025Y032205D01*
X022957Y032273D01*
X021901Y032273D01*
X021833Y032205D01*
X021819Y032205D01*
X021773Y032251D01*
X021632Y032310D01*
X021478Y032310D01*
X021337Y032251D01*
X021229Y032143D01*
X021170Y032002D01*
X021170Y031848D01*
X021229Y031707D01*
X021261Y031675D01*
X021229Y031643D01*
X021170Y031502D01*
X021170Y031348D01*
X021229Y031207D01*
X021261Y031175D01*
X021229Y031143D01*
X021170Y031002D01*
X021170Y030848D01*
X021229Y030707D01*
X021261Y030675D01*
X021229Y030643D01*
X021170Y030502D01*
X021170Y030348D01*
X021229Y030207D01*
X021261Y030175D01*
X021229Y030143D01*
X021170Y030002D01*
X021170Y029848D01*
X021229Y029707D01*
X021261Y029675D01*
X021229Y029643D01*
X021170Y029502D01*
X021170Y029348D01*
X021229Y029207D01*
X021261Y029175D01*
X021229Y029143D01*
X021170Y029002D01*
X021170Y028848D01*
X021229Y028707D01*
X021261Y028675D01*
X021229Y028643D01*
X021170Y028502D01*
X021170Y028348D01*
X021229Y028207D01*
X021261Y028175D01*
X021229Y028143D01*
X021170Y028002D01*
X021170Y027848D01*
X021229Y027707D01*
X021261Y027675D01*
X021229Y027643D01*
X021170Y027502D01*
X021170Y027348D01*
X021229Y027207D01*
X021261Y027175D01*
X021229Y027143D01*
X021170Y027002D01*
X021170Y026848D01*
X021229Y026707D01*
X021261Y026675D01*
X021229Y026643D01*
X021170Y026502D01*
X021170Y026348D01*
X021229Y026207D01*
X021261Y026175D01*
X021229Y026143D01*
X021170Y026002D01*
X021170Y025848D01*
X021229Y025707D01*
X021261Y025675D01*
X021229Y025643D01*
X021170Y025502D01*
X021170Y025348D01*
X021229Y025207D01*
X021261Y025175D01*
X021229Y025143D01*
X021170Y025002D01*
X021170Y024848D01*
X021229Y024707D01*
X021337Y024599D01*
X021478Y024540D01*
X021632Y024540D01*
X021773Y024599D01*
X021819Y024645D01*
X021833Y024645D01*
X021842Y024636D01*
X021828Y024613D01*
X021816Y024567D01*
X021816Y024425D01*
X021816Y024330D01*
X021624Y024330D01*
X021521Y024287D01*
X021443Y024209D01*
X018960Y021726D01*
X018960Y023048D01*
X018978Y023040D01*
X019132Y023040D01*
X019273Y023099D01*
X019381Y023207D01*
X019440Y023348D01*
X019440Y023446D01*
X019460Y023494D01*
X019460Y024298D01*
X019478Y024290D01*
X019544Y024290D01*
X019580Y024254D01*
X019659Y024175D01*
X019762Y024133D01*
X019835Y024133D01*
X019903Y024064D01*
X020959Y024064D01*
X021094Y024199D01*
X021094Y024626D01*
X021057Y024662D01*
X021094Y024699D01*
X021094Y025126D01*
X021057Y025162D01*
X021094Y025199D01*
X021094Y025626D01*
X021057Y025662D01*
X021094Y025699D01*
X021094Y026126D01*
X021057Y026162D01*
X021094Y026199D01*
X021094Y026626D01*
X021057Y026662D01*
X021094Y026699D01*
X021094Y027126D01*
X021057Y027162D01*
X021094Y027199D01*
X021094Y027626D01*
X021057Y027662D01*
X021094Y027699D01*
X021094Y028126D01*
X021057Y028162D01*
X021094Y028199D01*
X021094Y028626D01*
X021057Y028662D01*
X021094Y028699D01*
X021094Y029126D01*
X021057Y029162D01*
X021094Y029199D01*
X021094Y029626D01*
X021057Y029662D01*
X021094Y029699D01*
X021094Y030126D01*
X021057Y030162D01*
X021094Y030199D01*
X021094Y030626D01*
X021057Y030662D01*
X021094Y030699D01*
X021094Y031126D01*
X021057Y031162D01*
X021094Y031199D01*
X021094Y031626D01*
X021057Y031663D01*
X021094Y031699D01*
X021094Y032045D01*
X021131Y032082D01*
X021190Y032223D01*
X021190Y032377D01*
X021131Y032518D01*
X021023Y032626D01*
X020882Y032685D01*
X020882Y033077D01*
X020816Y033143D01*
X020820Y033149D01*
X020832Y033194D01*
X020832Y033416D01*
X020473Y033416D01*
X020473Y033453D01*
X020437Y033453D01*
X020437Y033831D01*
X020234Y033831D01*
X020189Y033819D01*
X020148Y033795D01*
X020114Y033762D01*
X020090Y033721D01*
X020078Y033675D01*
X020078Y033453D01*
X020437Y033453D01*
X020437Y033416D01*
X020078Y033416D01*
X020078Y033194D01*
X020090Y033149D01*
X020094Y033143D01*
X020028Y033077D01*
X020028Y032454D01*
X020163Y032319D01*
X020390Y032319D01*
X020409Y032300D01*
X020370Y032261D01*
X019903Y032261D01*
X019768Y032126D01*
X019768Y032004D01*
X019632Y032060D01*
X019478Y032060D01*
X019337Y032001D01*
X019291Y031955D01*
X017624Y031955D01*
X017521Y031912D01*
X017443Y031834D01*
X016943Y031334D01*
X016900Y031231D01*
X016900Y027851D01*
X016667Y028084D01*
X016589Y028162D01*
X016486Y028205D01*
X016092Y028205D01*
X016092Y028626D01*
X016055Y028663D01*
X016092Y028699D01*
X016092Y029126D01*
X016055Y029163D01*
X016092Y029199D01*
X016092Y029626D01*
X016055Y029662D01*
X016092Y029699D01*
X016092Y030126D01*
X016055Y030163D01*
X016092Y030199D01*
X016092Y030626D01*
X016055Y030663D01*
X016092Y030699D01*
X016092Y031126D01*
X016055Y031163D01*
X016092Y031199D01*
X016092Y031626D01*
X016055Y031662D01*
X016092Y031699D01*
X016092Y032126D01*
X015957Y032261D01*
X014909Y032261D01*
X015063Y032350D01*
X015255Y032542D01*
X015391Y032777D01*
X015461Y033039D01*
X015461Y033311D01*
X015391Y033573D01*
X015255Y033808D01*
X015063Y034000D01*
X014828Y034136D01*
X014566Y034206D01*
X014294Y034206D01*
X014032Y034136D01*
X013797Y034000D01*
X013605Y033808D01*
X013469Y033573D01*
X013399Y033311D01*
X013399Y033039D01*
X013469Y032777D01*
X013605Y032542D01*
X013797Y032350D01*
X014032Y032214D01*
X014243Y032158D01*
X014229Y032143D01*
X014170Y032002D01*
X014170Y031848D01*
X014229Y031707D01*
X014261Y031675D01*
X014229Y031643D01*
X014170Y031502D01*
X014170Y031348D01*
X014229Y031207D01*
X014261Y031175D01*
X014229Y031143D01*
X014170Y031002D01*
X014170Y030848D01*
X014229Y030707D01*
X014261Y030675D01*
X014229Y030643D01*
X014170Y030502D01*
X014170Y030348D01*
X014229Y030207D01*
X014261Y030175D01*
X014229Y030143D01*
X014170Y030002D01*
X014170Y029848D01*
X014229Y029707D01*
X014261Y029675D01*
X014229Y029643D01*
X014170Y029502D01*
X014170Y029348D01*
X014229Y029207D01*
X014261Y029175D01*
X014229Y029143D01*
X014170Y029002D01*
X014170Y028848D01*
X014229Y028707D01*
X014261Y028675D01*
X014229Y028643D01*
X014170Y028502D01*
X014170Y028348D01*
X014229Y028207D01*
X014261Y028175D01*
X014229Y028143D01*
X014170Y028002D01*
X014170Y027848D01*
X014229Y027707D01*
X014261Y027675D01*
X014229Y027643D01*
X014170Y027502D01*
X014170Y027348D01*
X014229Y027207D01*
X014261Y027175D01*
X014229Y027143D01*
X014170Y027002D01*
X014170Y026848D01*
X014229Y026707D01*
X014261Y026675D01*
X014229Y026643D01*
X014170Y026502D01*
X014170Y026348D01*
X014229Y026207D01*
X014261Y026175D01*
X014229Y026143D01*
X014170Y026002D01*
X014170Y025848D01*
X014229Y025707D01*
X014261Y025675D01*
X014229Y025643D01*
X014170Y025502D01*
X014170Y025348D01*
X014229Y025207D01*
X014261Y025175D01*
X014229Y025143D01*
X014170Y025002D01*
X014170Y024848D01*
X014229Y024707D01*
X014337Y024599D01*
X014478Y024540D01*
X014632Y024540D01*
X014773Y024599D01*
X014807Y024633D01*
X014833Y024633D01*
X014842Y024623D01*
X014828Y024600D01*
X014816Y024554D01*
X014816Y024413D01*
X015429Y024413D01*
X015429Y024412D01*
X015429Y024114D01*
X015429Y024412D01*
X015429Y024412D01*
X014816Y024412D01*
X014816Y024315D01*
X014668Y024355D01*
X014192Y024355D01*
X013733Y024232D01*
X013322Y023994D01*
X012986Y023658D01*
X012748Y023247D01*
X012631Y022810D01*
X012603Y022810D01*
X012462Y022751D01*
X012354Y022643D01*
X012295Y022502D01*
X012295Y022348D01*
X012354Y022207D01*
X012400Y022161D01*
X012400Y021816D01*
X012396Y021776D01*
X012400Y021760D01*
X012400Y021744D01*
X012415Y021707D01*
X012427Y021669D01*
X012437Y021656D01*
X012443Y021641D01*
X012471Y021613D01*
X012900Y021077D01*
X012900Y020916D01*
X012693Y020709D01*
X012650Y020606D01*
X012650Y020499D01*
X012648Y020501D01*
X012507Y020560D01*
X012460Y020560D01*
X012460Y020911D01*
X012506Y020957D01*
X012565Y021098D01*
X012565Y021252D01*
X012506Y021393D01*
X012398Y021501D01*
X012257Y021560D01*
X012103Y021560D01*
X011962Y021501D01*
X011930Y021469D01*
X011898Y021501D01*
X011757Y021560D01*
X011603Y021560D01*
X011462Y021501D01*
X011354Y021393D01*
X011295Y021252D01*
X011295Y021098D01*
X011322Y021033D01*
X011257Y021060D01*
X011103Y021060D01*
X010962Y021001D01*
X010854Y020893D01*
X010795Y020752D01*
X010795Y020598D01*
X010854Y020457D01*
X010900Y020411D01*
X010900Y017822D01*
X010483Y017405D01*
X010483Y017312D01*
X010476Y017310D01*
X010435Y017286D01*
X010278Y017129D01*
X010532Y016876D01*
X010526Y016882D02*
X010474Y016882D01*
X010506Y016850D02*
X010252Y017103D01*
X010095Y016947D01*
X010072Y016906D01*
X010059Y016860D01*
X010059Y016812D01*
X010072Y016767D01*
X010095Y016726D01*
X010238Y016583D01*
X010506Y016850D01*
X010431Y016724D02*
X010379Y016724D01*
X010632Y016724D02*
X010684Y016724D01*
X010938Y016724D02*
X011237Y016724D01*
X011181Y016882D02*
X011167Y016882D01*
X010483Y017358D02*
X009634Y017358D01*
X009792Y017516D02*
X010594Y017516D01*
X010753Y017675D02*
X009951Y017675D01*
X010109Y017833D02*
X010900Y017833D01*
X010900Y017992D02*
X010268Y017992D01*
X010421Y018150D02*
X010900Y018150D01*
X010900Y018309D02*
X010460Y018309D01*
X010460Y018467D02*
X010900Y018467D01*
X010900Y018626D02*
X010460Y018626D01*
X010460Y018784D02*
X010900Y018784D01*
X010900Y018943D02*
X010460Y018943D01*
X010460Y019101D02*
X010900Y019101D01*
X010900Y019260D02*
X010460Y019260D01*
X010460Y019418D02*
X010900Y019418D01*
X010900Y019577D02*
X010460Y019577D01*
X010460Y019735D02*
X010900Y019735D01*
X010900Y019894D02*
X010460Y019894D01*
X010460Y020052D02*
X010900Y020052D01*
X010900Y020211D02*
X010460Y020211D01*
X010460Y020369D02*
X010900Y020369D01*
X010824Y020528D02*
X010460Y020528D01*
X010460Y020686D02*
X010795Y020686D01*
X010834Y020845D02*
X010460Y020845D01*
X010460Y021003D02*
X010966Y021003D01*
X011295Y021162D02*
X010460Y021162D01*
X010596Y021320D02*
X011323Y021320D01*
X011439Y021479D02*
X010755Y021479D01*
X010913Y021637D02*
X012447Y021637D01*
X012421Y021479D02*
X012579Y021479D01*
X012537Y021320D02*
X012705Y021320D01*
X012832Y021162D02*
X012565Y021162D01*
X012525Y021003D02*
X012900Y021003D01*
X012805Y021050D02*
X012680Y020925D01*
X012829Y020845D02*
X012460Y020845D01*
X012460Y020686D02*
X012683Y020686D01*
X012650Y020528D02*
X012585Y020528D01*
X011939Y021479D02*
X011921Y021479D01*
X012398Y021796D02*
X011072Y021796D01*
X011230Y021954D02*
X012400Y021954D01*
X012400Y022113D02*
X011389Y022113D01*
X011547Y022271D02*
X012327Y022271D01*
X012295Y022430D02*
X011706Y022430D01*
X011864Y022588D02*
X012331Y022588D01*
X012457Y022747D02*
X012023Y022747D01*
X012181Y022905D02*
X012656Y022905D01*
X012699Y023064D02*
X012340Y023064D01*
X012498Y023222D02*
X012741Y023222D01*
X012657Y023381D02*
X012825Y023381D01*
X012815Y023539D02*
X012917Y023539D01*
X012974Y023698D02*
X013025Y023698D01*
X013132Y023856D02*
X013183Y023856D01*
X013291Y024015D02*
X013357Y024015D01*
X013449Y024173D02*
X013631Y024173D01*
X013608Y024332D02*
X014105Y024332D01*
X014287Y024649D02*
X013920Y024649D01*
X013960Y024807D02*
X014187Y024807D01*
X014170Y024966D02*
X013960Y024966D01*
X013960Y025124D02*
X014221Y025124D01*
X014197Y025283D02*
X013960Y025283D01*
X013960Y025441D02*
X014170Y025441D01*
X014211Y025600D02*
X013960Y025600D01*
X013960Y025758D02*
X014207Y025758D01*
X014170Y025917D02*
X013960Y025917D01*
X013960Y026075D02*
X014200Y026075D01*
X014218Y026234D02*
X013959Y026234D01*
X013859Y026392D02*
X014170Y026392D01*
X014190Y026551D02*
X013661Y026551D01*
X013661Y026709D02*
X014228Y026709D01*
X014170Y026868D02*
X013917Y026868D01*
X014035Y027026D02*
X014180Y027026D01*
X014251Y027185D02*
X014065Y027185D01*
X014027Y027343D02*
X014172Y027343D01*
X014170Y027502D02*
X013898Y027502D01*
X013661Y027660D02*
X014246Y027660D01*
X014182Y027819D02*
X013993Y027819D01*
X014065Y027977D02*
X014170Y027977D01*
X014225Y028136D02*
X014061Y028136D01*
X014042Y028294D02*
X014193Y028294D01*
X014170Y028453D02*
X014065Y028453D01*
X014020Y028611D02*
X014215Y028611D01*
X014203Y028770D02*
X014065Y028770D01*
X014044Y028928D02*
X014170Y028928D01*
X014205Y029087D02*
X014060Y029087D01*
X014065Y029245D02*
X014213Y029245D01*
X014170Y029404D02*
X013996Y029404D01*
X014195Y029562D02*
X013310Y029562D01*
X013512Y029721D02*
X014223Y029721D01*
X014170Y029879D02*
X013565Y029879D01*
X013550Y030038D02*
X014185Y030038D01*
X014239Y030196D02*
X013621Y030196D01*
X013690Y030355D02*
X014170Y030355D01*
X014175Y030513D02*
X013685Y030513D01*
X013603Y030672D02*
X014257Y030672D01*
X014178Y030830D02*
X013682Y030830D01*
X013690Y030989D02*
X014170Y030989D01*
X014233Y031147D02*
X013627Y031147D01*
X013392Y031306D02*
X014188Y031306D01*
X014170Y031464D02*
X013377Y031464D01*
X013377Y031623D02*
X014220Y031623D01*
X014198Y031781D02*
X013377Y031781D01*
X013377Y031940D02*
X014170Y031940D01*
X014210Y032098D02*
X013377Y032098D01*
X013377Y032257D02*
X013958Y032257D01*
X013732Y032415D02*
X013377Y032415D01*
X013377Y032574D02*
X013587Y032574D01*
X013495Y032732D02*
X013321Y032732D01*
X013210Y032891D02*
X013439Y032891D01*
X013399Y033049D02*
X013210Y033049D01*
X013210Y033208D02*
X013399Y033208D01*
X013414Y033366D02*
X013210Y033366D01*
X013210Y033525D02*
X013456Y033525D01*
X013533Y033683D02*
X013210Y033683D01*
X013210Y033842D02*
X013638Y033842D01*
X013797Y034000D02*
X013289Y034000D01*
X013315Y034159D02*
X014116Y034159D01*
X014744Y034159D02*
X024160Y034159D01*
X024160Y034317D02*
X013273Y034317D01*
X012588Y034320D02*
X012545Y034217D01*
X012545Y034063D01*
X012604Y033922D01*
X012650Y033876D01*
X012650Y032811D01*
X012618Y032811D01*
X012493Y032686D01*
X012367Y032811D01*
X012335Y032811D01*
X012335Y033163D01*
X012490Y033318D01*
X012490Y033782D01*
X012162Y034110D01*
X011698Y034110D01*
X011430Y033842D01*
X011162Y034110D01*
X010698Y034110D01*
X010430Y033842D01*
X010162Y034110D01*
X009698Y034110D01*
X009430Y033842D01*
X009162Y034110D01*
X008698Y034110D01*
X008370Y033782D01*
X008370Y033318D01*
X008650Y033038D01*
X008650Y031744D01*
X008663Y031713D01*
X008392Y031984D01*
X008440Y032098D01*
X008650Y032098D01*
X008650Y031940D02*
X008436Y031940D01*
X008440Y032098D02*
X008440Y032252D01*
X008381Y032393D01*
X008273Y032501D01*
X008132Y032560D01*
X007978Y032560D01*
X007837Y032501D01*
X007729Y032393D01*
X007670Y032252D01*
X007670Y032098D01*
X000660Y032098D01*
X000660Y031940D02*
X007746Y031940D01*
X007729Y031957D02*
X007775Y031911D01*
X007775Y031869D01*
X007791Y031830D01*
X004236Y031830D01*
X004124Y031830D01*
X004021Y031787D01*
X003838Y031604D01*
X003760Y031526D01*
X003717Y031423D01*
X003717Y030509D01*
X003714Y030506D01*
X003564Y030506D01*
X003564Y030050D01*
X003564Y029594D01*
X003714Y029594D01*
X003764Y029544D01*
X004150Y029544D01*
X004150Y028791D01*
X003814Y028455D01*
X002834Y028455D01*
X002880Y028566D01*
X002880Y028784D01*
X002796Y028987D01*
X002642Y029141D01*
X002439Y029225D01*
X002221Y029225D01*
X002018Y029141D01*
X001864Y028987D01*
X001803Y028839D01*
X001793Y028867D01*
X001758Y028937D01*
X001711Y029001D01*
X001656Y029056D01*
X001592Y029103D01*
X001522Y029138D01*
X001447Y029163D01*
X001369Y029175D01*
X001339Y029175D01*
X001339Y028684D01*
X001321Y028684D01*
X001321Y029175D01*
X001291Y029175D01*
X001213Y029163D01*
X001138Y029138D01*
X001068Y029103D01*
X001004Y029056D01*
X000949Y029001D01*
X000902Y028937D01*
X000867Y028867D01*
X000842Y028792D01*
X000830Y028714D01*
X000830Y028684D01*
X001321Y028684D01*
X001321Y028666D01*
X000830Y028666D01*
X000830Y028636D01*
X000842Y028558D01*
X000867Y028483D01*
X000902Y028413D01*
X000949Y028349D01*
X001004Y028294D01*
X000660Y028294D01*
X000660Y028136D02*
X001013Y028136D01*
X001018Y028141D02*
X000864Y027987D01*
X000780Y027784D01*
X000780Y027566D01*
X000864Y027363D01*
X001018Y027209D01*
X001100Y027175D01*
X001018Y027141D01*
X000864Y026987D01*
X000780Y026784D01*
X000780Y026566D01*
X000864Y026363D01*
X001018Y026209D01*
X001027Y026205D01*
X000660Y026205D01*
X000660Y034320D01*
X000864Y034320D01*
X000864Y034230D01*
X001262Y034230D01*
X001262Y034114D01*
X001378Y034114D01*
X001378Y034230D01*
X001775Y034230D01*
X001775Y034320D01*
X002483Y034320D01*
X002483Y034185D01*
X002594Y033918D01*
X002798Y033714D01*
X003065Y033603D01*
X003354Y033603D01*
X003621Y033714D01*
X003825Y033918D01*
X003936Y034185D01*
X003936Y034320D01*
X005633Y034320D01*
X005633Y034185D01*
X005744Y033918D01*
X005948Y033714D01*
X006215Y033603D01*
X006504Y033603D01*
X006770Y033714D01*
X006975Y033918D01*
X007085Y034185D01*
X007085Y034230D01*
X007482Y034230D01*
X007482Y034114D01*
X007085Y034114D01*
X007085Y033755D01*
X007097Y033709D01*
X007121Y033668D01*
X007154Y033634D01*
X007195Y033611D01*
X007241Y033598D01*
X007482Y033598D01*
X007482Y034114D01*
X007598Y034114D01*
X007598Y033598D01*
X007840Y033598D01*
X007885Y033611D01*
X007926Y033634D01*
X007960Y033668D01*
X007984Y033709D01*
X007996Y033755D01*
X007996Y034114D01*
X007598Y034114D01*
X007598Y034230D01*
X007996Y034230D01*
X007996Y034320D01*
X012588Y034320D01*
X012587Y034317D02*
X007996Y034317D01*
X007996Y034000D02*
X008588Y034000D01*
X008430Y033842D02*
X007996Y033842D01*
X007969Y033683D02*
X008370Y033683D01*
X008370Y033525D02*
X000660Y033525D01*
X000660Y033683D02*
X000891Y033683D01*
X000900Y033668D02*
X000934Y033634D01*
X000975Y033611D01*
X001020Y033598D01*
X001262Y033598D01*
X001262Y034114D01*
X000864Y034114D01*
X000864Y033755D01*
X000876Y033709D01*
X000900Y033668D01*
X000864Y033842D02*
X000660Y033842D01*
X000660Y034000D02*
X000864Y034000D01*
X000660Y034159D02*
X001262Y034159D01*
X001378Y034159D02*
X002494Y034159D01*
X002483Y034317D02*
X001775Y034317D01*
X001775Y034114D02*
X001378Y034114D01*
X001378Y033598D01*
X001619Y033598D01*
X001665Y033611D01*
X001706Y033634D01*
X001739Y033668D01*
X001763Y033709D01*
X001775Y033755D01*
X001775Y034114D01*
X001775Y034000D02*
X002560Y034000D01*
X002671Y033842D02*
X001775Y033842D01*
X001748Y033683D02*
X002873Y033683D01*
X003546Y033683D02*
X006023Y033683D01*
X005820Y033842D02*
X003748Y033842D01*
X003859Y034000D02*
X005710Y034000D01*
X005644Y034159D02*
X003925Y034159D01*
X003936Y034317D02*
X005633Y034317D01*
X006696Y033683D02*
X007112Y033683D01*
X007085Y033842D02*
X006898Y033842D01*
X007009Y034000D02*
X007085Y034000D01*
X007074Y034159D02*
X007482Y034159D01*
X007598Y034159D02*
X012545Y034159D01*
X012571Y034000D02*
X012272Y034000D01*
X012430Y033842D02*
X012650Y033842D01*
X012650Y033683D02*
X012490Y033683D01*
X012490Y033525D02*
X012650Y033525D01*
X012650Y033366D02*
X012490Y033366D01*
X012380Y033208D02*
X012650Y033208D01*
X012650Y033049D02*
X012335Y033049D01*
X012335Y032891D02*
X012650Y032891D01*
X012539Y032732D02*
X012446Y032732D01*
X011775Y032811D02*
X011743Y032811D01*
X011608Y032677D01*
X011608Y032093D01*
X011651Y032050D01*
X011608Y032007D01*
X011608Y031920D01*
X011582Y031920D01*
X011582Y031952D01*
X011516Y032018D01*
X011520Y032024D01*
X011532Y032069D01*
X011532Y032291D01*
X011173Y032291D01*
X011173Y032328D01*
X011137Y032328D01*
X011137Y032706D01*
X010934Y032706D01*
X010889Y032694D01*
X010848Y032670D01*
X010817Y032640D01*
X010817Y032990D01*
X011162Y032990D01*
X011430Y033258D01*
X011698Y032990D01*
X011775Y032990D01*
X011775Y032811D01*
X011775Y032891D02*
X010817Y032891D01*
X010817Y032732D02*
X011664Y032732D01*
X011608Y032574D02*
X011526Y032574D01*
X011520Y032596D02*
X011496Y032637D01*
X011462Y032670D01*
X011421Y032694D01*
X011376Y032706D01*
X011173Y032706D01*
X011173Y032328D01*
X011532Y032328D01*
X011532Y032550D01*
X011520Y032596D01*
X011532Y032415D02*
X011608Y032415D01*
X011608Y032257D02*
X011532Y032257D01*
X011532Y032098D02*
X011608Y032098D01*
X011608Y031940D02*
X011582Y031940D01*
X011582Y031360D02*
X011671Y031360D01*
X011743Y031289D01*
X012367Y031289D01*
X012439Y031360D01*
X012546Y031360D01*
X012618Y031289D01*
X013177Y031289D01*
X013087Y031251D01*
X013041Y031205D01*
X012249Y031205D01*
X012146Y031162D01*
X011560Y030576D01*
X011517Y030473D01*
X011517Y030320D01*
X011447Y030320D01*
X011447Y030536D01*
X011494Y030582D01*
X011552Y030723D01*
X011552Y030877D01*
X011494Y031018D01*
X011444Y031067D01*
X011442Y031194D01*
X011447Y031194D01*
X011582Y031329D01*
X011582Y031360D01*
X011559Y031306D02*
X011726Y031306D01*
X011443Y031147D02*
X012131Y031147D01*
X011973Y030989D02*
X011506Y030989D01*
X011552Y030830D02*
X011814Y030830D01*
X011656Y030672D02*
X011531Y030672D01*
X011534Y030513D02*
X011447Y030513D01*
X011447Y030355D02*
X011517Y030355D01*
X010887Y030355D02*
X010817Y030355D01*
X010817Y030270D02*
X010817Y030639D01*
X010841Y030582D01*
X010887Y030536D01*
X010887Y030270D01*
X010852Y030270D01*
X010817Y030270D01*
X010852Y030270D02*
X010852Y030199D01*
X010852Y030199D01*
X010852Y030199D01*
X010852Y030270D01*
X010817Y030513D02*
X010887Y030513D01*
X010852Y029391D02*
X010852Y029391D01*
X010852Y029391D01*
X010852Y029320D01*
X010781Y029320D01*
X010731Y029270D01*
X009786Y029270D01*
X009471Y029270D01*
X009094Y029270D01*
X009094Y028106D01*
X009442Y028106D01*
X009462Y028126D01*
X009603Y028185D01*
X009757Y028185D01*
X009898Y028126D01*
X009944Y028080D01*
X009986Y028080D01*
X010089Y028037D01*
X010167Y027959D01*
X011090Y027036D01*
X011132Y026934D01*
X011132Y025703D01*
X011167Y025703D01*
X011167Y025632D01*
X011167Y025632D01*
X011167Y025632D01*
X011167Y025703D01*
X011238Y025703D01*
X011288Y025753D01*
X012610Y025753D01*
X012610Y027390D01*
X012660Y027440D01*
X012660Y027511D01*
X012732Y027511D01*
X012732Y027511D01*
X012732Y027511D01*
X012660Y027511D01*
X012660Y027583D01*
X012610Y027633D01*
X012610Y029270D01*
X011762Y029270D01*
X011762Y028921D01*
X011719Y028818D01*
X011315Y028414D01*
X011315Y028348D01*
X011256Y028207D01*
X011148Y028099D01*
X011007Y028040D01*
X010853Y028040D01*
X010712Y028099D01*
X010604Y028207D01*
X010545Y028348D01*
X010545Y028502D01*
X010604Y028643D01*
X010712Y028751D01*
X010853Y028810D01*
X010919Y028810D01*
X011202Y029093D01*
X011202Y029270D01*
X010973Y029270D01*
X010923Y029320D01*
X010852Y029320D01*
X010852Y029391D01*
X011202Y029245D02*
X009094Y029245D01*
X009094Y029087D02*
X011196Y029087D01*
X011037Y028928D02*
X009094Y028928D01*
X009094Y028770D02*
X010756Y028770D01*
X010590Y028611D02*
X009094Y028611D01*
X009094Y028453D02*
X010545Y028453D01*
X010568Y028294D02*
X009094Y028294D01*
X009094Y028136D02*
X009484Y028136D01*
X009389Y027546D02*
X009044Y027546D01*
X009044Y027511D01*
X008973Y027511D01*
X008973Y027511D01*
X008973Y027511D01*
X009044Y027511D01*
X009044Y027440D01*
X009094Y027390D01*
X009094Y026254D01*
X009228Y026310D01*
X009311Y026310D01*
X009295Y026348D01*
X009295Y026502D01*
X009354Y026643D01*
X009462Y026751D01*
X009603Y026810D01*
X009757Y026810D01*
X009898Y026751D01*
X009992Y026657D01*
X010087Y026751D01*
X010228Y026810D01*
X010382Y026810D01*
X010523Y026751D01*
X010572Y026702D01*
X010572Y026762D01*
X009871Y027463D01*
X009757Y027415D01*
X009603Y027415D01*
X009462Y027474D01*
X009389Y027546D01*
X009434Y027502D02*
X009044Y027502D01*
X009094Y027343D02*
X009991Y027343D01*
X010149Y027185D02*
X009094Y027185D01*
X009094Y027026D02*
X010308Y027026D01*
X010466Y026868D02*
X009094Y026868D01*
X009094Y026709D02*
X009420Y026709D01*
X009315Y026551D02*
X009094Y026551D01*
X009094Y026392D02*
X009295Y026392D01*
X009940Y026709D02*
X010045Y026709D01*
X010565Y026709D02*
X010572Y026709D01*
X011132Y026709D02*
X012610Y026709D01*
X012610Y026551D02*
X011132Y026551D01*
X011132Y026392D02*
X012610Y026392D01*
X012610Y026234D02*
X011132Y026234D01*
X011132Y026075D02*
X012610Y026075D01*
X012610Y025917D02*
X011132Y025917D01*
X011132Y025758D02*
X012610Y025758D01*
X012755Y025608D02*
X013150Y025608D01*
X013150Y025041D01*
X012710Y024601D01*
X012710Y024792D01*
X012755Y024837D01*
X012755Y025608D01*
X012755Y025600D02*
X013150Y025600D01*
X013150Y025441D02*
X012755Y025441D01*
X012755Y025283D02*
X013150Y025283D01*
X013150Y025124D02*
X012755Y025124D01*
X012755Y024966D02*
X013075Y024966D01*
X012916Y024807D02*
X012725Y024807D01*
X012710Y024649D02*
X012758Y024649D01*
X013766Y024490D02*
X014816Y024490D01*
X014816Y024332D02*
X014755Y024332D01*
X015330Y024114D02*
X015429Y024114D01*
X015886Y024114D01*
X015900Y024118D01*
X015900Y023614D01*
X015874Y023658D01*
X015538Y023994D01*
X015330Y024114D01*
X015429Y024173D02*
X015429Y024173D01*
X015429Y024332D02*
X015429Y024332D01*
X015503Y024015D02*
X015900Y024015D01*
X015900Y023856D02*
X015677Y023856D01*
X015835Y023698D02*
X015900Y023698D01*
X018960Y022905D02*
X020139Y022905D01*
X019981Y022747D02*
X018960Y022747D01*
X018960Y022588D02*
X019822Y022588D01*
X019664Y022430D02*
X018960Y022430D01*
X018960Y022271D02*
X019505Y022271D01*
X019347Y022113D02*
X018960Y022113D01*
X018960Y021954D02*
X019188Y021954D01*
X019030Y021796D02*
X018960Y021796D01*
X019188Y023064D02*
X020298Y023064D01*
X020456Y023222D02*
X019388Y023222D01*
X019440Y023381D02*
X020615Y023381D01*
X020773Y023539D02*
X019460Y023539D01*
X019460Y023698D02*
X020932Y023698D01*
X021090Y023856D02*
X019460Y023856D01*
X019460Y024015D02*
X021249Y024015D01*
X021407Y024173D02*
X021068Y024173D01*
X021094Y024332D02*
X021816Y024332D01*
X021816Y024425D02*
X022429Y024425D01*
X022429Y024425D01*
X021816Y024425D01*
X021816Y024490D02*
X021094Y024490D01*
X021071Y024649D02*
X021287Y024649D01*
X021187Y024807D02*
X021094Y024807D01*
X021094Y024966D02*
X021170Y024966D01*
X021221Y025124D02*
X021094Y025124D01*
X021094Y025283D02*
X021197Y025283D01*
X021170Y025441D02*
X021094Y025441D01*
X021094Y025600D02*
X021211Y025600D01*
X021207Y025758D02*
X021094Y025758D01*
X021094Y025917D02*
X021170Y025917D01*
X021200Y026075D02*
X021094Y026075D01*
X021094Y026234D02*
X021218Y026234D01*
X021170Y026392D02*
X021094Y026392D01*
X021094Y026551D02*
X021190Y026551D01*
X021228Y026709D02*
X021094Y026709D01*
X021094Y026868D02*
X021170Y026868D01*
X021180Y027026D02*
X021094Y027026D01*
X021079Y027185D02*
X021251Y027185D01*
X021172Y027343D02*
X021094Y027343D01*
X021094Y027502D02*
X021170Y027502D01*
X021246Y027660D02*
X021060Y027660D01*
X021094Y027819D02*
X021182Y027819D01*
X021170Y027977D02*
X021094Y027977D01*
X021084Y028136D02*
X021225Y028136D01*
X021193Y028294D02*
X021094Y028294D01*
X021094Y028453D02*
X021170Y028453D01*
X021215Y028611D02*
X021094Y028611D01*
X021094Y028770D02*
X021203Y028770D01*
X021170Y028928D02*
X021094Y028928D01*
X021094Y029087D02*
X021205Y029087D01*
X021213Y029245D02*
X021094Y029245D01*
X021094Y029404D02*
X021170Y029404D01*
X021195Y029562D02*
X021094Y029562D01*
X021094Y029721D02*
X021223Y029721D01*
X021170Y029879D02*
X021094Y029879D01*
X021094Y030038D02*
X021185Y030038D01*
X021239Y030196D02*
X021091Y030196D01*
X021094Y030355D02*
X021170Y030355D01*
X021175Y030513D02*
X021094Y030513D01*
X021066Y030672D02*
X021257Y030672D01*
X021178Y030830D02*
X021094Y030830D01*
X021094Y030989D02*
X021170Y030989D01*
X021233Y031147D02*
X021073Y031147D01*
X021094Y031306D02*
X021188Y031306D01*
X021170Y031464D02*
X021094Y031464D01*
X021094Y031623D02*
X021220Y031623D01*
X021198Y031781D02*
X021094Y031781D01*
X021094Y031940D02*
X021170Y031940D01*
X021138Y032098D02*
X021210Y032098D01*
X021190Y032257D02*
X021349Y032257D01*
X021174Y032415D02*
X027436Y032415D01*
X027352Y032574D02*
X027534Y032574D01*
X027533Y032732D02*
X027628Y032732D01*
X027626Y032891D02*
X027628Y032891D01*
X027587Y033525D02*
X027678Y033525D01*
X027698Y033683D02*
X027438Y033683D01*
X026971Y033842D02*
X028200Y033842D01*
X028200Y034000D02*
X027050Y034000D01*
X027050Y034317D02*
X028200Y034317D01*
X028200Y034159D02*
X026540Y034159D01*
X026500Y034159D02*
X025320Y034159D01*
X025320Y034317D02*
X025990Y034317D01*
X025990Y034120D02*
X025990Y033920D01*
X026300Y033610D01*
X026500Y033610D01*
X026500Y034120D01*
X025990Y034120D01*
X025990Y034000D02*
X025320Y034000D01*
X025262Y033842D02*
X026069Y033842D01*
X026227Y033683D02*
X025103Y033683D01*
X024827Y033525D02*
X026433Y033525D01*
X026500Y033683D02*
X026540Y033683D01*
X026540Y033842D02*
X026500Y033842D01*
X026500Y034000D02*
X026540Y034000D01*
X026367Y033366D02*
X024893Y033366D01*
X024922Y033208D02*
X026338Y033208D01*
X026338Y033049D02*
X024922Y033049D01*
X024866Y032891D02*
X026394Y032891D01*
X026487Y032732D02*
X024773Y032732D01*
X024592Y032574D02*
X026668Y032574D01*
X026886Y032257D02*
X022974Y032257D01*
X023634Y032891D02*
X020882Y032891D01*
X020882Y033049D02*
X023578Y033049D01*
X023578Y033208D02*
X020832Y033208D01*
X020832Y033366D02*
X023607Y033366D01*
X023673Y033525D02*
X020832Y033525D01*
X020832Y033453D02*
X020832Y033675D01*
X020820Y033721D01*
X020796Y033762D01*
X020762Y033795D01*
X020721Y033819D01*
X020676Y033831D01*
X020473Y033831D01*
X020473Y033453D01*
X020832Y033453D01*
X020830Y033683D02*
X023822Y033683D01*
X024218Y033842D02*
X015222Y033842D01*
X015327Y033683D02*
X020080Y033683D01*
X020078Y033525D02*
X015404Y033525D01*
X015446Y033366D02*
X020078Y033366D01*
X020078Y033208D02*
X015461Y033208D01*
X015461Y033049D02*
X020028Y033049D01*
X020028Y032891D02*
X015421Y032891D01*
X015365Y032732D02*
X020028Y032732D01*
X020028Y032574D02*
X015273Y032574D01*
X015128Y032415D02*
X020067Y032415D01*
X019899Y032257D02*
X015961Y032257D01*
X016092Y032098D02*
X019768Y032098D01*
X020882Y032732D02*
X023727Y032732D01*
X023908Y032574D02*
X021076Y032574D01*
X021761Y032257D02*
X021884Y032257D01*
X020473Y033525D02*
X020437Y033525D01*
X020437Y033683D02*
X020473Y033683D01*
X017587Y031940D02*
X016092Y031940D01*
X016092Y031781D02*
X017390Y031781D01*
X017232Y031623D02*
X016092Y031623D01*
X016092Y031464D02*
X017073Y031464D01*
X016931Y031306D02*
X016092Y031306D01*
X016071Y031147D02*
X016900Y031147D01*
X016900Y030989D02*
X016092Y030989D01*
X016092Y030830D02*
X016900Y030830D01*
X016900Y030672D02*
X016065Y030672D01*
X016092Y030513D02*
X016900Y030513D01*
X016900Y030355D02*
X016092Y030355D01*
X016089Y030196D02*
X016900Y030196D01*
X016900Y030038D02*
X016092Y030038D01*
X016092Y029879D02*
X016900Y029879D01*
X016900Y029721D02*
X016092Y029721D01*
X016092Y029562D02*
X016900Y029562D01*
X016900Y029404D02*
X016092Y029404D01*
X016092Y029245D02*
X016900Y029245D01*
X016900Y029087D02*
X016092Y029087D01*
X016092Y028928D02*
X016900Y028928D01*
X016900Y028770D02*
X016092Y028770D01*
X016092Y028611D02*
X016900Y028611D01*
X016900Y028453D02*
X016092Y028453D01*
X016092Y028294D02*
X016900Y028294D01*
X016900Y028136D02*
X016615Y028136D01*
X016774Y027977D02*
X016900Y027977D01*
X019460Y024173D02*
X019664Y024173D01*
X022075Y021424D02*
X022075Y019657D01*
X022007Y019685D01*
X021853Y019685D01*
X021712Y019626D01*
X021604Y019518D01*
X021545Y019377D01*
X021545Y019353D01*
X020960Y018768D01*
X020960Y020309D01*
X022075Y021424D01*
X022075Y021320D02*
X021971Y021320D01*
X022075Y021162D02*
X021813Y021162D01*
X021654Y021003D02*
X022075Y021003D01*
X022075Y020845D02*
X021496Y020845D01*
X021337Y020686D02*
X022075Y020686D01*
X022075Y020528D02*
X021179Y020528D01*
X021020Y020369D02*
X022075Y020369D01*
X022075Y020211D02*
X020960Y020211D01*
X020960Y020052D02*
X022075Y020052D01*
X022075Y019894D02*
X020960Y019894D01*
X020960Y019735D02*
X022075Y019735D01*
X021662Y019577D02*
X020960Y019577D01*
X020960Y019418D02*
X021562Y019418D01*
X021451Y019260D02*
X020960Y019260D01*
X020960Y019101D02*
X021293Y019101D01*
X021134Y018943D02*
X020960Y018943D01*
X020960Y018784D02*
X020976Y018784D01*
X021218Y018150D02*
X021601Y018150D01*
X021658Y018207D02*
X021523Y018072D01*
X021450Y017895D01*
X021450Y015955D01*
X021523Y015778D01*
X021658Y015643D01*
X021835Y015570D01*
X022075Y015570D01*
X022075Y015205D01*
X022148Y015028D01*
X022283Y014893D01*
X022460Y014820D01*
X023200Y014820D01*
X023200Y012905D01*
X022255Y012905D01*
X022120Y012770D01*
X022120Y011080D01*
X022255Y010945D01*
X023200Y010945D01*
X023200Y009449D01*
X023148Y009501D01*
X023007Y009560D01*
X022853Y009560D01*
X022712Y009501D01*
X022604Y009393D01*
X022545Y009252D01*
X022545Y009161D01*
X022462Y009126D01*
X022354Y009018D01*
X022295Y008877D01*
X022295Y008723D01*
X022354Y008582D01*
X022400Y008536D01*
X022400Y008124D01*
X022322Y008202D01*
X021751Y008202D01*
X021756Y008207D01*
X021815Y008348D01*
X021815Y008502D01*
X021756Y008643D01*
X021648Y008751D01*
X021507Y008810D01*
X021353Y008810D01*
X021212Y008751D01*
X021104Y008643D01*
X021045Y008502D01*
X021045Y008348D01*
X021104Y008207D01*
X021150Y008161D01*
X021150Y008154D01*
X021035Y008202D01*
X020825Y008202D01*
X020632Y008122D01*
X020483Y007973D01*
X020430Y007845D01*
X020377Y007973D01*
X020228Y008122D01*
X020035Y008202D01*
X019952Y008202D01*
X020503Y008753D01*
X020602Y008852D01*
X020655Y008980D01*
X020655Y009575D01*
X020705Y009525D01*
X021407Y009525D01*
X021473Y009590D01*
X021479Y009587D01*
X021524Y009575D01*
X021756Y009575D01*
X021756Y010002D01*
X021852Y010002D01*
X021852Y009575D01*
X022084Y009575D01*
X022129Y009587D01*
X022170Y009611D01*
X022204Y009644D01*
X022228Y009685D01*
X022240Y009731D01*
X022240Y010002D01*
X021852Y010002D01*
X021852Y010098D01*
X021756Y010098D01*
X021756Y010525D01*
X021524Y010525D01*
X021479Y010513D01*
X021473Y010510D01*
X021407Y010575D01*
X021342Y010575D01*
X021398Y010599D01*
X021506Y010707D01*
X021565Y010848D01*
X021565Y011002D01*
X021506Y011143D01*
X021398Y011251D01*
X021314Y011286D01*
X021288Y011312D01*
X021160Y011365D01*
X020890Y011365D01*
X020890Y011405D01*
X020830Y011465D01*
X020890Y011525D01*
X020890Y011576D01*
X020993Y011618D01*
X021092Y011717D01*
X021253Y011878D01*
X021253Y011878D01*
X021352Y011977D01*
X021405Y012105D01*
X021405Y013275D01*
X021407Y013275D01*
X021473Y013340D01*
X021479Y013337D01*
X021524Y013325D01*
X021756Y013325D01*
X021756Y013752D01*
X021852Y013752D01*
X021852Y013325D01*
X022084Y013325D01*
X022129Y013337D01*
X022170Y013361D01*
X022204Y013394D01*
X022228Y013435D01*
X022240Y013481D01*
X022240Y013752D01*
X021852Y013752D01*
X021852Y013848D01*
X021756Y013848D01*
X021756Y014275D01*
X021524Y014275D01*
X021479Y014263D01*
X021473Y014260D01*
X021407Y014325D01*
X020705Y014325D01*
X020570Y014191D01*
X020570Y014150D01*
X020450Y014150D01*
X020421Y014179D01*
X020410Y014206D01*
X020410Y014526D01*
X020462Y014474D01*
X020603Y014415D01*
X020757Y014415D01*
X020898Y014474D01*
X021006Y014582D01*
X021065Y014723D01*
X021065Y014877D01*
X021050Y014913D01*
X021050Y016550D01*
X021055Y016555D01*
X021055Y017245D01*
X020920Y017380D01*
X020690Y017380D01*
X020690Y017622D01*
X021983Y018915D01*
X022007Y018915D01*
X022075Y018943D01*
X022075Y018280D01*
X021835Y018280D01*
X021658Y018207D01*
X021490Y017992D02*
X021060Y017992D01*
X020901Y017833D02*
X021450Y017833D01*
X021450Y017675D02*
X020743Y017675D01*
X020690Y017516D02*
X021450Y017516D01*
X021450Y017358D02*
X020943Y017358D01*
X021055Y017199D02*
X021450Y017199D01*
X021450Y017041D02*
X021055Y017041D01*
X021055Y016882D02*
X021450Y016882D01*
X021450Y016724D02*
X021055Y016724D01*
X021055Y016565D02*
X021450Y016565D01*
X021450Y016407D02*
X021050Y016407D01*
X021050Y016248D02*
X021450Y016248D01*
X021450Y016090D02*
X021050Y016090D01*
X021050Y015931D02*
X021460Y015931D01*
X021529Y015773D02*
X021050Y015773D01*
X021050Y015614D02*
X021728Y015614D01*
X022075Y015456D02*
X021050Y015456D01*
X021050Y015297D02*
X022075Y015297D01*
X022102Y015139D02*
X021050Y015139D01*
X021050Y014980D02*
X022196Y014980D01*
X022456Y014822D02*
X021065Y014822D01*
X021040Y014663D02*
X023200Y014663D01*
X023200Y014505D02*
X020929Y014505D01*
X020570Y014188D02*
X020418Y014188D01*
X020410Y014346D02*
X023200Y014346D01*
X023200Y014188D02*
X022215Y014188D01*
X022204Y014206D02*
X022170Y014239D01*
X022129Y014263D01*
X022084Y014275D01*
X021852Y014275D01*
X021852Y013848D01*
X022240Y013848D01*
X022240Y014119D01*
X022228Y014165D01*
X022204Y014206D01*
X022240Y014029D02*
X023200Y014029D01*
X023200Y013871D02*
X022240Y013871D01*
X022240Y013712D02*
X023200Y013712D01*
X023200Y013554D02*
X022240Y013554D01*
X022204Y013395D02*
X023200Y013395D01*
X023200Y013237D02*
X021405Y013237D01*
X021405Y013078D02*
X023200Y013078D01*
X023200Y012920D02*
X021405Y012920D01*
X021405Y012761D02*
X022120Y012761D01*
X022120Y012603D02*
X021405Y012603D01*
X021405Y012444D02*
X022120Y012444D01*
X022120Y012286D02*
X021405Y012286D01*
X021405Y012127D02*
X022120Y012127D01*
X022120Y011969D02*
X021343Y011969D01*
X021185Y011810D02*
X022120Y011810D01*
X022120Y011652D02*
X021026Y011652D01*
X021092Y011717D02*
X021092Y011717D01*
X020858Y011493D02*
X022120Y011493D01*
X022120Y011335D02*
X021233Y011335D01*
X021473Y011176D02*
X022120Y011176D01*
X022182Y011018D02*
X021558Y011018D01*
X021565Y010859D02*
X023200Y010859D01*
X023200Y010701D02*
X021500Y010701D01*
X021440Y010542D02*
X023200Y010542D01*
X023200Y010384D02*
X022236Y010384D01*
X022240Y010369D02*
X022228Y010415D01*
X022204Y010456D01*
X022170Y010489D01*
X022129Y010513D01*
X022084Y010525D01*
X021852Y010525D01*
X021852Y010098D01*
X022240Y010098D01*
X022240Y010369D01*
X022240Y010225D02*
X023200Y010225D01*
X023200Y010067D02*
X021852Y010067D01*
X021852Y010225D02*
X021756Y010225D01*
X021756Y010384D02*
X021852Y010384D01*
X021852Y009908D02*
X021756Y009908D01*
X021756Y009750D02*
X021852Y009750D01*
X021852Y009591D02*
X021756Y009591D01*
X022136Y009591D02*
X023200Y009591D01*
X023200Y009750D02*
X022240Y009750D01*
X022240Y009908D02*
X023200Y009908D01*
X022643Y009433D02*
X020655Y009433D01*
X020655Y009274D02*
X022554Y009274D01*
X022451Y009116D02*
X020655Y009116D01*
X020645Y008957D02*
X022328Y008957D01*
X022295Y008799D02*
X021534Y008799D01*
X021326Y008799D02*
X020548Y008799D01*
X020390Y008640D02*
X021102Y008640D01*
X021045Y008482D02*
X020231Y008482D01*
X020073Y008323D02*
X021056Y008323D01*
X021125Y008165D02*
X021146Y008165D01*
X020735Y008165D02*
X020125Y008165D01*
X020344Y008006D02*
X020516Y008006D01*
X020431Y007848D02*
X020429Y007848D01*
X020430Y007505D02*
X020483Y007377D01*
X020632Y007228D01*
X020760Y007175D01*
X020632Y007122D01*
X020483Y006973D01*
X020403Y006780D01*
X020403Y006736D01*
X020395Y006787D01*
X020372Y006858D01*
X020338Y006925D01*
X020294Y006986D01*
X020241Y007039D01*
X020180Y007083D01*
X020113Y007117D01*
X020042Y007140D01*
X019991Y007148D01*
X020035Y007148D01*
X020228Y007228D01*
X020377Y007377D01*
X020430Y007505D01*
X020372Y007372D02*
X020488Y007372D01*
X020430Y007175D02*
X020430Y008300D01*
X019717Y008957D02*
X019456Y008957D01*
X019458Y008817D02*
X019453Y009301D01*
X019453Y009356D01*
X019453Y009357D01*
X019453Y009358D01*
X019431Y009408D01*
X019411Y009459D01*
X019410Y009460D01*
X019409Y009461D01*
X019370Y009499D01*
X019121Y009748D01*
X019282Y009748D01*
X019348Y009814D01*
X019354Y009810D01*
X019399Y009798D01*
X019621Y009798D01*
X019621Y010157D01*
X019658Y010157D01*
X019658Y009798D01*
X019880Y009798D01*
X019926Y009810D01*
X019955Y009827D01*
X019955Y009195D01*
X019513Y008753D01*
X019506Y008768D01*
X019458Y008817D01*
X019476Y008799D02*
X019559Y008799D01*
X019455Y009116D02*
X019876Y009116D01*
X019955Y009274D02*
X019453Y009274D01*
X019421Y009433D02*
X019955Y009433D01*
X019955Y009591D02*
X019278Y009591D01*
X019284Y009750D02*
X019955Y009750D01*
X019658Y009908D02*
X019621Y009908D01*
X019621Y010067D02*
X019658Y010067D01*
X019658Y010193D02*
X019621Y010193D01*
X019621Y010552D01*
X019399Y010552D01*
X019354Y010540D01*
X019348Y010536D01*
X019282Y010602D01*
X018773Y010602D01*
X018756Y010643D01*
X018648Y010751D01*
X018507Y010810D01*
X018353Y010810D01*
X018342Y010805D01*
X017268Y011880D01*
X017371Y011983D01*
X017429Y012041D01*
X017828Y011641D01*
X017907Y011563D01*
X018009Y011520D01*
X018291Y011520D01*
X018337Y011474D01*
X018478Y011415D01*
X018632Y011415D01*
X018773Y011474D01*
X018881Y011582D01*
X018940Y011723D01*
X018940Y011814D01*
X019023Y011849D01*
X019131Y011957D01*
X019190Y012098D01*
X019190Y012252D01*
X019186Y012261D01*
X019256Y012332D01*
X019315Y012473D01*
X019315Y012627D01*
X019256Y012768D01*
X019148Y012876D01*
X019079Y012905D01*
X019131Y012957D01*
X019190Y013098D01*
X019190Y013164D01*
X019295Y013269D01*
X019472Y013269D01*
X019607Y013404D01*
X019607Y014027D01*
X019541Y014093D01*
X019545Y014099D01*
X019557Y014144D01*
X019557Y014366D01*
X019198Y014366D01*
X019198Y014403D01*
X019162Y014403D01*
X019162Y014781D01*
X018959Y014781D01*
X018914Y014769D01*
X018873Y014745D01*
X018839Y014712D01*
X018815Y014671D01*
X018803Y014625D01*
X018803Y014403D01*
X019162Y014403D01*
X019162Y014366D01*
X018803Y014366D01*
X018803Y014144D01*
X018815Y014099D01*
X018819Y014093D01*
X018753Y014027D01*
X018753Y013691D01*
X018545Y013900D01*
X018319Y014125D01*
X018278Y014149D01*
X018232Y014161D01*
X018185Y014161D01*
X018139Y014149D01*
X018098Y014125D01*
X018091Y014118D01*
X017876Y014334D01*
X017798Y014412D01*
X017695Y014455D01*
X016991Y014455D01*
X017499Y014964D01*
X017696Y014767D01*
X017742Y014721D01*
X017742Y014721D01*
X017974Y014489D01*
X018113Y014350D01*
X018304Y014350D01*
X018856Y014902D01*
X018856Y014929D01*
X019710Y015782D01*
X019710Y014206D01*
X019675Y014122D01*
X019675Y013968D01*
X019734Y013827D01*
X019842Y013719D01*
X019926Y013684D01*
X020008Y013602D01*
X020107Y013503D01*
X020235Y013450D01*
X020570Y013450D01*
X020570Y013409D01*
X020692Y013288D01*
X020684Y013290D01*
X020333Y013290D01*
X020333Y012883D01*
X020197Y012883D01*
X020197Y013290D01*
X019846Y013290D01*
X019801Y013278D01*
X019759Y013254D01*
X019726Y013221D01*
X019702Y013179D01*
X019690Y013134D01*
X019690Y012883D01*
X020197Y012883D01*
X020197Y012747D01*
X019690Y012747D01*
X019690Y012496D01*
X019702Y012451D01*
X019726Y012409D01*
X019735Y012400D01*
X019640Y012305D01*
X019640Y011525D01*
X019700Y011465D01*
X019640Y011405D01*
X019640Y010625D01*
X019713Y010552D01*
X019658Y010552D01*
X019658Y010193D01*
X019658Y010225D02*
X019621Y010225D01*
X019621Y010384D02*
X019658Y010384D01*
X019658Y010542D02*
X019621Y010542D01*
X019640Y010701D02*
X018699Y010701D01*
X018289Y010859D02*
X019640Y010859D01*
X019640Y011018D02*
X018130Y011018D01*
X017972Y011176D02*
X019640Y011176D01*
X019640Y011335D02*
X017813Y011335D01*
X017655Y011493D02*
X018318Y011493D01*
X018792Y011493D02*
X019672Y011493D01*
X019640Y011652D02*
X018910Y011652D01*
X018940Y011810D02*
X019640Y011810D01*
X019640Y011969D02*
X019136Y011969D01*
X019190Y012127D02*
X019640Y012127D01*
X019640Y012286D02*
X019210Y012286D01*
X019303Y012444D02*
X019706Y012444D01*
X019690Y012603D02*
X019315Y012603D01*
X019259Y012761D02*
X020197Y012761D01*
X020197Y012920D02*
X020333Y012920D01*
X020333Y013078D02*
X020197Y013078D01*
X020197Y013237D02*
X020333Y013237D01*
X020585Y013395D02*
X019598Y013395D01*
X019607Y013554D02*
X020057Y013554D01*
X019858Y013712D02*
X019607Y013712D01*
X019607Y013871D02*
X019716Y013871D01*
X019675Y014029D02*
X019605Y014029D01*
X019557Y014188D02*
X019702Y014188D01*
X019710Y014346D02*
X019557Y014346D01*
X019557Y014403D02*
X019557Y014625D01*
X019545Y014671D01*
X019521Y014712D01*
X019487Y014745D01*
X019446Y014769D01*
X019401Y014781D01*
X019198Y014781D01*
X019198Y014403D01*
X019557Y014403D01*
X019557Y014505D02*
X019710Y014505D01*
X019710Y014663D02*
X019547Y014663D01*
X019710Y014822D02*
X018776Y014822D01*
X018813Y014663D02*
X018617Y014663D01*
X018459Y014505D02*
X018803Y014505D01*
X018803Y014346D02*
X017864Y014346D01*
X017876Y014334D02*
X017876Y014334D01*
X017974Y014489D02*
X017974Y014489D01*
X017958Y014505D02*
X017040Y014505D01*
X017199Y014663D02*
X017800Y014663D01*
X017696Y014767D02*
X017696Y014767D01*
X017641Y014822D02*
X017357Y014822D01*
X018022Y014188D02*
X018803Y014188D01*
X018755Y014029D02*
X018415Y014029D01*
X018545Y013900D02*
X018441Y013796D01*
X018441Y013796D01*
X018545Y013900D01*
X018574Y013871D02*
X018753Y013871D01*
X018753Y013712D02*
X018732Y013712D01*
X018516Y013871D02*
X018516Y013871D01*
X019162Y014505D02*
X019198Y014505D01*
X019198Y014663D02*
X019162Y014663D01*
X018908Y014980D02*
X019710Y014980D01*
X019710Y015139D02*
X019066Y015139D01*
X019225Y015297D02*
X019710Y015297D01*
X019710Y015456D02*
X019383Y015456D01*
X019542Y015614D02*
X019710Y015614D01*
X019700Y015773D02*
X019710Y015773D01*
X020380Y016900D02*
X020380Y017750D01*
X021930Y019300D01*
X022073Y018943D02*
X022075Y018943D01*
X022075Y018784D02*
X021852Y018784D01*
X021694Y018626D02*
X022075Y018626D01*
X022075Y018467D02*
X021535Y018467D01*
X021377Y018309D02*
X022075Y018309D01*
X019650Y019041D02*
X019650Y019374D01*
X018344Y018068D01*
X018375Y018068D01*
X018375Y017690D01*
X018412Y017690D01*
X018412Y018068D01*
X018614Y018068D01*
X018660Y018056D01*
X018677Y018046D01*
X018693Y018084D01*
X019650Y019041D01*
X019650Y019101D02*
X019377Y019101D01*
X019219Y018943D02*
X019552Y018943D01*
X019393Y018784D02*
X019060Y018784D01*
X018902Y018626D02*
X019235Y018626D01*
X019076Y018467D02*
X018743Y018467D01*
X018585Y018309D02*
X018918Y018309D01*
X018759Y018150D02*
X018426Y018150D01*
X018412Y017992D02*
X018375Y017992D01*
X018375Y017833D02*
X018412Y017833D01*
X019536Y019260D02*
X019650Y019260D01*
X020410Y014505D02*
X020431Y014505D01*
X019742Y013237D02*
X019262Y013237D01*
X019182Y013078D02*
X019690Y013078D01*
X019690Y012920D02*
X019094Y012920D01*
X017818Y011652D02*
X017496Y011652D01*
X017338Y011810D02*
X017659Y011810D01*
X017501Y011969D02*
X017356Y011969D01*
X016454Y011066D02*
X016433Y011045D01*
X018089Y009389D01*
X018089Y009389D01*
X018150Y009327D01*
X018150Y009370D01*
X016454Y011066D01*
X016460Y011018D02*
X016503Y011018D01*
X016618Y010859D02*
X016661Y010859D01*
X016777Y010701D02*
X016820Y010701D01*
X016935Y010542D02*
X016978Y010542D01*
X017094Y010384D02*
X017137Y010384D01*
X017252Y010225D02*
X017295Y010225D01*
X017411Y010067D02*
X017454Y010067D01*
X017569Y009908D02*
X017612Y009908D01*
X017728Y009750D02*
X017771Y009750D01*
X017886Y009591D02*
X017929Y009591D01*
X018045Y009433D02*
X018088Y009433D01*
X019342Y010542D02*
X019363Y010542D01*
X021758Y008640D02*
X022330Y008640D01*
X022400Y008482D02*
X021815Y008482D01*
X021804Y008323D02*
X022400Y008323D01*
X022400Y008165D02*
X022359Y008165D01*
X020667Y007214D02*
X020193Y007214D01*
X020218Y007055D02*
X020565Y007055D01*
X020430Y007175D02*
X019930Y006675D01*
X019948Y006657D02*
X019948Y006198D01*
X019968Y006198D01*
X020042Y006210D01*
X020113Y006233D01*
X020180Y006267D01*
X020241Y006311D01*
X020294Y006364D01*
X020338Y006425D01*
X020372Y006492D01*
X020395Y006563D01*
X020403Y006614D01*
X020403Y006570D01*
X020438Y006487D01*
X020398Y006447D01*
X020325Y006270D01*
X020325Y005228D01*
X020299Y005243D01*
X020254Y005255D01*
X020000Y005255D01*
X020000Y004550D01*
X019860Y004550D01*
X019860Y005255D01*
X019606Y005255D01*
X019561Y005243D01*
X019519Y005219D01*
X019486Y005186D01*
X019462Y005144D01*
X019460Y005136D01*
X019460Y005170D01*
X019325Y005305D01*
X019280Y005305D01*
X019280Y006280D01*
X019377Y006377D01*
X019457Y006570D01*
X019457Y006614D01*
X019465Y006563D01*
X019488Y006492D01*
X019522Y006425D01*
X019566Y006364D01*
X019619Y006311D01*
X019680Y006267D01*
X019747Y006233D01*
X019818Y006210D01*
X019892Y006198D01*
X019912Y006198D01*
X019912Y006657D01*
X019948Y006657D01*
X019948Y006580D02*
X019912Y006580D01*
X019912Y006421D02*
X019948Y006421D01*
X019948Y006263D02*
X019912Y006263D01*
X019689Y006263D02*
X019280Y006263D01*
X019280Y006104D02*
X020325Y006104D01*
X020325Y005946D02*
X019280Y005946D01*
X019280Y005787D02*
X020325Y005787D01*
X020325Y005629D02*
X019280Y005629D01*
X019280Y005470D02*
X020325Y005470D01*
X020325Y005312D02*
X019280Y005312D01*
X019460Y005153D02*
X019467Y005153D01*
X019860Y005153D02*
X020000Y005153D01*
X020000Y004995D02*
X019860Y004995D01*
X019860Y004836D02*
X020000Y004836D01*
X020000Y004678D02*
X019860Y004678D01*
X020171Y006263D02*
X020325Y006263D01*
X020335Y006421D02*
X020387Y006421D01*
X020398Y006580D02*
X020403Y006580D01*
X020403Y006738D02*
X020403Y006738D01*
X020352Y006897D02*
X020451Y006897D01*
X019462Y006580D02*
X019457Y006580D01*
X019395Y006421D02*
X019525Y006421D01*
X015395Y011493D02*
X013547Y011493D01*
X013706Y011335D02*
X015237Y011335D01*
X015190Y011288D02*
X015190Y011288D01*
X015078Y011176D02*
X013864Y011176D01*
X013752Y011288D02*
X013752Y011288D01*
X013984Y011056D02*
X013984Y011056D01*
X014023Y011018D02*
X014920Y011018D01*
X014761Y010859D02*
X014181Y010859D01*
X014269Y010701D02*
X014603Y010701D01*
X014541Y010542D02*
X014352Y010542D01*
X014267Y010384D02*
X014605Y010384D01*
X014650Y010225D02*
X014109Y010225D01*
X014072Y010225D02*
X014072Y010225D01*
X013987Y010311D02*
X013987Y010311D01*
X013950Y010067D02*
X014650Y010067D01*
X014650Y009908D02*
X013843Y009908D01*
X014001Y009750D02*
X014650Y009750D01*
X014650Y009591D02*
X014160Y009591D01*
X014318Y009433D02*
X014650Y009433D01*
X014650Y009274D02*
X014477Y009274D01*
X014635Y009116D02*
X014650Y009116D01*
X010700Y012854D02*
X010551Y012705D01*
X010249Y012705D01*
X010216Y012691D01*
X010291Y012766D01*
X010540Y013015D01*
X010643Y012911D01*
X010700Y012854D01*
X010635Y012920D02*
X010444Y012920D01*
X010286Y012761D02*
X010607Y012761D01*
X010087Y012603D02*
X005660Y012603D01*
X005660Y012444D02*
X009928Y012444D01*
X009770Y012286D02*
X005660Y012286D01*
X005660Y012127D02*
X009611Y012127D01*
X009453Y011969D02*
X005660Y011969D01*
X005660Y011810D02*
X009294Y011810D01*
X009136Y011652D02*
X005660Y011652D01*
X005660Y011493D02*
X008977Y011493D01*
X008900Y011335D02*
X005660Y011335D01*
X005660Y011176D02*
X008900Y011176D01*
X008877Y011018D02*
X005660Y011018D01*
X005660Y010859D02*
X008718Y010859D01*
X008560Y010701D02*
X005660Y010701D01*
X005660Y010542D02*
X008401Y010542D01*
X008243Y010384D02*
X005660Y010384D01*
X005660Y010225D02*
X008084Y010225D01*
X007926Y010067D02*
X005660Y010067D01*
X005660Y009908D02*
X007767Y009908D01*
X007609Y009750D02*
X005660Y009750D01*
X005660Y009591D02*
X007450Y009591D01*
X007292Y009433D02*
X005660Y009433D01*
X005660Y009274D02*
X007133Y009274D01*
X006975Y009116D02*
X005660Y009116D01*
X005660Y008957D02*
X006816Y008957D01*
X006673Y008799D02*
X005660Y008799D01*
X005660Y008640D02*
X006650Y008640D01*
X006650Y008482D02*
X005660Y008482D01*
X005660Y008323D02*
X006650Y008323D01*
X006650Y008165D02*
X005660Y008165D01*
X005660Y008006D02*
X006516Y008006D01*
X006431Y007848D02*
X005660Y007848D01*
X005660Y007689D02*
X006403Y007689D01*
X006420Y007531D02*
X005660Y007531D01*
X005660Y007372D02*
X006488Y007372D01*
X006667Y007214D02*
X005660Y007214D01*
X005660Y007055D02*
X006565Y007055D01*
X006451Y006897D02*
X005660Y006897D01*
X005660Y006738D02*
X006333Y006738D01*
X006174Y006580D02*
X005660Y006580D01*
X005660Y006421D02*
X006016Y006421D01*
X005857Y006263D02*
X005660Y006263D01*
X005660Y006104D02*
X005699Y006104D01*
X009460Y010955D02*
X009460Y011141D01*
X009555Y011046D01*
X009823Y011313D01*
X009849Y011287D01*
X009581Y011020D01*
X009646Y010955D01*
X009460Y010955D01*
X009460Y011018D02*
X009584Y011018D01*
X009685Y011176D02*
X009737Y011176D01*
X009097Y013871D02*
X009013Y013871D01*
X008739Y014029D02*
X008702Y014029D01*
X008702Y014188D02*
X008739Y014188D01*
X008739Y014346D02*
X008702Y014346D01*
X008702Y014505D02*
X008739Y014505D01*
X008739Y014663D02*
X008702Y014663D01*
X009009Y014663D02*
X009014Y014663D01*
X009765Y014663D02*
X009868Y014663D01*
X010086Y014980D02*
X006664Y014980D01*
X006758Y015139D02*
X010132Y015139D01*
X010506Y014188D02*
X010615Y014188D01*
X010097Y016724D02*
X009277Y016724D01*
X009158Y016882D02*
X010065Y016882D01*
X010055Y016925D02*
X010180Y016925D01*
X010189Y017041D02*
X009317Y017041D01*
X009475Y017199D02*
X010348Y017199D01*
X010367Y017041D02*
X010315Y017041D01*
X009150Y019418D02*
X008979Y019418D01*
X008823Y019577D02*
X009150Y019577D01*
X009150Y019735D02*
X009000Y019735D01*
X009074Y019894D02*
X009150Y019894D01*
X009150Y020052D02*
X009090Y020052D01*
X009056Y020211D02*
X009150Y020211D01*
X009150Y020369D02*
X008957Y020369D01*
X008842Y020528D02*
X009150Y020528D01*
X009150Y020686D02*
X009033Y020686D01*
X009111Y020845D02*
X009150Y020845D01*
X009140Y021003D02*
X009150Y021003D01*
X009150Y021162D02*
X009130Y021162D01*
X009150Y021320D02*
X009064Y021320D01*
X009150Y021479D02*
X008918Y021479D01*
X009150Y021637D02*
X006785Y021637D01*
X006785Y021479D02*
X008242Y021479D01*
X008096Y021320D02*
X006785Y021320D01*
X006785Y021162D02*
X008030Y021162D01*
X008020Y021003D02*
X006785Y021003D01*
X006785Y020845D02*
X008049Y020845D01*
X008127Y020686D02*
X006785Y020686D01*
X006785Y020528D02*
X008318Y020528D01*
X008203Y020369D02*
X006785Y020369D01*
X006785Y020211D02*
X008104Y020211D01*
X008070Y020052D02*
X006785Y020052D01*
X006785Y019894D02*
X008086Y019894D01*
X008160Y019735D02*
X006785Y019735D01*
X006785Y019577D02*
X008337Y019577D01*
X008181Y019418D02*
X006785Y019418D01*
X006785Y019260D02*
X008071Y019260D01*
X008020Y019101D02*
X006785Y019101D01*
X006785Y018943D02*
X008020Y018943D01*
X007893Y018784D02*
X006785Y018784D01*
X006785Y018626D02*
X007735Y018626D01*
X007576Y018467D02*
X006785Y018467D01*
X006785Y018309D02*
X007525Y018309D01*
X007525Y018150D02*
X007259Y018150D01*
X007370Y017992D02*
X007525Y017992D01*
X007525Y017833D02*
X007410Y017833D01*
X007410Y017675D02*
X007525Y017675D01*
X007525Y017516D02*
X007410Y017516D01*
X007410Y017358D02*
X007525Y017358D01*
X007525Y017199D02*
X007410Y017199D01*
X007410Y017041D02*
X007525Y017041D01*
X007525Y016882D02*
X007410Y016882D01*
X007410Y016724D02*
X007525Y016724D01*
X007525Y016565D02*
X007410Y016565D01*
X007410Y016407D02*
X007525Y016407D01*
X007525Y016248D02*
X007410Y016248D01*
X007410Y016090D02*
X007525Y016090D01*
X007551Y015931D02*
X007400Y015931D01*
X007331Y015773D02*
X007686Y015773D01*
X007845Y015614D02*
X007132Y015614D01*
X006785Y015456D02*
X008003Y015456D01*
X008184Y015297D02*
X006785Y015297D01*
X006404Y014822D02*
X007233Y014822D01*
X007537Y014822D02*
X007573Y014822D01*
X007573Y014663D02*
X007537Y014663D01*
X007537Y014505D02*
X007573Y014505D01*
X006785Y021796D02*
X009177Y021796D01*
X009313Y021954D02*
X006761Y021954D01*
X006671Y022113D02*
X009472Y022113D01*
X009630Y022271D02*
X006422Y022271D01*
X007113Y023325D02*
X007319Y023240D01*
X007541Y023240D01*
X007747Y023325D01*
X007905Y023483D01*
X007990Y023689D01*
X007990Y023911D01*
X007987Y023919D01*
X008193Y024124D01*
X008240Y024238D01*
X008240Y025321D01*
X008337Y025224D01*
X008478Y025165D01*
X008632Y025165D01*
X008773Y025224D01*
X008881Y025332D01*
X008940Y025473D01*
X008940Y025608D01*
X008949Y025608D01*
X008949Y024837D01*
X009084Y024703D01*
X010437Y024703D01*
X010081Y024347D01*
X010076Y024352D01*
X009453Y024352D01*
X009387Y024286D01*
X009381Y024290D01*
X009336Y024302D01*
X009114Y024302D01*
X009114Y023943D01*
X009077Y023943D01*
X009077Y023907D01*
X008699Y023907D01*
X008699Y023704D01*
X008711Y023659D01*
X008735Y023618D01*
X008768Y023584D01*
X008809Y023560D01*
X008855Y023548D01*
X009077Y023548D01*
X009077Y023907D01*
X009114Y023907D01*
X009114Y023548D01*
X009336Y023548D01*
X009381Y023560D01*
X009387Y023564D01*
X009453Y023498D01*
X010076Y023498D01*
X010211Y023633D01*
X010211Y023687D01*
X010214Y023688D01*
X010292Y023766D01*
X011090Y024564D01*
X011132Y024666D01*
X011132Y024753D01*
X011167Y024753D01*
X011167Y024824D01*
X011167Y024824D01*
X011167Y024824D01*
X011167Y024753D01*
X011202Y024753D01*
X011202Y024593D01*
X009814Y023205D01*
X003171Y023205D01*
X002850Y023526D01*
X002865Y023564D01*
X002865Y023786D01*
X002780Y023992D01*
X002622Y024150D01*
X002561Y024175D01*
X002622Y024200D01*
X002780Y024358D01*
X002865Y024564D01*
X002865Y024786D01*
X002780Y024992D01*
X002622Y025150D01*
X002498Y025201D01*
X002501Y025202D01*
X002572Y025239D01*
X002637Y025286D01*
X002694Y025343D01*
X002733Y025397D01*
X002733Y025048D01*
X002795Y024987D01*
X002795Y024973D01*
X002854Y024832D01*
X002962Y024724D01*
X003103Y024665D01*
X003257Y024665D01*
X003398Y024724D01*
X003506Y024832D01*
X003565Y024973D01*
X003565Y024987D01*
X003627Y025048D01*
X003627Y025632D01*
X003584Y025675D01*
X003627Y025718D01*
X003627Y026302D01*
X003492Y026436D01*
X003460Y026436D01*
X003460Y026770D01*
X003628Y026770D01*
X003628Y026323D01*
X003694Y026257D01*
X003690Y026251D01*
X003678Y026206D01*
X003678Y025984D01*
X004037Y025984D01*
X004037Y025947D01*
X004073Y025947D01*
X004073Y025569D01*
X004073Y025403D01*
X004037Y025403D01*
X004037Y025947D01*
X003678Y025947D01*
X003678Y025725D01*
X003690Y025679D01*
X003693Y025675D01*
X003690Y025671D01*
X003678Y025625D01*
X003678Y025403D01*
X004037Y025403D01*
X004037Y025366D01*
X003678Y025366D01*
X003678Y025144D01*
X003690Y025099D01*
X003694Y025093D01*
X003628Y025027D01*
X003628Y024404D01*
X003763Y024269D01*
X004347Y024269D01*
X004482Y024404D01*
X004482Y024495D01*
X005242Y024495D01*
X005377Y024360D01*
X005558Y024285D01*
X005752Y024285D01*
X005933Y024360D01*
X006070Y024497D01*
X006145Y024678D01*
X006145Y024872D01*
X006070Y025053D01*
X005954Y025169D01*
X005957Y025238D01*
X005960Y025244D01*
X005960Y025293D01*
X005962Y025342D01*
X005960Y025349D01*
X005960Y025434D01*
X007127Y026601D01*
X007293Y026601D01*
X007254Y026563D01*
X007167Y026476D01*
X007120Y026362D01*
X007120Y025278D01*
X007113Y025275D01*
X006955Y025117D01*
X006870Y024911D01*
X006870Y024689D01*
X006955Y024483D01*
X007113Y024325D01*
X007174Y024300D01*
X007113Y024275D01*
X006955Y024117D01*
X006870Y023911D01*
X006870Y023689D01*
X006955Y023483D01*
X007113Y023325D01*
X007058Y023381D02*
X002995Y023381D01*
X002855Y023539D02*
X006932Y023539D01*
X006870Y023698D02*
X002865Y023698D01*
X002836Y023856D02*
X006870Y023856D01*
X006913Y024015D02*
X002757Y024015D01*
X002566Y024173D02*
X007011Y024173D01*
X007107Y024332D02*
X005865Y024332D01*
X006063Y024490D02*
X006952Y024490D01*
X006887Y024649D02*
X006133Y024649D01*
X006145Y024807D02*
X006870Y024807D01*
X006892Y024966D02*
X006106Y024966D01*
X005999Y025124D02*
X006962Y025124D01*
X007120Y025283D02*
X005960Y025283D01*
X005967Y025441D02*
X007120Y025441D01*
X007120Y025600D02*
X006126Y025600D01*
X006284Y025758D02*
X007120Y025758D01*
X007120Y025917D02*
X006443Y025917D01*
X006601Y026075D02*
X007120Y026075D01*
X007120Y026234D02*
X006760Y026234D01*
X006918Y026392D02*
X007133Y026392D01*
X007077Y026551D02*
X007242Y026551D01*
X007430Y026300D02*
X007430Y024800D01*
X007930Y024300D02*
X007430Y023800D01*
X007802Y023381D02*
X009990Y023381D01*
X010117Y023539D02*
X010148Y023539D01*
X010224Y023698D02*
X010307Y023698D01*
X010382Y023856D02*
X010465Y023856D01*
X010541Y024015D02*
X010624Y024015D01*
X010699Y024173D02*
X010782Y024173D01*
X010858Y024332D02*
X010941Y024332D01*
X011016Y024490D02*
X011099Y024490D01*
X011125Y024649D02*
X011202Y024649D01*
X011167Y024807D02*
X011167Y024807D01*
X010383Y024649D02*
X008240Y024649D01*
X008240Y024807D02*
X008979Y024807D01*
X008949Y024966D02*
X008240Y024966D01*
X008240Y025124D02*
X008949Y025124D01*
X008949Y025283D02*
X008832Y025283D01*
X008927Y025441D02*
X008949Y025441D01*
X008940Y025600D02*
X008949Y025600D01*
X008569Y026252D02*
X008007Y026252D01*
X007930Y026175D01*
X007930Y024300D01*
X008213Y024173D02*
X008706Y024173D01*
X008711Y024191D02*
X008699Y024146D01*
X008699Y023943D01*
X009077Y023943D01*
X009077Y024302D01*
X008855Y024302D01*
X008809Y024290D01*
X008768Y024266D01*
X008735Y024232D01*
X008711Y024191D01*
X008699Y024015D02*
X008083Y024015D01*
X007990Y023856D02*
X008699Y023856D01*
X008701Y023698D02*
X007990Y023698D01*
X007928Y023539D02*
X009412Y023539D01*
X009114Y023698D02*
X009077Y023698D01*
X009077Y023856D02*
X009114Y023856D01*
X009114Y024015D02*
X009077Y024015D01*
X009077Y024173D02*
X009114Y024173D01*
X009433Y024332D02*
X008240Y024332D01*
X008240Y024490D02*
X010224Y024490D01*
X009831Y023222D02*
X003154Y023222D01*
X002753Y024332D02*
X003700Y024332D01*
X003628Y024490D02*
X002835Y024490D01*
X002865Y024649D02*
X003628Y024649D01*
X003628Y024807D02*
X003482Y024807D01*
X003562Y024966D02*
X003628Y024966D01*
X003627Y025124D02*
X003684Y025124D01*
X003678Y025283D02*
X003627Y025283D01*
X003627Y025441D02*
X003678Y025441D01*
X003678Y025600D02*
X003627Y025600D01*
X003627Y025758D02*
X003678Y025758D01*
X003678Y025917D02*
X003627Y025917D01*
X003627Y026075D02*
X003678Y026075D01*
X003686Y026234D02*
X003627Y026234D01*
X003628Y026392D02*
X003536Y026392D01*
X003460Y026551D02*
X003628Y026551D01*
X003628Y026709D02*
X003460Y026709D01*
X004037Y025917D02*
X004073Y025917D01*
X004073Y025947D02*
X004073Y025984D01*
X004432Y025984D01*
X004432Y026206D01*
X004420Y026251D01*
X004416Y026257D01*
X004482Y026323D01*
X004482Y026395D01*
X005242Y026395D01*
X005377Y026260D01*
X005558Y026185D01*
X005752Y026185D01*
X005933Y026260D01*
X006070Y026397D01*
X006145Y026578D01*
X006145Y026744D01*
X006296Y026895D01*
X006629Y026895D01*
X005521Y025787D01*
X005443Y025709D01*
X005400Y025606D01*
X005400Y025307D01*
X005395Y025198D01*
X005377Y025190D01*
X005242Y025055D01*
X004454Y025055D01*
X004416Y025093D01*
X004420Y025099D01*
X004432Y025144D01*
X004432Y025366D01*
X004073Y025366D01*
X004073Y025403D01*
X004432Y025403D01*
X004432Y025625D01*
X004420Y025671D01*
X004417Y025675D01*
X004420Y025679D01*
X004432Y025725D01*
X004432Y025947D01*
X004073Y025947D01*
X004073Y025758D02*
X004037Y025758D01*
X004037Y025600D02*
X004073Y025600D01*
X004073Y025441D02*
X004037Y025441D01*
X004432Y025441D02*
X005400Y025441D01*
X005399Y025283D02*
X004432Y025283D01*
X004426Y025124D02*
X005311Y025124D01*
X005400Y025600D02*
X004432Y025600D01*
X004432Y025758D02*
X005492Y025758D01*
X005651Y025917D02*
X004432Y025917D01*
X004432Y026075D02*
X005809Y026075D01*
X005870Y026234D02*
X005968Y026234D01*
X006065Y026392D02*
X006126Y026392D01*
X006134Y026551D02*
X006285Y026551D01*
X006145Y026709D02*
X006443Y026709D01*
X006602Y026868D02*
X006269Y026868D01*
X005952Y027343D02*
X004994Y027343D01*
X004836Y027185D02*
X005794Y027185D01*
X005768Y027159D02*
X006021Y027412D01*
X006124Y027455D01*
X008093Y027455D01*
X008093Y027511D01*
X008165Y027511D01*
X008165Y027511D01*
X008165Y027511D01*
X008093Y027511D01*
X008093Y027546D01*
X007625Y027546D01*
X007597Y027519D01*
X007013Y027519D01*
X006985Y027546D01*
X005197Y027546D01*
X004606Y026955D01*
X005242Y026955D01*
X005377Y027090D01*
X005558Y027165D01*
X005752Y027165D01*
X005768Y027159D01*
X005313Y027026D02*
X004677Y027026D01*
X004482Y026392D02*
X005245Y026392D01*
X005440Y026234D02*
X004424Y026234D01*
X005153Y027502D02*
X008093Y027502D01*
X007697Y026567D02*
X007430Y026300D01*
X007697Y026567D02*
X008569Y026567D01*
X008278Y025283D02*
X008240Y025283D01*
X010307Y027819D02*
X012610Y027819D01*
X012610Y027977D02*
X010149Y027977D01*
X009876Y028136D02*
X010675Y028136D01*
X010466Y027660D02*
X012610Y027660D01*
X012660Y027502D02*
X010624Y027502D01*
X010783Y027343D02*
X012610Y027343D01*
X012610Y027185D02*
X010941Y027185D01*
X011094Y027026D02*
X012610Y027026D01*
X012610Y026868D02*
X011132Y026868D01*
X011185Y028136D02*
X012610Y028136D01*
X012610Y028294D02*
X011292Y028294D01*
X011354Y028453D02*
X012610Y028453D01*
X012610Y028611D02*
X011512Y028611D01*
X011671Y028770D02*
X012610Y028770D01*
X012610Y028928D02*
X011762Y028928D01*
X011762Y029087D02*
X012610Y029087D01*
X012610Y029245D02*
X011762Y029245D01*
X012384Y031306D02*
X012601Y031306D01*
X011173Y032415D02*
X011137Y032415D01*
X011137Y032574D02*
X011173Y032574D01*
X011221Y033049D02*
X011639Y033049D01*
X011480Y033208D02*
X011380Y033208D01*
X011272Y034000D02*
X011588Y034000D01*
X010588Y034000D02*
X010272Y034000D01*
X009588Y034000D02*
X009272Y034000D01*
X008370Y033366D02*
X000660Y033366D01*
X000660Y033208D02*
X008480Y033208D01*
X008639Y033049D02*
X000660Y033049D01*
X000660Y032891D02*
X008650Y032891D01*
X008650Y032732D02*
X000660Y032732D01*
X000660Y032574D02*
X008650Y032574D01*
X008650Y032415D02*
X008359Y032415D01*
X008438Y032257D02*
X008650Y032257D01*
X008650Y031781D02*
X008595Y031781D01*
X007814Y031020D02*
X007432Y031020D01*
X007440Y031002D01*
X007440Y030848D01*
X007440Y030848D01*
X007518Y030848D01*
X007518Y030439D01*
X007610Y030439D01*
X007610Y030848D01*
X007840Y030848D01*
X007885Y030836D01*
X007926Y030812D01*
X007960Y030779D01*
X007984Y030738D01*
X007996Y030692D01*
X007996Y030439D01*
X007610Y030439D01*
X007610Y030347D01*
X007996Y030347D01*
X007996Y030093D01*
X007984Y030047D01*
X007960Y030006D01*
X007926Y029973D01*
X007885Y029949D01*
X007840Y029937D01*
X007610Y029937D01*
X007610Y030347D01*
X007518Y030347D01*
X007518Y029937D01*
X007396Y029937D01*
X007396Y029705D01*
X007611Y029705D01*
X007714Y029662D01*
X007792Y029584D01*
X007792Y029584D01*
X008070Y029306D01*
X008178Y029415D01*
X008289Y029415D01*
X008289Y030545D01*
X007814Y031020D01*
X007845Y030989D02*
X007440Y030989D01*
X007518Y030830D02*
X007610Y030830D01*
X007610Y030672D02*
X007518Y030672D01*
X007518Y030513D02*
X007610Y030513D01*
X007610Y030355D02*
X008289Y030355D01*
X008289Y030513D02*
X007996Y030513D01*
X007996Y030672D02*
X008162Y030672D01*
X008004Y030830D02*
X007895Y030830D01*
X007996Y030196D02*
X008289Y030196D01*
X008289Y030038D02*
X007978Y030038D01*
X008289Y029879D02*
X007396Y029879D01*
X007396Y029721D02*
X008289Y029721D01*
X008289Y029562D02*
X007814Y029562D01*
X007972Y029404D02*
X008167Y029404D01*
X007610Y030038D02*
X007518Y030038D01*
X007518Y030196D02*
X007610Y030196D01*
X006748Y030509D02*
X006745Y030506D01*
X006595Y030506D01*
X006445Y030506D01*
X006395Y030556D01*
X005929Y030556D01*
X005879Y030506D01*
X005729Y030506D01*
X005579Y030506D01*
X005529Y030556D01*
X004710Y030556D01*
X004710Y031020D01*
X006678Y031020D01*
X006670Y031002D01*
X006670Y030848D01*
X006729Y030707D01*
X006748Y030687D01*
X006748Y030509D01*
X006748Y030513D02*
X006438Y030513D01*
X006595Y030506D02*
X006595Y030050D01*
X006595Y030050D01*
X006595Y030506D01*
X006595Y030355D02*
X006595Y030355D01*
X006595Y030196D02*
X006595Y030196D01*
X006748Y030672D02*
X004710Y030672D01*
X004710Y030830D02*
X006678Y030830D01*
X006670Y030989D02*
X004710Y030989D01*
X005572Y030513D02*
X005887Y030513D01*
X005729Y030506D02*
X005729Y030050D01*
X005729Y030506D01*
X005729Y030355D02*
X005729Y030355D01*
X005729Y030196D02*
X005729Y030196D01*
X005729Y030050D02*
X005729Y030050D01*
X005729Y030050D01*
X005729Y029594D01*
X005585Y029594D01*
X005585Y029330D01*
X005803Y029330D01*
X005795Y029348D01*
X005795Y029502D01*
X005833Y029594D01*
X005729Y029594D01*
X005729Y030050D01*
X005729Y030038D02*
X005729Y030038D01*
X005729Y029879D02*
X005729Y029879D01*
X005729Y029721D02*
X005729Y029721D01*
X005820Y029562D02*
X005585Y029562D01*
X005585Y029404D02*
X005795Y029404D01*
X006557Y028770D02*
X006928Y028770D01*
X006928Y028653D01*
X007287Y028653D01*
X007287Y028616D01*
X006928Y028616D01*
X006928Y028394D01*
X006940Y028349D01*
X006944Y028343D01*
X006878Y028277D01*
X006878Y028106D01*
X005257Y028106D01*
X005546Y028395D01*
X005916Y028395D01*
X005962Y028349D01*
X006103Y028290D01*
X006257Y028290D01*
X006398Y028349D01*
X006506Y028457D01*
X006565Y028598D01*
X006565Y028752D01*
X006557Y028770D01*
X006558Y028770D02*
X006928Y028770D01*
X006928Y028611D02*
X006565Y028611D01*
X006502Y028453D02*
X006928Y028453D01*
X006895Y028294D02*
X006266Y028294D01*
X006094Y028294D02*
X005445Y028294D01*
X005287Y028136D02*
X006878Y028136D01*
X004129Y028770D02*
X002880Y028770D01*
X002880Y028611D02*
X003970Y028611D01*
X004150Y028928D02*
X002821Y028928D01*
X002696Y029087D02*
X004150Y029087D01*
X004150Y029245D02*
X000660Y029245D01*
X000660Y029087D02*
X001046Y029087D01*
X000898Y028928D02*
X000660Y028928D01*
X000660Y028770D02*
X000839Y028770D01*
X000834Y028611D02*
X000660Y028611D01*
X000660Y028453D02*
X000882Y028453D01*
X001004Y028294D02*
X001068Y028247D01*
X001138Y028212D01*
X001166Y028202D01*
X001018Y028141D01*
X000860Y027977D02*
X000660Y027977D01*
X000660Y027819D02*
X000794Y027819D01*
X000780Y027660D02*
X000660Y027660D01*
X000660Y027502D02*
X000807Y027502D01*
X000884Y027343D02*
X000660Y027343D01*
X000660Y027185D02*
X001077Y027185D01*
X000903Y027026D02*
X000660Y027026D01*
X000660Y026868D02*
X000814Y026868D01*
X000780Y026709D02*
X000660Y026709D01*
X000660Y026551D02*
X000786Y026551D01*
X000852Y026392D02*
X000660Y026392D01*
X000660Y026234D02*
X000994Y026234D01*
X002632Y025283D02*
X002733Y025283D01*
X002733Y025124D02*
X002648Y025124D01*
X002791Y024966D02*
X002798Y024966D01*
X002856Y024807D02*
X002878Y024807D01*
X001800Y022920D02*
X001745Y022786D01*
X001745Y022564D01*
X001830Y022358D01*
X001908Y022280D01*
X000660Y022280D01*
X000660Y022895D01*
X001775Y022895D01*
X001800Y022920D01*
X001794Y022905D02*
X001785Y022905D01*
X001745Y022747D02*
X000660Y022747D01*
X000660Y022588D02*
X001745Y022588D01*
X001801Y022430D02*
X000660Y022430D01*
X004410Y024332D02*
X005445Y024332D01*
X005247Y024490D02*
X004482Y024490D01*
X001339Y028770D02*
X001321Y028770D01*
X001321Y028928D02*
X001339Y028928D01*
X001339Y029087D02*
X001321Y029087D01*
X001614Y029087D02*
X001964Y029087D01*
X001839Y028928D02*
X001762Y028928D01*
X001722Y029937D02*
X002072Y029937D01*
X002118Y029949D01*
X002159Y029973D01*
X002192Y030006D01*
X002216Y030047D01*
X002228Y030093D01*
X002228Y030335D01*
X001722Y030335D01*
X001722Y030450D01*
X002228Y030450D01*
X002228Y030692D01*
X002216Y030738D01*
X002192Y030779D01*
X002159Y030812D01*
X002118Y030836D01*
X002072Y030848D01*
X001722Y030848D01*
X001722Y030450D01*
X001606Y030450D01*
X001606Y030335D01*
X001100Y030335D01*
X001100Y030093D01*
X001113Y030047D01*
X001136Y030006D01*
X001170Y029973D01*
X001211Y029949D01*
X001257Y029937D01*
X001606Y029937D01*
X001606Y030335D01*
X001722Y030335D01*
X001722Y029937D01*
X001722Y030038D02*
X001606Y030038D01*
X001606Y030196D02*
X001722Y030196D01*
X001722Y030355D02*
X003247Y030355D01*
X003246Y030349D02*
X003246Y030050D01*
X003564Y030050D01*
X003564Y030050D01*
X003564Y030050D01*
X003564Y029594D01*
X003402Y029594D01*
X003357Y029607D01*
X003316Y029630D01*
X003282Y029664D01*
X003258Y029705D01*
X003246Y029751D01*
X003246Y030050D01*
X003564Y030050D01*
X003564Y030506D01*
X003402Y030506D01*
X003357Y030493D01*
X003316Y030470D01*
X003282Y030436D01*
X003258Y030395D01*
X003246Y030349D01*
X003246Y030196D02*
X002228Y030196D01*
X002210Y030038D02*
X003246Y030038D01*
X003246Y029879D02*
X000660Y029879D01*
X000660Y029721D02*
X003254Y029721D01*
X003564Y029721D02*
X003564Y029721D01*
X003564Y029879D02*
X003564Y029879D01*
X003564Y030038D02*
X003564Y030038D01*
X003564Y030050D02*
X003564Y030050D01*
X003564Y030196D02*
X003564Y030196D01*
X003564Y030355D02*
X003564Y030355D01*
X003717Y030513D02*
X002228Y030513D01*
X002228Y030672D02*
X003717Y030672D01*
X003717Y030830D02*
X002128Y030830D01*
X001722Y030830D02*
X001606Y030830D01*
X001606Y030848D02*
X001257Y030848D01*
X001211Y030836D01*
X001170Y030812D01*
X001136Y030779D01*
X001113Y030738D01*
X001100Y030692D01*
X001100Y030450D01*
X001606Y030450D01*
X001606Y030848D01*
X001606Y030672D02*
X001722Y030672D01*
X001722Y030513D02*
X001606Y030513D01*
X001606Y030355D02*
X000660Y030355D01*
X000660Y030513D02*
X001100Y030513D01*
X001100Y030672D02*
X000660Y030672D01*
X000660Y030830D02*
X001201Y030830D01*
X000660Y030989D02*
X003717Y030989D01*
X003717Y031147D02*
X000660Y031147D01*
X000660Y031306D02*
X003717Y031306D01*
X003734Y031464D02*
X000660Y031464D01*
X000660Y031623D02*
X003857Y031623D01*
X004015Y031781D02*
X000660Y031781D01*
X000660Y032257D02*
X007672Y032257D01*
X007670Y032098D02*
X007729Y031957D01*
X007751Y032415D02*
X000660Y032415D01*
X001262Y033683D02*
X001378Y033683D01*
X001378Y033842D02*
X001262Y033842D01*
X001262Y034000D02*
X001378Y034000D01*
X000864Y034317D02*
X000660Y034317D01*
X000660Y030196D02*
X001100Y030196D01*
X001118Y030038D02*
X000660Y030038D01*
X000660Y029562D02*
X003746Y029562D01*
X004150Y029404D02*
X000660Y029404D01*
X007482Y033683D02*
X007598Y033683D01*
X007598Y033842D02*
X007482Y033842D01*
X007482Y034000D02*
X007598Y034000D01*
X015063Y034000D02*
X024160Y034000D01*
X025153Y032098D02*
X026768Y032098D01*
X026768Y031940D02*
X025311Y031940D01*
X025439Y031781D02*
X026409Y031781D01*
X026220Y031623D02*
X025460Y031623D01*
X025460Y031464D02*
X026170Y031464D01*
X026188Y031306D02*
X025460Y031306D01*
X025460Y031147D02*
X026233Y031147D01*
X025949Y030989D02*
X025460Y030989D01*
X025460Y030830D02*
X025828Y030830D01*
X025795Y030672D02*
X025460Y030672D01*
X025460Y030513D02*
X025830Y030513D01*
X025900Y030355D02*
X025460Y030355D01*
X025460Y030196D02*
X025900Y030196D01*
X025900Y030038D02*
X025460Y030038D01*
X025460Y029879D02*
X025900Y029879D01*
X025900Y029721D02*
X025460Y029721D01*
X025460Y029562D02*
X025900Y029562D01*
X025900Y029404D02*
X025460Y029404D01*
X025460Y029245D02*
X025900Y029245D01*
X025900Y029087D02*
X025460Y029087D01*
X025460Y028928D02*
X025900Y028928D01*
X025900Y028770D02*
X025460Y028770D01*
X025460Y028611D02*
X025900Y028611D01*
X028057Y028675D02*
X028094Y028712D01*
X028094Y029138D01*
X028057Y029175D01*
X028094Y029212D01*
X028094Y029638D01*
X028057Y029675D01*
X028094Y029712D01*
X028094Y030138D01*
X028057Y030175D01*
X028094Y030212D01*
X028094Y030638D01*
X028057Y030675D01*
X028094Y030712D01*
X028094Y031138D01*
X028057Y031175D01*
X028094Y031212D01*
X028094Y031638D01*
X028057Y031675D01*
X028094Y031712D01*
X028094Y032045D01*
X028131Y032082D01*
X028190Y032223D01*
X028190Y032269D01*
X028200Y032269D01*
X028200Y022280D01*
X025306Y022280D01*
X025339Y022313D01*
X025417Y022391D01*
X025460Y022494D01*
X025460Y022726D01*
X025462Y022724D01*
X025603Y022665D01*
X025757Y022665D01*
X025855Y022706D01*
X025962Y022599D01*
X026103Y022540D01*
X026257Y022540D01*
X026398Y022599D01*
X026506Y022707D01*
X026565Y022848D01*
X026565Y023002D01*
X026506Y023143D01*
X026460Y023189D01*
X026460Y024048D01*
X026478Y024040D01*
X026632Y024040D01*
X026773Y024099D01*
X026819Y024145D01*
X026835Y024145D01*
X026903Y024077D01*
X027959Y024077D01*
X028094Y024212D01*
X028094Y024638D01*
X028057Y024675D01*
X028094Y024712D01*
X028094Y025138D01*
X028057Y025175D01*
X028094Y025212D01*
X028094Y025638D01*
X028057Y025675D01*
X028094Y025712D01*
X028094Y026138D01*
X028057Y026175D01*
X028094Y026212D01*
X028094Y026638D01*
X028057Y026675D01*
X028094Y026712D01*
X028094Y027138D01*
X028057Y027175D01*
X028094Y027212D01*
X028094Y027638D01*
X028057Y027675D01*
X028094Y027712D01*
X028094Y028138D01*
X028057Y028175D01*
X028094Y028212D01*
X028094Y028638D01*
X028057Y028675D01*
X028094Y028611D02*
X028200Y028611D01*
X028200Y028453D02*
X028094Y028453D01*
X028094Y028294D02*
X028200Y028294D01*
X028200Y028136D02*
X028094Y028136D01*
X028094Y027977D02*
X028200Y027977D01*
X028200Y027819D02*
X028094Y027819D01*
X028072Y027660D02*
X028200Y027660D01*
X028200Y027502D02*
X028094Y027502D01*
X028094Y027343D02*
X028200Y027343D01*
X028200Y027185D02*
X028067Y027185D01*
X028094Y027026D02*
X028200Y027026D01*
X028200Y026868D02*
X028094Y026868D01*
X028091Y026709D02*
X028200Y026709D01*
X028200Y026551D02*
X028094Y026551D01*
X028094Y026392D02*
X028200Y026392D01*
X028200Y026234D02*
X028094Y026234D01*
X028094Y026075D02*
X028200Y026075D01*
X028200Y025917D02*
X028094Y025917D01*
X028094Y025758D02*
X028200Y025758D01*
X028200Y025600D02*
X028094Y025600D01*
X028094Y025441D02*
X028200Y025441D01*
X028200Y025283D02*
X028094Y025283D01*
X028094Y025124D02*
X028200Y025124D01*
X028200Y024966D02*
X028094Y024966D01*
X028094Y024807D02*
X028200Y024807D01*
X028200Y024649D02*
X028084Y024649D01*
X028094Y024490D02*
X028200Y024490D01*
X028200Y024332D02*
X028094Y024332D01*
X028055Y024173D02*
X028200Y024173D01*
X028200Y024015D02*
X026460Y024015D01*
X026460Y023856D02*
X028200Y023856D01*
X028200Y023698D02*
X026460Y023698D01*
X026460Y023539D02*
X028200Y023539D01*
X028200Y023381D02*
X026460Y023381D01*
X026460Y023222D02*
X028200Y023222D01*
X028200Y023064D02*
X026539Y023064D01*
X026565Y022905D02*
X028200Y022905D01*
X028200Y022747D02*
X026523Y022747D01*
X026373Y022588D02*
X028200Y022588D01*
X028200Y022430D02*
X025433Y022430D01*
X025460Y022588D02*
X025987Y022588D01*
X023150Y024416D02*
X023064Y024330D01*
X023042Y024330D01*
X023042Y024425D01*
X023042Y024567D01*
X023030Y024613D01*
X023016Y024636D01*
X023092Y024712D01*
X023092Y025138D01*
X023055Y025175D01*
X023092Y025212D01*
X023092Y025638D01*
X023055Y025675D01*
X023092Y025712D01*
X023092Y026138D01*
X023055Y026175D01*
X023092Y026212D01*
X023092Y026638D01*
X023055Y026675D01*
X023092Y026712D01*
X023092Y027138D01*
X023055Y027175D01*
X023092Y027212D01*
X023092Y027638D01*
X023055Y027675D01*
X023092Y027712D01*
X023092Y028117D01*
X023150Y028059D01*
X023150Y024416D01*
X023150Y024490D02*
X023042Y024490D01*
X023042Y024425D02*
X022429Y024425D01*
X022429Y024425D01*
X023042Y024425D01*
X023042Y024332D02*
X023066Y024332D01*
X023029Y024649D02*
X023150Y024649D01*
X023150Y024807D02*
X023092Y024807D01*
X023092Y024966D02*
X023150Y024966D01*
X023150Y025124D02*
X023092Y025124D01*
X023092Y025283D02*
X023150Y025283D01*
X023150Y025441D02*
X023092Y025441D01*
X023092Y025600D02*
X023150Y025600D01*
X023150Y025758D02*
X023092Y025758D01*
X023092Y025917D02*
X023150Y025917D01*
X023150Y026075D02*
X023092Y026075D01*
X023092Y026234D02*
X023150Y026234D01*
X023150Y026392D02*
X023092Y026392D01*
X023092Y026551D02*
X023150Y026551D01*
X023150Y026709D02*
X023090Y026709D01*
X023092Y026868D02*
X023150Y026868D01*
X023150Y027026D02*
X023092Y027026D01*
X023065Y027185D02*
X023150Y027185D01*
X023150Y027343D02*
X023092Y027343D01*
X023092Y027502D02*
X023150Y027502D01*
X023150Y027660D02*
X023070Y027660D01*
X023092Y027819D02*
X023150Y027819D01*
X023150Y027977D02*
X023092Y027977D01*
X026701Y031781D02*
X026768Y031781D01*
X028094Y031781D02*
X028200Y031781D01*
X028200Y031623D02*
X028094Y031623D01*
X028094Y031464D02*
X028200Y031464D01*
X028200Y031306D02*
X028094Y031306D01*
X028085Y031147D02*
X028200Y031147D01*
X028200Y030989D02*
X028094Y030989D01*
X028094Y030830D02*
X028200Y030830D01*
X028200Y030672D02*
X028061Y030672D01*
X028094Y030513D02*
X028200Y030513D01*
X028200Y030355D02*
X028094Y030355D01*
X028078Y030196D02*
X028200Y030196D01*
X028200Y030038D02*
X028094Y030038D01*
X028094Y029879D02*
X028200Y029879D01*
X028200Y029721D02*
X028094Y029721D01*
X028094Y029562D02*
X028200Y029562D01*
X028200Y029404D02*
X028094Y029404D01*
X028094Y029245D02*
X028200Y029245D01*
X028200Y029087D02*
X028094Y029087D01*
X028094Y028928D02*
X028200Y028928D01*
X028200Y028770D02*
X028094Y028770D01*
X028094Y031940D02*
X028200Y031940D01*
X028200Y032098D02*
X028138Y032098D01*
X028190Y032257D02*
X028200Y032257D01*
X028073Y033525D02*
X028037Y033525D01*
X028037Y033683D02*
X028073Y033683D01*
X021852Y014188D02*
X021756Y014188D01*
X021756Y014029D02*
X021852Y014029D01*
X021852Y013871D02*
X021756Y013871D01*
X021756Y013712D02*
X021852Y013712D01*
X021852Y013554D02*
X021756Y013554D01*
X021756Y013395D02*
X021852Y013395D01*
D36*
X022805Y014425D03*
X020680Y014800D03*
X020060Y014045D03*
X019680Y014425D03*
X020055Y013425D03*
X018805Y013175D03*
X018930Y012550D03*
X018805Y012175D03*
X018555Y011800D03*
X018430Y010425D03*
X018055Y009425D03*
X019180Y008550D03*
X019680Y009175D03*
X020430Y008300D03*
X021430Y008425D03*
X022680Y008800D03*
X022930Y009175D03*
X021180Y010925D03*
X022555Y006050D03*
X016555Y010925D03*
X014430Y011550D03*
X014430Y009675D03*
X014930Y013425D03*
X015305Y013675D03*
X015680Y013925D03*
X016055Y014175D03*
X016180Y014675D03*
X016555Y014425D03*
X015680Y014925D03*
X015180Y014425D03*
X013930Y014300D03*
X013555Y013800D03*
X012555Y014550D03*
X012180Y014800D03*
X012055Y014175D03*
X011555Y014300D03*
X010555Y012925D03*
X010633Y012097D03*
X009555Y011050D03*
X009997Y014300D03*
X009680Y015050D03*
X011566Y016936D03*
X012680Y015800D03*
X013055Y015550D03*
X013430Y015300D03*
X013805Y015050D03*
X013180Y016050D03*
X013680Y016800D03*
X014180Y016425D03*
X014805Y016550D03*
X015055Y015925D03*
X015680Y016050D03*
X016055Y015800D03*
X014555Y017300D03*
X014555Y018818D03*
X015180Y020050D03*
X012805Y021050D03*
X012180Y021175D03*
X011930Y020675D03*
X011680Y021175D03*
X011180Y020675D03*
X011430Y020175D03*
X012430Y020175D03*
X012680Y022425D03*
X013055Y025300D03*
X013930Y026550D03*
X014555Y026425D03*
X014555Y026925D03*
X014555Y027425D03*
X014555Y027925D03*
X014555Y028425D03*
X014555Y028925D03*
X014555Y029425D03*
X014555Y029925D03*
X014555Y030425D03*
X014555Y030925D03*
X014555Y031425D03*
X014555Y031925D03*
X013305Y030925D03*
X013305Y030425D03*
X013180Y029925D03*
X013680Y029175D03*
X013680Y028800D03*
X013680Y028425D03*
X013680Y028050D03*
X013680Y027175D03*
X014555Y025925D03*
X014555Y025425D03*
X014555Y024925D03*
X015805Y023800D03*
X017680Y023425D03*
X018930Y023925D03*
X019055Y023425D03*
X019805Y023675D03*
X019555Y024675D03*
X019555Y025175D03*
X019555Y025675D03*
X019555Y026175D03*
X019555Y026675D03*
X019555Y027175D03*
X019555Y027675D03*
X019555Y028175D03*
X019555Y028675D03*
X019555Y029175D03*
X019555Y029675D03*
X019555Y030175D03*
X019555Y030675D03*
X019555Y031175D03*
X019555Y031675D03*
X020805Y032300D03*
X021555Y031925D03*
X021555Y031425D03*
X021555Y030925D03*
X021555Y030425D03*
X021555Y029925D03*
X021555Y029425D03*
X021555Y028925D03*
X021555Y028425D03*
X021555Y027925D03*
X021555Y027425D03*
X021555Y026925D03*
X021555Y026425D03*
X021555Y025925D03*
X021555Y025425D03*
X021555Y024925D03*
X021555Y020050D03*
X021930Y019300D03*
X021930Y018425D03*
X018430Y018050D03*
X017680Y016675D03*
X018430Y016300D03*
X025680Y023050D03*
X025930Y023300D03*
X026180Y022925D03*
X026805Y022675D03*
X025430Y023550D03*
X026555Y024425D03*
X026555Y024925D03*
X026555Y025425D03*
X026555Y025925D03*
X026555Y026425D03*
X026555Y026925D03*
X026555Y027425D03*
X026555Y027925D03*
X026555Y028425D03*
X026555Y028925D03*
X026555Y029425D03*
X026555Y029925D03*
X026555Y030425D03*
X026555Y030925D03*
X026555Y031425D03*
X026180Y030675D03*
X027805Y032300D03*
X025680Y028175D03*
X025430Y027175D03*
X025930Y027175D03*
X028055Y022425D03*
X017805Y033175D03*
X012930Y034140D03*
X011430Y032800D03*
X011680Y030800D03*
X011167Y030800D03*
X010805Y030425D03*
X009930Y030550D03*
X009930Y031300D03*
X008055Y032175D03*
X007055Y030925D03*
X008055Y029800D03*
X006680Y028675D03*
X006180Y028675D03*
X006180Y029425D03*
X005680Y030800D03*
X004805Y029175D03*
X004055Y025675D03*
X003180Y025050D03*
X001055Y022675D03*
X008055Y021925D03*
X008555Y025550D03*
X009305Y025925D03*
X009680Y026425D03*
X009930Y026050D03*
X010305Y026425D03*
X010555Y026050D03*
X009930Y027050D03*
X009680Y027800D03*
X010305Y028675D03*
X010930Y028425D03*
X007930Y028175D03*
X007930Y027550D03*
X001180Y032300D03*
D37*
X003997Y031367D02*
X003997Y030050D01*
X004430Y030050D02*
X004430Y028675D01*
X003930Y028175D01*
X001830Y028175D01*
X001330Y027675D01*
X001330Y026675D02*
X001330Y026650D01*
X001330Y026675D02*
X001330Y026175D01*
X003015Y026175D01*
X003180Y026175D01*
X003180Y027050D01*
X004305Y027050D01*
X005081Y027826D01*
X007444Y027826D01*
X007305Y027965D01*
X007220Y028050D01*
X007444Y027826D02*
X008569Y027826D01*
X009654Y027826D01*
X009680Y027800D01*
X009930Y027800D01*
X010852Y026878D01*
X010852Y025228D01*
X010852Y024722D01*
X010055Y023925D01*
X009765Y023925D01*
X009930Y022925D02*
X003055Y022925D01*
X002305Y023675D01*
X002305Y024675D02*
X001411Y024675D01*
X001180Y023625D01*
X001055Y022675D02*
X000680Y022300D01*
X000805Y022175D01*
X006680Y022175D01*
X005655Y024775D02*
X004115Y024775D01*
X004055Y024715D01*
X003180Y025050D02*
X003180Y025340D01*
X003180Y026010D02*
X003015Y026175D01*
X002330Y026675D02*
X003080Y027425D01*
X004180Y027425D01*
X005430Y028675D01*
X006180Y028675D01*
X006180Y029425D02*
X006180Y030032D01*
X006162Y030050D01*
X006595Y030050D02*
X006595Y030510D01*
X006305Y030800D01*
X005680Y030800D01*
X005296Y030050D02*
X005305Y030041D01*
X005305Y029050D01*
X004055Y027800D01*
X002430Y027800D01*
X002330Y027700D01*
X002330Y027675D01*
X001330Y026175D02*
X001330Y025594D01*
X001180Y025475D01*
X002305Y025675D02*
X002805Y025175D01*
X004055Y026635D02*
X004095Y026675D01*
X005655Y026675D01*
X005680Y026675D01*
X006180Y027175D01*
X008547Y027175D01*
X008569Y027196D01*
X008569Y026881D02*
X007011Y026881D01*
X005680Y025550D01*
X005680Y025300D01*
X005655Y024775D01*
X008055Y027425D02*
X008141Y027511D01*
X008569Y027511D01*
X008641Y027511D02*
X009069Y027511D01*
X008569Y028141D02*
X007964Y028141D01*
X007930Y028175D01*
X008149Y028456D02*
X007555Y029050D01*
X005305Y029050D01*
X004863Y029233D02*
X004805Y029175D01*
X004863Y029233D02*
X004863Y030050D01*
X004430Y030050D02*
X004430Y031175D01*
X004555Y031300D01*
X007930Y031300D01*
X008569Y030661D01*
X008569Y029086D01*
X008569Y028771D02*
X008209Y028771D01*
X007555Y029425D01*
X006180Y029425D01*
X007028Y030050D02*
X007028Y030827D01*
X007055Y030925D01*
X008055Y031550D02*
X004180Y031550D01*
X003997Y031367D01*
X008055Y031550D02*
X009277Y030328D01*
X009277Y029795D01*
X009592Y029795D02*
X009592Y030388D01*
X008055Y031925D01*
X008055Y032175D01*
X008930Y031800D02*
X008930Y033550D01*
X009930Y033550D02*
X009930Y032385D01*
X009930Y031715D02*
X009930Y031300D01*
X009805Y030925D02*
X010055Y030925D01*
X010222Y030758D01*
X010222Y029795D01*
X009907Y029795D02*
X009907Y030448D01*
X009930Y030550D01*
X009805Y030925D02*
X008930Y031800D01*
X010537Y033157D02*
X010537Y029795D01*
X010852Y029795D02*
X010852Y030222D01*
X010852Y029795D02*
X010852Y029253D01*
X011167Y029795D02*
X011167Y030800D01*
X011167Y030878D01*
X011155Y031640D01*
X011980Y031640D01*
X012855Y031640D01*
X012930Y031715D01*
X012930Y032385D02*
X012930Y034140D01*
X012055Y033550D02*
X011930Y033550D01*
X012055Y033550D02*
X012055Y032385D01*
X012055Y031715D02*
X011980Y031640D01*
X012305Y030925D02*
X013305Y030925D01*
X013305Y030425D02*
X012305Y030425D01*
X012112Y030232D01*
X012112Y029795D01*
X011797Y029795D02*
X011797Y030417D01*
X012305Y030925D01*
X012427Y029795D02*
X013050Y029795D01*
X013180Y029925D01*
X013055Y029550D02*
X012805Y029550D01*
X012555Y029300D01*
X012680Y029300D01*
X012805Y029425D01*
X012555Y029300D02*
X012430Y029175D01*
X013136Y029086D02*
X013591Y029086D01*
X013680Y029175D01*
X013680Y028800D02*
X013164Y028800D01*
X013136Y028771D01*
X013136Y028456D02*
X013649Y028456D01*
X013680Y028425D01*
X013589Y028141D02*
X013680Y028050D01*
X013589Y028141D02*
X013136Y028141D01*
X013136Y027511D02*
X012641Y027511D01*
X013136Y027511D02*
X013641Y027511D01*
X013659Y027196D02*
X013680Y027175D01*
X013659Y027196D02*
X013136Y027196D01*
X013136Y026252D02*
X013603Y026252D01*
X013680Y026175D01*
X013680Y024800D01*
X010180Y021300D01*
X010180Y018300D01*
X008905Y017025D01*
X008580Y017025D01*
X009305Y016300D01*
X010503Y016300D01*
X011270Y015533D01*
X011409Y015672D02*
X011659Y015422D01*
X011805Y015555D02*
X011805Y015175D01*
X012180Y014800D01*
X012305Y015050D02*
X013805Y015050D01*
X013930Y014675D02*
X014180Y014925D01*
X014180Y016425D01*
X014305Y016800D02*
X014555Y016800D01*
X014805Y017050D01*
X014555Y017300D02*
X013957Y017300D01*
X013497Y017760D01*
X013358Y017621D02*
X012930Y018049D01*
X012930Y020550D01*
X013180Y020800D01*
X013180Y021175D01*
X012680Y021800D01*
X012680Y022425D01*
X012180Y021175D02*
X012180Y017964D01*
X012940Y017203D01*
X012801Y017064D02*
X011930Y017935D01*
X011930Y020675D01*
X011680Y021175D02*
X011680Y017907D01*
X012662Y016925D01*
X012523Y016786D02*
X011430Y017878D01*
X011430Y020175D01*
X011180Y020675D02*
X011180Y017850D01*
X012383Y016647D01*
X012244Y016507D02*
X011816Y016936D01*
X011566Y016936D01*
X011203Y017298D01*
X011005Y017323D01*
X010930Y016175D02*
X010930Y016151D01*
X011409Y015672D01*
X011548Y015811D02*
X011805Y015555D01*
X012055Y015583D02*
X011687Y015951D01*
X011827Y016090D02*
X012305Y015611D01*
X012305Y015425D01*
X012430Y015300D01*
X013430Y015300D01*
X013055Y015550D02*
X012555Y015550D01*
X012430Y015675D01*
X012430Y015765D01*
X011966Y016229D01*
X012105Y016368D02*
X012673Y015800D01*
X012680Y015800D01*
X012055Y015583D02*
X012055Y015300D01*
X012305Y015050D01*
X012555Y014550D02*
X011974Y014550D01*
X011131Y015394D01*
X010991Y015255D02*
X010221Y016025D01*
X008580Y016025D01*
X008055Y016550D01*
X008055Y018175D01*
X008430Y018550D01*
X009305Y018550D01*
X009680Y018925D01*
X009680Y021550D01*
X012430Y024300D01*
X012430Y025225D01*
X012427Y025228D01*
X012112Y025228D02*
X012112Y024357D01*
X009430Y021675D01*
X009430Y019300D01*
X009180Y019050D01*
X008605Y019050D01*
X008580Y019025D01*
X008530Y019025D01*
X007805Y018300D01*
X007805Y016050D01*
X008305Y015550D01*
X010418Y015550D01*
X010852Y015116D01*
X010713Y014976D02*
X011389Y014300D01*
X011555Y014300D01*
X011514Y013550D02*
X012055Y013550D01*
X013180Y014675D01*
X013930Y014675D01*
X013560Y013800D02*
X013555Y013800D01*
X013560Y013800D02*
X016002Y011357D01*
X015863Y011218D02*
X017930Y009151D01*
X017930Y007675D01*
X017430Y007175D02*
X017430Y009373D01*
X015724Y011079D01*
X015585Y010940D02*
X016930Y009594D01*
X016930Y007675D01*
X016430Y007175D02*
X016430Y009816D01*
X015446Y010800D01*
X015306Y010661D02*
X015930Y010038D01*
X015930Y007675D01*
X015430Y007175D02*
X015430Y010259D01*
X015167Y010522D01*
X015028Y010383D02*
X014930Y010285D01*
X014930Y007675D01*
X014430Y007175D02*
X013930Y006675D01*
X013430Y007175D02*
X012930Y006675D01*
X012430Y007175D02*
X011930Y006675D01*
X011430Y007175D02*
X010930Y006675D01*
X010430Y007175D02*
X009930Y006675D01*
X009430Y007175D02*
X008930Y006675D01*
X008430Y007175D02*
X007930Y006675D01*
X007430Y007175D02*
X006930Y006675D01*
X007430Y007175D02*
X007430Y008800D01*
X009305Y010675D01*
X009805Y010675D01*
X010930Y011800D01*
X010930Y012131D01*
X011548Y012749D01*
X011409Y012874D02*
X010633Y012097D01*
X010322Y011787D01*
X009849Y011313D02*
X009585Y011050D01*
X009555Y011050D01*
X009180Y010925D02*
X006943Y008688D01*
X006930Y008688D01*
X006930Y007675D01*
X007930Y007675D02*
X007930Y008925D01*
X009430Y010425D01*
X009805Y010425D01*
X011180Y011800D01*
X011180Y012103D01*
X011687Y012610D01*
X011827Y012471D02*
X011430Y012074D01*
X011430Y011800D01*
X009805Y010175D01*
X009555Y010175D01*
X008454Y009074D01*
X008430Y009074D01*
X008430Y007175D01*
X008930Y007675D02*
X008930Y009050D01*
X011680Y011800D01*
X011680Y012046D01*
X011966Y012332D01*
X012105Y012192D02*
X012462Y012550D01*
X012555Y012550D01*
X012244Y012053D02*
X009430Y009239D01*
X009430Y007175D01*
X009930Y007675D02*
X009930Y009461D01*
X012383Y011914D01*
X012523Y011775D02*
X010430Y009682D01*
X010430Y007175D01*
X010930Y007675D02*
X010930Y009904D01*
X012662Y011636D01*
X012801Y011496D02*
X011430Y010126D01*
X011430Y007175D01*
X011930Y007675D02*
X011930Y010347D01*
X012940Y011357D01*
X013079Y011218D02*
X013411Y011550D01*
X013555Y011550D01*
X013219Y011079D02*
X012430Y010290D01*
X012430Y007175D01*
X012930Y007675D02*
X012930Y009300D01*
X012680Y009550D01*
X012680Y010262D01*
X013358Y010940D01*
X013497Y010800D02*
X012930Y010234D01*
X012930Y009675D01*
X013430Y009175D01*
X013430Y007175D01*
X013930Y007675D02*
X013930Y009050D01*
X013180Y009800D01*
X013180Y010205D01*
X013636Y010661D01*
X013775Y010522D02*
X013430Y010177D01*
X013430Y009925D01*
X014430Y008925D01*
X014430Y007175D01*
X014930Y006675D02*
X015430Y007175D01*
X015930Y006675D02*
X016430Y007175D01*
X016930Y006675D02*
X017430Y007175D01*
X017930Y006675D02*
X018430Y007175D01*
X018430Y009486D01*
X016281Y011636D01*
X016420Y011775D02*
X018930Y009265D01*
X018930Y007675D01*
X019180Y008550D02*
X019173Y009300D01*
X016559Y011914D01*
X016698Y012053D02*
X018327Y010425D01*
X018430Y010425D01*
X018680Y010175D01*
X018970Y010175D01*
X018555Y011800D02*
X018065Y011800D01*
X017255Y012610D01*
X017394Y012749D02*
X017969Y012175D01*
X018805Y012175D01*
X018930Y012550D02*
X017872Y012550D01*
X017534Y012888D01*
X017673Y013028D02*
X017275Y013425D01*
X014930Y013425D01*
X015305Y013675D02*
X017304Y013675D01*
X017812Y013167D01*
X017951Y013306D02*
X017332Y013925D01*
X015680Y013925D01*
X016055Y014175D02*
X017639Y014175D01*
X018230Y013584D01*
X018369Y013724D02*
X019030Y014385D01*
X019180Y014385D01*
X019180Y013715D02*
X019180Y013550D01*
X018805Y013175D01*
X018360Y013175D01*
X018090Y013445D01*
X018369Y013724D02*
X018055Y014037D01*
X018055Y014050D01*
X018369Y014837D02*
X019680Y016148D01*
X019680Y017550D01*
X020680Y018550D01*
X020680Y020425D01*
X022555Y022300D01*
X024930Y022300D01*
X025180Y022550D01*
X025180Y031675D01*
X024930Y031925D01*
X022429Y031925D01*
X021555Y031925D01*
X021555Y031425D02*
X022429Y031425D01*
X024680Y031425D01*
X024930Y031175D01*
X024930Y022800D01*
X024680Y022550D01*
X022430Y022550D01*
X020430Y020550D01*
X020430Y018675D01*
X019430Y017675D01*
X019430Y016177D01*
X018230Y014976D01*
X018090Y015116D02*
X019180Y016205D01*
X019180Y017800D01*
X020180Y018800D01*
X020180Y020675D01*
X022305Y022800D01*
X024430Y022800D01*
X024680Y023050D01*
X024680Y030675D01*
X024430Y030925D01*
X022429Y030925D01*
X021555Y030925D01*
X021555Y030425D02*
X022429Y030425D01*
X024180Y030425D01*
X024430Y030175D01*
X024430Y023300D01*
X024180Y023050D01*
X022180Y023050D01*
X019930Y020800D01*
X019930Y018925D01*
X018930Y017925D01*
X018930Y016234D01*
X017951Y015255D01*
X017812Y015394D02*
X018430Y016012D01*
X018430Y016300D01*
X018393Y016337D01*
X018393Y017002D01*
X018393Y016388D01*
X018430Y016300D01*
X017930Y016347D02*
X017930Y018050D01*
X019680Y019800D01*
X019680Y020925D01*
X022055Y023300D01*
X023930Y023300D01*
X024180Y023550D01*
X024180Y029675D01*
X023930Y029925D01*
X022429Y029925D01*
X021555Y029925D01*
X021555Y029425D02*
X022429Y029425D01*
X023680Y029425D01*
X023930Y029175D01*
X023930Y023800D01*
X023680Y023550D01*
X021930Y023550D01*
X019430Y021050D01*
X019430Y019925D01*
X017680Y018175D01*
X017680Y017175D01*
X017430Y016925D01*
X017430Y016682D01*
X016977Y016229D01*
X017116Y016090D02*
X015951Y014925D01*
X015680Y014925D01*
X016180Y014675D02*
X016536Y014675D01*
X017534Y015672D01*
X017673Y015533D02*
X016565Y014425D01*
X016555Y014425D01*
X016055Y015800D02*
X016055Y016143D01*
X016559Y016647D01*
X016420Y016786D02*
X016416Y016786D01*
X015680Y016050D01*
X016281Y016925D02*
X016930Y017574D01*
X016930Y018550D01*
X018680Y020300D01*
X018680Y027300D01*
X019055Y027675D01*
X019555Y027675D01*
X019818Y027413D01*
X020431Y027413D01*
X020431Y026913D02*
X019818Y026913D01*
X019555Y027175D01*
X019555Y026675D02*
X019180Y026675D01*
X018930Y026425D01*
X018930Y023925D01*
X019180Y023550D02*
X019180Y026050D01*
X019305Y026175D01*
X019555Y026175D01*
X019818Y025913D01*
X020431Y025913D01*
X020431Y025413D02*
X019818Y025413D01*
X019555Y025675D01*
X019555Y025175D02*
X019818Y024913D01*
X020431Y024913D01*
X020431Y024413D02*
X019818Y024413D01*
X019555Y024675D01*
X019180Y023550D02*
X019055Y023425D01*
X017680Y023425D02*
X017680Y029675D01*
X018180Y030175D01*
X019555Y030175D01*
X019818Y029913D01*
X020431Y029913D01*
X020431Y029413D02*
X019818Y029413D01*
X019555Y029675D01*
X018430Y029675D01*
X017930Y029175D01*
X017930Y020675D01*
X016180Y018925D01*
X016180Y017659D01*
X015863Y017343D01*
X015724Y017482D02*
X014805Y016563D01*
X014805Y016550D01*
X015055Y017300D02*
X015264Y017300D01*
X015585Y017621D01*
X015446Y017760D02*
X015930Y018245D01*
X015930Y019050D01*
X017430Y020550D01*
X017430Y030800D01*
X017805Y031175D01*
X019555Y031175D01*
X019818Y030913D01*
X020431Y030913D01*
X020431Y031413D02*
X019818Y031413D01*
X019555Y031675D01*
X017680Y031675D01*
X017180Y031175D01*
X017180Y020675D01*
X015680Y019175D01*
X015680Y018273D01*
X015306Y017899D01*
X015167Y018039D02*
X015430Y018301D01*
X015430Y019300D01*
X016930Y020800D01*
X016930Y027425D01*
X016430Y027925D01*
X015680Y027925D01*
X015668Y027913D01*
X015429Y027913D01*
X014568Y027913D01*
X014555Y027925D01*
X014568Y028413D02*
X015429Y028413D01*
X015429Y028913D02*
X014568Y028913D01*
X014555Y028925D01*
X014568Y029413D02*
X015429Y029413D01*
X015429Y029913D02*
X014568Y029913D01*
X014555Y029925D01*
X014555Y029425D02*
X014568Y029413D01*
X014555Y028425D02*
X014568Y028413D01*
X014555Y027425D02*
X014568Y027413D01*
X015429Y027413D01*
X016318Y027413D01*
X016680Y027050D01*
X016680Y020925D01*
X015180Y019425D01*
X015180Y018330D01*
X015028Y018178D01*
X014930Y018675D02*
X014930Y019800D01*
X015180Y020050D01*
X015805Y020425D02*
X016430Y021050D01*
X016430Y026675D01*
X016193Y026913D01*
X015429Y026913D01*
X014568Y026913D01*
X014555Y026925D01*
X014555Y026425D02*
X014568Y026413D01*
X015429Y026413D01*
X016043Y026413D01*
X016180Y026300D01*
X016180Y021175D01*
X015680Y020675D01*
X013430Y020675D01*
X013180Y020425D01*
X013180Y018355D01*
X013636Y017899D01*
X013775Y018039D02*
X013430Y018384D01*
X013430Y020300D01*
X013555Y020425D01*
X015805Y020425D01*
X014555Y019340D02*
X014555Y018818D01*
X013914Y018178D01*
X013219Y017482D02*
X013525Y017175D01*
X013680Y017175D01*
X013219Y017482D02*
X012680Y018020D01*
X012680Y020925D01*
X012430Y020175D02*
X012430Y017992D01*
X013079Y017343D01*
X016002Y017203D02*
X016430Y017631D01*
X016430Y018800D01*
X018180Y020550D01*
X018180Y028800D01*
X018555Y029175D01*
X019555Y029175D01*
X019818Y028913D01*
X020431Y028913D01*
X020431Y028413D02*
X019818Y028413D01*
X019555Y028675D01*
X018805Y028675D01*
X018430Y028300D01*
X018430Y020425D01*
X016680Y018675D01*
X016680Y017603D01*
X016142Y017064D01*
X016698Y016507D02*
X016930Y016739D01*
X016930Y017175D01*
X017180Y017425D01*
X017180Y018425D01*
X018930Y020175D01*
X018930Y021300D01*
X021680Y024050D01*
X023180Y024050D01*
X023430Y024300D01*
X023430Y028175D01*
X023180Y028425D01*
X022429Y028425D01*
X021555Y028425D01*
X021555Y027925D02*
X022429Y027925D01*
X022429Y027425D02*
X021555Y027425D01*
X021555Y026925D02*
X022429Y026925D01*
X022429Y026425D02*
X021555Y026425D01*
X021555Y025925D02*
X022429Y025925D01*
X022429Y025425D02*
X021555Y025425D01*
X021555Y024925D02*
X022429Y024925D01*
X021805Y023800D02*
X023430Y023800D01*
X023680Y024050D01*
X023680Y028675D01*
X023430Y028925D01*
X022429Y028925D01*
X021555Y028925D01*
X020431Y027913D02*
X019818Y027913D01*
X019555Y028175D01*
X019555Y026675D02*
X019818Y026413D01*
X020431Y026413D01*
X021805Y023800D02*
X019180Y021175D01*
X019180Y020050D01*
X017430Y018300D01*
X017430Y017300D01*
X017180Y017050D01*
X017180Y016711D01*
X016838Y016368D01*
X017255Y015951D02*
X017680Y016376D01*
X017680Y016675D01*
X017930Y016347D02*
X017394Y015811D01*
X018393Y017671D02*
X018430Y017708D01*
X018430Y018050D01*
X021930Y021300D02*
X022680Y022050D01*
X025055Y022050D01*
X025305Y022300D01*
X025305Y022175D02*
X025180Y022050D01*
X025305Y022050D01*
X025430Y022050D01*
X025555Y022175D01*
X025555Y022050D01*
X025680Y022175D01*
X025680Y022050D01*
X025805Y022175D01*
X025805Y022050D01*
X025930Y022175D01*
X025930Y022050D01*
X026055Y022175D01*
X026055Y022050D01*
X026180Y022175D01*
X026180Y022050D01*
X026305Y022175D01*
X026305Y022050D01*
X026430Y022175D01*
X026430Y022050D01*
X026555Y022175D01*
X026555Y022050D01*
X026680Y022175D01*
X026680Y022050D01*
X026805Y022175D01*
X026805Y022050D01*
X026930Y022175D01*
X026930Y022050D01*
X027055Y022175D01*
X027055Y022050D01*
X027180Y022175D01*
X027180Y022050D01*
X027305Y022175D01*
X027305Y022050D01*
X027430Y022175D01*
X027430Y022050D01*
X027555Y022175D01*
X027555Y022050D01*
X027680Y022175D01*
X027680Y022050D01*
X027805Y022175D01*
X027805Y022050D01*
X027930Y022175D01*
X027930Y022050D01*
X028055Y022175D01*
X028055Y022050D01*
X028180Y022175D01*
X028055Y022175D01*
X027930Y022175D01*
X027805Y022175D01*
X027680Y022175D01*
X027555Y022175D01*
X027430Y022175D01*
X027305Y022175D01*
X027180Y022175D01*
X027055Y022175D01*
X026930Y022175D01*
X026805Y022175D01*
X026680Y022175D01*
X026555Y022175D01*
X026430Y022175D01*
X026305Y022175D01*
X026180Y022175D01*
X026055Y022175D01*
X025930Y022175D01*
X025805Y022175D01*
X025680Y022175D01*
X025555Y022175D01*
X025430Y022175D01*
X025305Y022050D01*
X025180Y022050D02*
X025055Y022050D01*
X025305Y022175D02*
X025430Y022175D01*
X025430Y022050D02*
X025555Y022050D01*
X025680Y022050D01*
X025805Y022050D01*
X025930Y022050D01*
X026055Y022050D01*
X026180Y022050D01*
X026305Y022050D01*
X026430Y022050D01*
X026555Y022050D01*
X026680Y022050D01*
X026805Y022050D01*
X026930Y022050D01*
X027055Y022050D01*
X027180Y022050D01*
X027305Y022050D01*
X027430Y022050D01*
X027555Y022050D01*
X027680Y022050D01*
X027805Y022050D01*
X027930Y022050D01*
X028055Y022050D01*
X028180Y022175D02*
X028180Y022425D01*
X028055Y022425D01*
X027431Y024425D02*
X026555Y024425D01*
X026555Y024925D02*
X027431Y024925D01*
X027431Y025425D02*
X026555Y025425D01*
X026555Y025925D02*
X027431Y025925D01*
X027431Y026425D02*
X026555Y026425D01*
X026555Y026925D02*
X027431Y026925D01*
X027431Y027425D02*
X026555Y027425D01*
X026555Y027925D02*
X027431Y027925D01*
X027431Y028425D02*
X026555Y028425D01*
X026555Y028925D02*
X027431Y028925D01*
X027431Y029425D02*
X026555Y029425D01*
X026555Y029925D02*
X027431Y029925D01*
X027431Y030425D02*
X026555Y030425D01*
X026555Y030925D02*
X027431Y030925D01*
X027431Y031425D02*
X026555Y031425D01*
X026180Y030675D02*
X026180Y022925D01*
X025930Y023300D02*
X025930Y027175D01*
X025430Y027175D02*
X025430Y023550D01*
X025680Y023050D02*
X025680Y028175D01*
X027431Y031925D02*
X027431Y031926D01*
X027805Y032300D01*
X028055Y032550D01*
X028055Y032715D01*
X020805Y032300D02*
X020480Y031975D01*
X020431Y031913D01*
X020805Y032300D02*
X020455Y032650D01*
X020455Y032765D01*
X019555Y030675D02*
X019818Y030413D01*
X020431Y030413D01*
X015429Y030413D02*
X014568Y030413D01*
X014555Y030425D01*
X014568Y030913D02*
X015429Y030913D01*
X015429Y031413D02*
X015417Y031425D01*
X014555Y031425D01*
X014555Y030925D02*
X014568Y030913D01*
X014555Y031925D02*
X015417Y031925D01*
X015429Y031913D01*
X011482Y029795D02*
X011482Y028977D01*
X010930Y028425D01*
X010305Y026425D02*
X010222Y026342D01*
X010222Y025228D01*
X009907Y025228D02*
X009907Y026027D01*
X009930Y026050D01*
X009592Y026337D02*
X009680Y026425D01*
X009592Y026337D02*
X009592Y025228D01*
X009277Y025228D02*
X009277Y025897D01*
X009305Y025925D01*
X008569Y025937D02*
X008569Y025564D01*
X008555Y025550D01*
X010537Y025228D02*
X010537Y026032D01*
X010555Y026050D01*
X011167Y025662D02*
X011180Y025675D01*
X011167Y025662D02*
X011167Y025228D01*
X011167Y025162D02*
X011167Y024728D01*
X011482Y024477D02*
X009930Y022925D01*
X010055Y022675D02*
X002305Y022675D01*
X008149Y028456D02*
X008569Y028456D01*
X011482Y025228D02*
X011482Y024477D01*
X011797Y024417D02*
X010055Y022675D01*
X009930Y021425D02*
X009930Y018550D01*
X009405Y018025D01*
X008580Y018025D01*
X009930Y021425D02*
X013430Y024925D01*
X013430Y025925D01*
X013418Y025937D01*
X013136Y025937D01*
X013055Y025300D02*
X012430Y025925D01*
X011797Y025228D02*
X011797Y024417D01*
X014555Y024925D02*
X014568Y024913D01*
X015429Y024913D01*
X015429Y025413D02*
X014568Y025413D01*
X014555Y025425D01*
X014568Y025913D02*
X015429Y025913D01*
X014568Y025913D02*
X014555Y025925D01*
X010537Y033157D02*
X010930Y033550D01*
X009997Y014300D02*
X009390Y014300D01*
X009390Y013425D01*
X008720Y013425D02*
X008720Y013010D01*
X008805Y012925D01*
X010054Y012925D01*
X010713Y013584D01*
X010574Y013724D02*
X009997Y014300D01*
X008720Y013425D02*
X007555Y013425D01*
X009180Y011300D02*
X009180Y010925D01*
X009180Y011300D02*
X010305Y012425D01*
X010667Y012425D01*
X011270Y013028D01*
X011131Y013167D02*
X011514Y013550D01*
X011409Y012888D02*
X011409Y012874D01*
X013914Y010383D02*
X014305Y010773D01*
X014305Y010800D01*
X015805Y011833D02*
X015805Y011925D01*
X015805Y011833D02*
X016142Y011496D01*
X016555Y011083D01*
X016555Y010925D01*
X020930Y006675D02*
X021430Y007175D01*
X021430Y008425D01*
X021930Y007675D02*
X022680Y007675D01*
X022680Y008800D01*
X022930Y009175D02*
X022930Y006050D01*
X022555Y006050D01*
X022930Y006050D02*
X022930Y003800D01*
X021930Y003800D02*
X021930Y005925D01*
X022680Y006675D01*
X022680Y007675D01*
D38*
X014430Y033175D03*
D39*
X014430Y034175D01*
X013305Y033175D02*
X015555Y033175D01*
D40*
X015930Y006675D02*
X015930Y003800D01*
X016930Y003800D02*
X016930Y006675D01*
X017930Y006675D02*
X017930Y003800D01*
X014930Y003800D02*
X014930Y006675D01*
X013930Y006675D02*
X013930Y003800D01*
X012930Y003800D02*
X012930Y006675D01*
X011930Y006675D02*
X011930Y003800D01*
X010930Y003800D02*
X010930Y006675D01*
X009930Y006675D02*
X009930Y003800D01*
X008930Y003800D02*
X008930Y006675D01*
X007930Y006675D02*
X007680Y006675D01*
X006930Y005925D01*
X006930Y003800D01*
X005930Y003800D02*
X005930Y005925D01*
X006680Y006675D01*
X006930Y006675D01*
D41*
X018930Y006675D02*
X018930Y003800D01*
X018930Y006675D02*
X019430Y007175D01*
X019430Y008175D01*
X020305Y009050D01*
X020305Y009925D01*
X020305Y010975D01*
X020265Y011015D01*
X021090Y011015D01*
X021180Y010925D01*
X020795Y011915D02*
X021055Y012175D01*
X021055Y013799D01*
X021056Y013800D01*
X020305Y013800D01*
X020060Y014045D01*
X020060Y016900D01*
X020700Y016900D02*
X020700Y014820D01*
X020680Y014800D01*
X020795Y011915D02*
X020265Y011915D01*
X020430Y010050D02*
X021056Y010050D01*
X020430Y010050D02*
X020410Y010048D01*
X020391Y010044D01*
X020373Y010036D01*
X020357Y010026D01*
X020342Y010013D01*
X020329Y009998D01*
X020319Y009982D01*
X020311Y009964D01*
X020307Y009945D01*
X020305Y009925D01*
M02*
