G75*
%MOIN*%
%OFA0B0*%
%FSLAX24Y24*%
%IPPOS*%
%LPD*%
%AMOC8*
5,1,8,0,0,1.08239X$1,22.5*
%
%ADD10C,0.2730*%
%ADD11C,0.1182*%
%ADD12R,0.0680X0.2630*%
%ADD13C,0.0572*%
%ADD14C,0.0720*%
%ADD15C,0.0740*%
%ADD16OC8,0.0780*%
%ADD17C,0.0965*%
%ADD18C,0.0600*%
%ADD19R,0.0674X0.0674*%
%ADD20C,0.0674*%
%ADD21OC8,0.0740*%
%ADD22R,0.0671X0.0592*%
%ADD23C,0.0390*%
%ADD24C,0.1582*%
D10*
X014430Y022550D03*
D11*
X014430Y033175D03*
D12*
X005930Y003800D03*
X006930Y003800D03*
X008930Y003800D03*
X009930Y003800D03*
X010930Y003800D03*
X011930Y003800D03*
X012930Y003800D03*
X013930Y003800D03*
X014930Y003800D03*
X015930Y003800D03*
X016930Y003800D03*
X017930Y003800D03*
X018930Y003800D03*
X019930Y003800D03*
X021930Y003800D03*
X022930Y003800D03*
D13*
X006359Y034330D03*
X003210Y034330D03*
D14*
X002330Y028675D03*
X002330Y027675D03*
X002330Y026675D03*
X001330Y026675D03*
X001330Y027675D03*
X001330Y028675D03*
D15*
X002305Y025675D03*
X002305Y024675D03*
X002305Y023675D03*
X002305Y022675D03*
X007430Y023800D03*
X007430Y024800D03*
X008580Y021025D03*
X008580Y020025D03*
X008580Y019025D03*
X008580Y018025D03*
X008580Y017025D03*
X008580Y016025D03*
X007555Y014425D03*
X007555Y013425D03*
D16*
X024740Y034140D03*
X026520Y034140D03*
D17*
X027010Y033160D03*
X024250Y033160D03*
D18*
X005655Y026675D03*
X005655Y024775D03*
D19*
X021930Y007675D03*
D20*
X021930Y006675D03*
X020930Y006675D03*
X020930Y007675D03*
X019930Y007675D03*
X019930Y006675D03*
X018930Y006675D03*
X018930Y007675D03*
X017930Y007675D03*
X017930Y006675D03*
X016930Y006675D03*
X016930Y007675D03*
X015930Y007675D03*
X015930Y006675D03*
X014930Y006675D03*
X014930Y007675D03*
X013930Y007675D03*
X013930Y006675D03*
X012930Y006675D03*
X012930Y007675D03*
X011930Y007675D03*
X011930Y006675D03*
X010930Y006675D03*
X010930Y007675D03*
X009930Y007675D03*
X009930Y006675D03*
X008930Y006675D03*
X008930Y007675D03*
X007930Y007675D03*
X007930Y006675D03*
X006930Y006675D03*
X006930Y007675D03*
D21*
X008930Y033550D03*
X009930Y033550D03*
X010930Y033550D03*
X011930Y033550D03*
D22*
X004805Y030799D03*
X004805Y030051D03*
D23*
X004805Y029175D03*
X006180Y029425D03*
X006180Y028675D03*
X006680Y028675D03*
X007930Y028175D03*
X007930Y027550D03*
X009305Y025925D03*
X009680Y026425D03*
X009930Y026050D03*
X010305Y026425D03*
X010555Y026050D03*
X009930Y027050D03*
X009680Y027800D03*
X010305Y028675D03*
X010930Y028425D03*
X010805Y030425D03*
X011167Y030800D03*
X011680Y030800D03*
X013180Y029925D03*
X013305Y030425D03*
X013305Y030925D03*
X014555Y030925D03*
X014555Y030425D03*
X014555Y029925D03*
X014555Y029425D03*
X014555Y028925D03*
X014555Y028425D03*
X014555Y027925D03*
X014555Y027425D03*
X014555Y026925D03*
X014555Y026425D03*
X014555Y025925D03*
X014555Y025425D03*
X014555Y024925D03*
X015805Y023800D03*
X017680Y023425D03*
X018930Y023925D03*
X019055Y023425D03*
X019805Y023675D03*
X019555Y024675D03*
X019555Y025175D03*
X019555Y025675D03*
X019555Y026175D03*
X019555Y026675D03*
X019555Y027175D03*
X019555Y027675D03*
X019555Y028175D03*
X019555Y028675D03*
X019555Y029175D03*
X019555Y029675D03*
X019555Y030175D03*
X019555Y030675D03*
X019555Y031175D03*
X019555Y031675D03*
X020805Y032300D03*
X021555Y031925D03*
X021555Y031425D03*
X021555Y030925D03*
X021555Y030425D03*
X021555Y029925D03*
X021555Y029425D03*
X021555Y028925D03*
X021555Y028425D03*
X021555Y027925D03*
X021555Y027425D03*
X021555Y026925D03*
X021555Y026425D03*
X021555Y025925D03*
X021555Y025425D03*
X021555Y024925D03*
X021555Y020050D03*
X021930Y019300D03*
X021930Y018425D03*
X020680Y014800D03*
X020060Y014045D03*
X019680Y014425D03*
X020055Y013425D03*
X018805Y013175D03*
X018930Y012550D03*
X018805Y012175D03*
X018555Y011800D03*
X018430Y010425D03*
X018055Y009425D03*
X019180Y008550D03*
X019680Y009175D03*
X020430Y008300D03*
X021430Y008425D03*
X022680Y008800D03*
X022930Y009175D03*
X021180Y010925D03*
X022805Y014425D03*
X018430Y016300D03*
X017680Y016675D03*
X018430Y018050D03*
X016055Y015800D03*
X015680Y016050D03*
X015055Y015925D03*
X014805Y016550D03*
X014180Y016425D03*
X013680Y016800D03*
X013180Y016050D03*
X013055Y015550D03*
X013430Y015300D03*
X013805Y015050D03*
X013930Y014300D03*
X013555Y013800D03*
X012555Y014550D03*
X012180Y014800D03*
X012055Y014175D03*
X011555Y014300D03*
X010555Y012925D03*
X010633Y012097D03*
X009555Y011050D03*
X009997Y014300D03*
X009680Y015050D03*
X011566Y016936D03*
X012680Y015800D03*
X014555Y017300D03*
X014555Y018818D03*
X015180Y020050D03*
X012805Y021050D03*
X012180Y021175D03*
X011930Y020675D03*
X011680Y021175D03*
X011180Y020675D03*
X011430Y020175D03*
X012430Y020175D03*
X012680Y022425D03*
X013055Y025300D03*
X013930Y026550D03*
X013680Y027175D03*
X013680Y028050D03*
X013680Y028425D03*
X013680Y028800D03*
X013680Y029175D03*
X014555Y031425D03*
X014555Y031925D03*
X012930Y034140D03*
X011430Y032800D03*
X009930Y031300D03*
X009930Y030550D03*
X008055Y029800D03*
X007055Y030925D03*
X008055Y032175D03*
X005680Y030800D03*
X004055Y025675D03*
X003180Y025050D03*
X001055Y022675D03*
X008055Y021925D03*
X008555Y025550D03*
X001180Y032300D03*
X015680Y014925D03*
X016180Y014675D03*
X016555Y014425D03*
X016055Y014175D03*
X015680Y013925D03*
X015305Y013675D03*
X014930Y013425D03*
X015180Y014425D03*
X014430Y011550D03*
X014430Y009675D03*
X016555Y010925D03*
X022555Y006050D03*
X026805Y022675D03*
X026180Y022925D03*
X025930Y023300D03*
X025680Y023050D03*
X025430Y023550D03*
X026555Y024425D03*
X026555Y024925D03*
X026555Y025425D03*
X026555Y025925D03*
X026555Y026425D03*
X026555Y026925D03*
X026555Y027425D03*
X026555Y027925D03*
X026555Y028425D03*
X026555Y028925D03*
X026555Y029425D03*
X026555Y029925D03*
X026555Y030425D03*
X026555Y030925D03*
X026555Y031425D03*
X026180Y030675D03*
X027805Y032300D03*
X025680Y028175D03*
X025430Y027175D03*
X025930Y027175D03*
X028055Y022425D03*
X017805Y033175D03*
D24*
X014430Y033175D03*
M02*
